{"glyphs":{"0":{"ha":694,"x_min":0,"x_max":0,"o":"m 344 6 b 633 244 510 6 611 101 b 651 482 646 317 651 396 b 643 708 651 568 649 643 b 586 893 638 774 618 836 b 385 1001 554 950 488 986 b 203 969 306 1000 244 989 b 101 878 161 950 128 919 b 42 519 51 796 42 658 b 54 251 42 381 46 292 b 107 119 64 211 81 168 b 181 31 132 74 157 43 b 344 6 204 18 260 10 z m 372 921 b 419 924 389 922 404 924 b 467 921 436 924 451 922 b 539 872 499 918 522 901 b 574 746 556 843 567 800 b 579 624 578 715 579 675 b 576 485 579 583 578 538 b 579 342 576 454 579 406 b 549 210 579 290 569 244 b 389 94 504 133 439 94 b 294 133 346 94 314 107 b 225 219 275 160 251 188 b 182 381 199 251 185 304 l 179 515 b 176 701 179 596 176 657 b 201 810 176 740 185 776 b 279 892 219 846 244 874 b 372 921 314 911 346 921 z m 390 578 b 322 508 358 578 322 569 b 390 428 322 453 357 428 b 461 488 425 428 461 454 b 390 578 461 521 456 578 z "},"1":{"ha":694,"x_min":0,"x_max":0,"o":"m 142 776 l 306 815 l 301 681 b 300 610 301 657 300 633 b 301 540 300 586 301 564 b 304 410 304 503 306 460 l 304 285 b 306 206 306 250 306 224 b 304 146 306 188 306 168 b 236 115 304 125 282 114 b 82 88 194 106 143 96 b 65 53 71 85 65 72 b 65 40 64 49 65 44 b 86 0 69 14 76 0 b 196 4 126 3 164 4 b 250 3 215 4 233 3 b 429 11 325 6 385 8 b 507 6 458 10 485 8 b 608 0 529 3 563 1 b 643 28 633 -1 644 8 l 639 88 b 474 107 639 96 583 103 b 463 361 461 165 465 313 b 460 483 463 421 461 461 l 456 568 l 456 665 l 464 793 b 468 960 465 847 468 889 b 436 978 468 969 457 978 b 401 972 426 978 415 976 b 108 888 296 919 199 892 b 72 861 88 879 76 871 b 69 790 69 851 68 828 b 74 774 69 783 71 778 b 89 767 74 769 79 767 b 142 776 100 767 117 771 z "},"2":{"ha":694,"x_min":0,"x_max":0,"o":"m 383 1000 b 143 886 308 1000 174 917 b 75 808 111 854 82 818 b 76 790 68 799 71 796 b 100 774 83 785 94 779 b 113 765 106 769 108 765 b 119 768 114 765 117 767 b 215 861 128 772 181 846 b 383 897 253 876 300 897 b 526 736 449 897 526 833 b 511 658 526 713 522 686 b 304 354 456 521 363 424 b 78 69 246 285 100 96 b 44 17 56 43 44 32 b 71 1 44 6 57 1 b 90 3 78 1 85 1 b 165 4 97 4 126 4 b 385 3 242 4 353 3 b 438 1 397 1 417 1 b 596 4 494 1 569 4 b 650 43 635 4 650 6 b 650 149 650 81 649 125 b 607 192 650 171 660 196 b 363 186 554 188 411 186 b 314 185 346 185 329 185 b 251 186 283 185 258 186 b 263 207 242 186 253 197 b 507 535 269 214 468 469 b 601 786 547 600 601 676 b 383 1000 601 894 517 1000 z "},"3":{"ha":694,"x_min":0,"x_max":0,"o":"m 178 981 b 114 986 157 981 133 986 b 81 958 94 986 81 981 b 82 889 81 942 82 917 b 81 761 82 838 81 779 b 101 713 81 735 75 713 b 403 718 128 713 378 718 b 460 708 426 718 460 719 b 454 699 460 706 458 703 b 207 496 426 676 224 513 b 178 465 186 478 178 475 b 179 439 178 456 178 446 b 189 431 181 433 183 431 b 192 431 189 431 190 431 b 254 436 196 431 208 429 b 404 451 303 443 358 451 b 551 417 453 451 518 444 b 614 281 585 389 610 346 b 526 64 614 160 553 79 b 347 6 506 54 433 6 b 158 94 257 6 192 43 b 108 204 125 146 114 192 b 93 224 106 217 100 224 b 86 222 90 224 89 224 b 57 207 74 217 58 211 b 46 194 53 204 46 203 b 53 172 46 189 47 182 b 278 -40 64 143 147 -40 b 454 -22 349 -40 414 -37 b 540 19 475 -15 504 -1 b 639 172 606 64 618 113 b 656 281 650 203 656 239 b 504 489 656 450 536 485 b 353 499 475 493 381 499 b 297 499 324 500 304 499 b 293 504 294 499 293 500 b 310 522 293 510 299 515 b 342 546 322 531 332 539 b 386 583 358 561 376 574 b 532 693 404 597 494 667 b 582 756 564 719 582 728 l 583 926 b 567 989 583 967 585 989 b 372 992 547 989 447 992 b 178 981 299 992 238 981 z "},"4":{"ha":694,"x_min":0,"x_max":0,"o":"m 510 1001 l 500 1001 b 463 978 489 1001 478 999 b 310 756 450 961 411 900 b 122 510 163 557 174 588 b 40 367 47 397 40 419 b 72 332 40 350 42 332 b 236 338 99 332 181 338 b 300 335 264 338 274 335 b 449 342 356 335 432 342 b 479 304 467 342 479 336 b 472 125 479 163 476 210 l 472 58 b 489 8 472 13 474 8 b 551 35 510 8 551 1 l 551 49 b 557 321 551 65 554 321 b 558 300 557 313 558 300 b 558 307 558 300 558 301 b 583 342 558 326 560 342 b 632 344 604 342 622 344 l 639 344 b 653 360 644 344 653 349 b 651 367 653 361 651 363 b 639 414 647 385 654 414 b 579 410 617 414 586 410 b 560 458 567 410 560 415 b 569 965 560 840 569 888 b 522 1004 569 1008 560 997 b 510 1001 519 1003 515 1001 z m 481 694 l 478 625 b 478 563 478 601 478 581 b 442 404 478 431 476 404 l 369 404 b 222 400 288 404 238 400 b 151 403 199 400 169 403 b 118 397 131 403 125 397 b 111 407 114 397 111 400 b 200 524 111 443 144 438 b 315 672 222 553 240 568 l 407 800 b 486 922 467 896 482 922 l 486 921 b 488 918 486 919 488 919 b 483 867 488 900 483 885 b 481 694 483 872 481 724 z "},"5":{"ha":694,"x_min":0,"x_max":0,"o":"m 185 538 l 185 594 b 186 638 186 604 186 619 b 189 728 188 676 189 713 b 253 779 189 757 196 779 b 514 785 299 779 439 785 b 554 783 532 785 546 785 b 594 781 568 782 582 781 b 636 810 618 781 636 786 b 642 944 636 843 642 915 b 643 968 642 953 643 961 b 596 1000 643 986 636 1000 b 397 1003 553 1000 465 1003 b 333 1001 372 1003 350 1003 b 157 996 276 1000 211 996 b 114 999 144 996 129 999 b 50 936 82 999 50 989 b 60 567 50 858 64 619 b 53 485 58 536 53 507 b 67 439 53 464 56 439 b 194 438 79 439 132 438 b 236 458 204 436 218 443 b 294 490 254 474 274 483 b 390 506 315 497 347 503 b 479 411 444 501 472 468 b 436 292 479 350 476 329 b 321 239 396 257 361 239 b 192 317 238 239 197 278 b 190 343 190 326 190 335 b 163 376 190 365 190 376 b 71 375 125 376 88 375 b 53 336 58 375 53 361 b 56 300 53 326 53 314 b 346 -56 61 254 22 -56 b 649 281 608 -56 632 197 b 657 336 653 301 656 319 b 651 436 658 354 657 388 b 406 624 629 546 550 617 b 244 582 329 619 278 599 b 185 538 229 575 208 560 z "},"6":{"ha":694,"x_min":0,"x_max":0,"o":"m 421 531 b 293 493 361 531 321 511 b 254 457 278 483 264 471 b 261 558 254 494 257 528 b 328 661 268 610 289 661 b 411 608 403 661 403 619 b 431 585 411 599 417 585 b 450 590 436 585 443 586 b 593 690 476 610 571 679 b 629 732 610 697 629 711 b 624 751 629 738 626 744 b 343 974 610 783 526 974 b 22 468 243 974 22 851 b 333 -46 22 85 228 -46 b 671 308 440 -46 671 -40 b 421 531 671 457 533 531 z m 350 190 b 271 292 297 190 271 246 b 351 383 271 340 308 383 b 421 314 371 383 421 360 b 350 190 421 267 400 190 z "},"7":{"ha":694,"x_min":0,"x_max":0,"o":"m 411 574 l 175 574 b 149 528 154 574 149 557 l 149 431 b 167 399 149 413 149 399 b 286 407 185 403 265 407 l 304 407 b 222 272 265 347 233 296 b 93 57 189 217 113 88 b 71 15 79 36 71 24 b 81 0 71 10 74 4 b 113 -25 99 -11 104 -25 b 118 -24 114 -25 117 -25 b 185 81 129 -17 156 35 b 383 407 213 125 332 331 b 426 408 400 407 414 408 b 469 406 446 408 460 407 l 519 401 l 589 401 b 640 431 632 401 640 410 l 640 535 b 599 574 640 561 639 578 l 499 574 b 640 774 557 658 619 747 b 693 883 674 824 693 850 b 675 951 693 915 699 951 b 533 947 657 951 590 947 b 474 950 511 947 489 949 b 436 951 464 951 450 951 b 250 946 379 951 297 946 b 106 940 196 946 122 940 b 79 917 90 939 79 935 b 79 914 79 917 79 915 b 81 894 81 908 81 901 b 79 860 81 882 79 868 b 103 838 79 844 88 838 b 122 840 108 838 115 839 b 464 871 151 846 406 871 b 558 867 521 871 543 868 b 589 871 569 865 582 871 b 594 867 593 871 594 869 b 467 660 594 858 515 731 b 411 574 456 642 436 610 z "},"8":{"ha":694,"x_min":0,"x_max":0,"o":"m 506 544 b 563 611 528 563 547 585 b 621 807 592 657 621 722 b 379 1017 621 976 450 1017 b 128 803 276 1017 128 956 b 242 604 128 653 210 629 b 279 569 258 589 272 579 b 293 556 283 564 289 560 b 160 476 243 533 199 507 b 28 249 94 422 28 347 b 335 -8 28 96 125 -8 b 667 281 521 -8 667 97 b 586 483 667 375 626 440 b 506 544 563 508 536 529 z m 197 826 b 368 951 197 899 304 951 b 531 767 475 951 531 876 b 454 636 531 710 493 668 b 378 590 431 618 406 603 b 286 649 343 606 313 625 b 197 826 242 689 197 747 z m 379 49 b 107 236 253 49 107 60 b 247 436 107 321 175 393 b 389 507 289 463 336 486 b 490 456 426 494 461 476 b 593 281 542 421 593 364 b 379 49 593 186 503 49 z "},"9":{"ha":694,"x_min":0,"x_max":0,"o":"m 347 996 b 29 599 250 996 29 917 b 322 304 29 306 249 304 b 432 361 356 304 397 332 b 489 418 451 378 471 397 b 476 286 490 368 486 324 b 350 156 463 221 428 156 b 156 257 194 156 221 257 b 96 253 128 257 114 253 b 60 211 85 253 60 243 b 81 149 60 196 65 175 b 349 -44 129 68 200 -44 b 611 158 497 -44 567 76 b 665 488 658 239 665 379 b 347 996 665 600 604 996 z m 464 597 b 314 465 457 533 379 465 b 165 632 251 465 165 508 b 311 810 165 754 253 810 b 464 597 471 810 464 658 z "},"A":{"ha":704,"x_min":0,"x_max":0,"o":"m 50 96 l 38 44 b 32 25 33 35 33 29 b 31 18 31 22 31 19 b 38 0 26 6 28 0 l 65 0 b 81 13 78 0 76 1 b 90 49 83 25 86 38 b 104 93 96 67 100 88 b 117 139 110 104 115 128 b 149 281 121 150 142 258 l 154 307 l 157 321 b 169 336 160 332 164 336 b 172 336 171 336 171 336 l 257 336 b 360 338 301 336 349 336 b 419 340 369 338 396 339 b 463 342 433 342 447 342 b 485 319 472 342 475 342 l 497 279 b 519 219 504 257 514 232 b 549 125 531 197 544 146 b 565 63 550 115 556 89 b 581 13 569 47 574 31 b 596 0 585 1 589 0 l 674 0 b 689 6 686 0 689 1 b 685 19 689 8 688 13 b 629 171 678 38 640 126 b 572 349 618 214 583 315 b 497 547 557 383 508 519 b 425 760 490 572 429 735 b 375 931 418 782 390 894 b 338 1000 360 969 350 1000 b 289 933 311 1000 300 972 b 246 797 282 896 253 818 b 214 700 236 776 226 740 b 176 557 203 658 183 590 b 140 425 169 525 150 468 b 96 265 133 385 107 304 b 69 164 85 228 74 186 b 50 96 65 138 54 111 z m 425 432 b 350 433 410 432 378 433 b 303 431 329 433 311 432 b 222 428 285 431 236 428 b 183 442 210 428 183 424 b 186 451 183 444 185 447 b 232 618 197 481 225 585 b 285 807 243 651 278 776 b 307 875 294 839 301 875 b 335 801 314 875 328 826 b 383 629 339 778 369 671 b 433 472 399 588 422 497 b 443 442 439 458 443 447 b 425 432 443 435 439 432 z "},"Á":{"ha":703,"x_min":0,"x_max":0,"o":"m 415 1146 l 385 1135 b 300 1103 328 1110 319 1114 b 231 1068 286 1099 233 1078 b 228 1054 229 1063 228 1058 b 256 1024 228 1038 243 1028 b 285 1014 267 1017 275 1014 b 329 1026 297 1014 310 1019 b 447 1072 376 1049 400 1057 b 515 1119 463 1076 508 1096 b 492 1158 521 1150 511 1158 b 464 1156 485 1158 475 1157 b 415 1146 453 1156 432 1151 z m 50 96 l 38 44 b 32 25 33 35 33 29 b 31 18 31 22 31 19 b 38 0 26 6 28 0 l 65 0 b 81 13 78 0 76 1 b 90 49 83 25 86 38 b 104 93 96 67 100 88 b 117 139 110 104 115 128 b 149 281 121 150 142 258 l 154 307 l 157 321 b 169 336 160 332 164 336 b 172 336 171 336 171 336 l 257 336 b 360 338 301 336 349 336 b 419 340 369 338 396 339 b 463 342 433 342 447 342 b 485 319 472 342 475 342 l 497 279 b 519 219 504 257 514 232 b 549 125 531 197 544 146 b 565 63 550 115 556 89 b 581 13 569 47 574 31 b 596 0 585 1 589 0 l 674 0 b 689 6 686 0 689 1 b 685 19 689 8 688 13 b 629 171 678 38 640 126 b 572 349 618 214 583 315 b 497 547 557 383 508 519 b 425 760 490 572 429 735 b 375 931 418 782 390 894 b 338 1000 360 969 350 1000 b 289 933 311 1000 300 972 b 246 797 282 896 253 818 b 214 700 236 776 226 740 b 176 557 203 658 183 590 b 140 425 169 525 150 468 b 96 265 133 385 107 304 b 69 164 85 228 74 186 b 50 96 65 138 54 111 z m 425 432 b 350 433 410 432 378 433 b 303 431 329 433 311 432 b 222 428 285 431 236 428 b 183 442 210 428 183 424 b 186 451 183 444 185 447 b 232 618 197 481 225 585 b 285 807 243 651 278 776 b 307 875 294 839 301 875 b 335 801 314 875 328 826 b 383 629 339 778 369 671 b 433 472 399 588 422 497 b 443 442 439 458 443 447 b 425 432 443 435 439 432 z "},"Ă":{"ha":704,"x_min":0,"x_max":0,"o":"m 542 1156 b 496 1164 542 1160 526 1163 b 458 1154 474 1163 461 1158 b 407 1113 457 1136 440 1122 b 322 1100 375 1104 346 1100 b 231 1114 272 1103 242 1107 b 208 1151 221 1121 213 1133 b 168 1165 208 1164 208 1165 b 128 1161 129 1165 128 1165 b 149 1083 129 1138 136 1113 b 186 1046 156 1068 168 1056 b 325 1025 204 1036 251 1029 b 458 1043 390 1025 435 1031 b 513 1076 482 1056 500 1067 b 542 1156 540 1097 542 1144 z m 50 96 l 38 44 b 32 25 33 35 33 29 b 31 18 31 22 31 19 b 38 0 26 6 28 0 l 65 0 b 81 13 78 0 76 1 b 90 49 83 25 86 38 b 104 93 96 67 100 88 b 117 139 110 104 115 128 b 149 281 121 150 142 258 l 154 307 l 157 321 b 169 336 160 332 164 336 b 172 336 171 336 171 336 l 257 336 b 360 338 301 336 349 336 b 419 340 369 338 396 339 b 463 342 433 342 447 342 b 485 319 472 342 475 342 l 497 279 b 519 219 504 257 514 232 b 549 125 531 197 544 146 b 565 63 550 115 556 89 b 581 13 569 47 574 31 b 596 0 585 1 589 0 l 674 0 b 689 6 686 0 689 1 b 685 19 689 8 688 13 b 629 171 678 38 640 126 b 572 349 618 214 583 315 b 497 547 557 383 508 519 b 425 760 490 572 429 735 b 375 931 418 782 390 894 b 338 1000 360 969 350 1000 b 289 933 311 1000 300 972 b 246 797 282 896 253 818 b 214 700 236 776 226 740 b 176 557 203 658 183 590 b 140 425 169 525 150 468 b 96 265 133 385 107 304 b 69 164 85 228 74 186 b 50 96 65 138 54 111 z m 425 432 b 350 433 410 432 378 433 b 303 431 329 433 311 432 b 222 428 285 431 236 428 b 183 442 210 428 183 424 b 186 451 183 444 185 447 b 232 618 197 481 225 585 b 285 807 243 651 278 776 b 307 875 294 839 301 875 b 335 801 314 875 328 826 b 383 629 339 778 369 671 b 433 472 399 588 422 497 b 443 442 439 458 443 447 b 425 432 443 435 439 432 z "},"Â":{"ha":703,"x_min":0,"x_max":0,"o":"m 161 1081 l 124 1057 b 114 1040 117 1053 114 1046 b 147 1018 114 1029 125 1018 b 200 1022 165 1018 182 1019 b 279 1051 239 1033 258 1040 l 343 1081 l 388 1060 b 436 1035 403 1050 418 1042 l 474 1025 b 511 1015 489 1019 501 1015 b 533 1036 522 1015 529 1021 b 486 1083 538 1054 497 1076 b 393 1143 449 1107 431 1117 b 340 1164 369 1156 361 1164 b 325 1163 335 1164 331 1164 b 300 1157 318 1163 310 1161 b 228 1121 285 1153 260 1139 b 161 1081 186 1089 175 1088 z m 50 96 l 38 44 b 32 25 33 35 33 29 b 31 18 31 22 31 19 b 38 0 26 6 28 0 l 65 0 b 81 13 78 0 76 1 b 90 49 83 25 86 38 b 104 93 96 67 100 88 b 117 139 110 104 115 128 b 149 281 121 150 142 258 l 154 307 l 157 321 b 169 336 160 332 164 336 b 172 336 171 336 171 336 l 257 336 b 360 338 301 336 349 336 b 419 340 369 338 396 339 b 463 342 433 342 447 342 b 485 319 472 342 475 342 l 497 279 b 519 219 504 257 514 232 b 549 125 531 197 544 146 b 565 63 550 115 556 89 b 581 13 569 47 574 31 b 596 0 585 1 589 0 l 674 0 b 689 6 686 0 689 1 b 685 19 689 8 688 13 b 629 171 678 38 640 126 b 572 349 618 214 583 315 b 497 547 557 383 508 519 b 425 760 490 572 429 735 b 375 931 418 782 390 894 b 338 1000 360 969 350 1000 b 289 933 311 1000 300 972 b 246 797 282 896 253 818 b 214 700 236 776 226 740 b 176 557 203 658 183 590 b 140 425 169 525 150 468 b 96 265 133 385 107 304 b 69 164 85 228 74 186 b 50 96 65 138 54 111 z m 425 432 b 350 433 410 432 378 433 b 303 431 329 433 311 432 b 222 428 285 431 236 428 b 183 442 210 428 183 424 b 186 451 183 444 185 447 b 232 618 197 481 225 585 b 285 807 243 651 278 776 b 307 875 294 839 301 875 b 335 801 314 875 328 826 b 383 629 339 778 369 671 b 433 472 399 588 422 497 b 443 442 439 458 443 447 b 425 432 443 435 439 432 z "},"Ä":{"ha":703,"x_min":0,"x_max":0,"o":"m 425 1081 b 500 1006 425 1047 440 1006 b 588 1081 560 1006 588 1043 b 528 1167 588 1124 565 1167 b 425 1081 490 1167 425 1157 z m 274 1086 b 182 1157 274 1135 225 1157 b 107 1081 139 1157 107 1118 b 188 1000 107 1031 150 1000 b 274 1086 221 1000 274 1031 z m 50 96 l 38 44 b 32 25 33 35 33 29 b 31 18 31 22 31 19 b 38 0 26 6 28 0 l 65 0 b 81 13 78 0 76 1 b 90 49 83 25 86 38 b 104 93 96 67 100 88 b 117 139 110 104 115 128 b 149 281 121 150 142 258 l 154 307 l 157 321 b 169 336 160 332 164 336 b 172 336 171 336 171 336 l 257 336 b 360 338 301 336 349 336 b 419 340 369 338 396 339 b 463 342 433 342 447 342 b 485 319 472 342 475 342 l 497 279 b 519 219 504 257 514 232 b 549 125 531 197 544 146 b 565 63 550 115 556 89 b 581 13 569 47 574 31 b 596 0 585 1 589 0 l 674 0 b 689 6 686 0 689 1 b 685 19 689 8 688 13 b 629 171 678 38 640 126 b 572 349 618 214 583 315 b 497 547 557 383 508 519 b 425 760 490 572 429 735 b 375 931 418 782 390 894 b 338 1000 360 969 350 1000 b 289 933 311 1000 300 972 b 246 797 282 896 253 818 b 214 700 236 776 226 740 b 176 557 203 658 183 590 b 140 425 169 525 150 468 b 96 265 133 385 107 304 b 69 164 85 228 74 186 b 50 96 65 138 54 111 z m 425 432 b 350 433 410 432 378 433 b 303 431 329 433 311 432 b 222 428 285 431 236 428 b 183 442 210 428 183 424 b 186 451 183 444 185 447 b 232 618 197 481 225 585 b 285 807 243 651 278 776 b 307 875 294 839 301 875 b 335 801 314 875 328 826 b 383 629 339 778 369 671 b 433 472 399 588 422 497 b 443 442 439 458 443 447 b 425 432 443 435 439 432 z "},"À":{"ha":703,"x_min":0,"x_max":0,"o":"m 322 1056 l 353 1044 b 401 1039 371 1040 390 1038 b 454 1058 433 1035 454 1033 b 451 1076 454 1064 453 1069 b 382 1122 444 1103 397 1115 b 263 1163 333 1133 311 1142 b 219 1174 244 1168 232 1174 b 189 1163 210 1174 201 1169 b 163 1132 176 1157 163 1149 b 167 1117 163 1128 164 1122 b 236 1085 171 1106 221 1089 b 322 1056 254 1074 267 1081 z m 50 96 l 38 44 b 32 25 33 35 33 29 b 31 18 31 22 31 19 b 38 0 26 6 28 0 l 65 0 b 81 13 78 0 76 1 b 90 49 83 25 86 38 b 104 93 96 67 100 88 b 117 139 110 104 115 128 b 149 281 121 150 142 258 l 154 307 l 157 321 b 169 336 160 332 164 336 b 172 336 171 336 171 336 l 257 336 b 360 338 301 336 349 336 b 419 340 369 338 396 339 b 463 342 433 342 447 342 b 485 319 472 342 475 342 l 497 279 b 519 219 504 257 514 232 b 549 125 531 197 544 146 b 565 63 550 115 556 89 b 581 13 569 47 574 31 b 596 0 585 1 589 0 l 674 0 b 689 6 686 0 689 1 b 685 19 689 8 688 13 b 629 171 678 38 640 126 b 572 349 618 214 583 315 b 497 547 557 383 508 519 b 425 760 490 572 429 735 b 375 931 418 782 390 894 b 338 1000 360 969 350 1000 b 289 933 311 1000 300 972 b 246 797 282 896 253 818 b 214 700 236 776 226 740 b 176 557 203 658 183 590 b 140 425 169 525 150 468 b 96 265 133 385 107 304 b 69 164 85 228 74 186 b 50 96 65 138 54 111 z m 425 432 b 350 433 410 432 378 433 b 303 431 329 433 311 432 b 222 428 285 431 236 428 b 183 442 210 428 183 424 b 186 451 183 444 185 447 b 232 618 197 481 225 585 b 285 807 243 651 278 776 b 307 875 294 839 301 875 b 335 801 314 875 328 826 b 383 629 339 778 369 671 b 433 472 399 588 422 497 b 443 442 439 458 443 447 b 425 432 443 435 439 432 z "},"Ā":{"ha":704,"x_min":0,"x_max":0,"o":"m 517 1154 l 144 1154 b 129 1128 132 1154 129 1146 l 129 1090 b 140 1072 129 1081 129 1072 b 211 1076 147 1076 200 1076 l 394 1076 b 511 1072 428 1076 486 1072 b 542 1090 538 1072 542 1078 l 542 1132 b 526 1156 542 1144 542 1156 b 517 1154 524 1156 521 1154 z m 50 96 l 38 44 b 32 25 33 35 33 29 b 31 18 31 22 31 19 b 38 0 26 6 28 0 l 65 0 b 81 13 78 0 76 1 b 90 49 83 25 86 38 b 104 93 96 67 100 88 b 117 139 110 104 115 128 b 149 281 121 150 142 258 l 154 307 l 157 321 b 169 336 160 332 164 336 b 172 336 171 336 171 336 l 257 336 b 360 338 301 336 349 336 b 419 340 369 338 396 339 b 463 342 433 342 447 342 b 485 319 472 342 475 342 l 497 279 b 519 219 504 257 514 232 b 549 125 531 197 544 146 b 565 63 550 115 556 89 b 581 13 569 47 574 31 b 596 0 585 1 589 0 l 674 0 b 689 6 686 0 689 1 b 685 19 689 8 688 13 b 629 171 678 38 640 126 b 572 349 618 214 583 315 b 497 547 557 383 508 519 b 425 760 490 572 429 735 b 375 931 418 782 390 894 b 338 1000 360 969 350 1000 b 289 933 311 1000 300 972 b 246 797 282 896 253 818 b 214 700 236 776 226 740 b 176 557 203 658 183 590 b 140 425 169 525 150 468 b 96 265 133 385 107 304 b 69 164 85 228 74 186 b 50 96 65 138 54 111 z m 425 432 b 350 433 410 432 378 433 b 303 431 329 433 311 432 b 222 428 285 431 236 428 b 183 442 210 428 183 424 b 186 451 183 444 185 447 b 232 618 197 481 225 585 b 285 807 243 651 278 776 b 307 875 294 839 301 875 b 335 801 314 875 328 826 b 383 629 339 778 369 671 b 433 472 399 588 422 497 b 443 442 439 458 443 447 b 425 432 443 435 439 432 z "},"Ą":{"ha":704,"x_min":0,"x_max":0,"o":"m 650 0 l 674 0 b 689 6 686 0 689 1 b 685 19 689 8 688 13 b 629 171 678 38 640 126 b 572 349 618 214 583 315 b 497 547 557 383 508 519 b 425 760 490 572 429 735 b 375 931 418 782 390 894 b 338 1000 360 969 350 1000 b 289 933 311 1000 300 972 b 246 797 282 896 253 818 b 214 700 236 776 226 740 b 176 557 203 658 183 590 b 140 425 169 525 150 468 b 96 265 133 385 107 304 b 69 164 85 228 74 186 b 50 96 65 138 54 111 l 38 44 b 32 25 33 35 33 29 b 31 18 31 22 31 19 b 38 0 26 6 28 0 l 65 0 b 81 13 78 0 76 1 b 90 49 83 25 86 38 b 104 93 96 67 100 88 b 117 139 110 104 115 128 b 149 281 121 150 142 258 l 154 307 l 157 321 b 169 336 160 332 164 336 b 172 336 171 336 171 336 l 257 336 b 360 338 301 336 349 336 b 419 340 369 338 396 339 b 463 342 433 342 447 342 b 485 319 472 342 475 342 l 497 279 b 519 219 504 257 514 232 b 549 125 531 197 544 146 b 565 63 550 115 556 89 b 581 13 569 47 574 31 b 583 6 582 10 583 7 l 575 -11 b 556 -62 571 -21 564 -37 b 543 -126 547 -87 543 -108 b 657 -237 547 -219 589 -239 b 807 -137 707 -235 807 -175 b 779 -103 807 -124 790 -103 b 669 -135 767 -103 754 -140 b 642 -78 650 -133 642 -112 b 643 -53 642 -69 642 -61 b 650 0 646 -29 650 -12 z m 425 432 b 350 433 410 432 378 433 b 303 431 329 433 311 432 b 222 428 285 431 236 428 b 183 442 210 428 183 424 b 186 451 183 444 185 447 b 232 618 197 481 225 585 b 285 807 243 651 278 776 b 307 875 294 839 301 875 b 335 801 314 875 328 826 b 383 629 339 778 369 671 b 433 472 399 588 422 497 b 443 442 439 457 443 447 b 425 432 443 435 439 432 z "},"Å":{"ha":703,"x_min":0,"x_max":0,"o":"m 50 96 l 38 44 b 32 25 33 35 33 29 b 31 18 31 22 31 19 b 38 0 26 6 28 0 l 65 0 b 81 13 78 0 76 1 b 90 49 83 25 86 38 b 104 93 96 67 100 88 b 117 139 110 104 115 128 b 149 281 121 150 142 258 l 154 307 l 157 321 b 169 336 160 332 164 336 b 172 336 171 336 171 336 l 257 336 b 360 338 301 336 349 336 b 419 340 369 338 396 339 b 463 342 433 342 447 342 b 485 319 472 342 475 342 l 497 279 b 519 219 504 257 514 232 b 549 125 531 197 544 146 b 565 63 550 115 556 89 b 581 13 569 47 574 31 b 596 0 585 1 589 0 l 674 0 b 689 6 686 0 689 1 b 685 19 689 8 688 13 b 629 171 678 38 640 126 b 572 349 618 214 583 315 b 497 547 557 383 508 519 b 425 760 490 572 429 735 b 375 931 418 782 390 894 l 361 967 b 393 974 372 968 383 969 b 453 1067 440 997 453 1053 b 344 1167 453 1085 444 1167 b 258 1114 296 1167 269 1142 b 244 1061 251 1099 246 1081 b 304 975 244 1024 271 990 b 289 933 299 964 293 950 b 246 797 282 896 253 818 b 214 700 236 776 226 740 b 176 557 203 658 183 590 b 140 425 169 525 150 468 b 96 265 133 385 107 304 b 69 164 85 228 74 186 b 50 96 65 138 54 111 z m 351 1097 b 386 1067 374 1097 386 1081 b 363 1038 386 1046 367 1042 b 347 1036 361 1038 354 1036 b 313 1067 329 1036 313 1050 b 351 1097 313 1082 325 1097 z m 425 432 b 350 433 410 432 378 433 b 303 431 329 433 311 432 b 222 428 285 431 236 428 b 183 442 210 428 183 424 b 186 451 183 444 185 447 b 232 618 197 481 225 585 b 285 807 243 651 278 776 b 307 875 294 839 301 875 b 335 801 314 875 328 826 b 383 629 339 778 369 671 b 433 472 399 588 422 497 b 443 442 438 458 443 447 b 425 432 443 435 438 432 z "},"Ǻ":{"ha":704,"x_min":0,"x_max":0,"o":"m 353 1210 l 322 1199 b 238 1167 265 1174 257 1178 b 168 1132 224 1163 171 1142 b 165 1118 167 1126 165 1122 b 193 1088 165 1101 181 1092 b 222 1078 204 1081 213 1078 b 231 1079 225 1078 228 1078 l 228 1061 b 301 969 228 1018 263 981 b 289 933 297 960 293 947 b 246 797 282 896 253 818 b 214 700 236 776 226 740 b 176 557 203 658 183 590 b 140 425 169 525 150 468 b 96 265 133 385 107 304 b 69 164 85 228 74 186 b 50 96 65 138 54 111 l 38 44 b 32 25 33 35 33 29 b 31 18 31 22 31 19 b 38 0 26 6 28 0 l 65 0 b 81 13 78 0 76 1 b 90 49 83 25 86 38 b 104 93 96 67 100 88 b 117 139 110 104 115 128 b 149 281 121 150 142 258 l 154 307 l 157 321 b 169 336 160 332 164 336 b 172 336 171 336 171 336 l 257 336 b 360 338 301 336 349 336 b 419 340 369 338 396 339 b 463 342 433 342 447 342 b 485 319 472 342 475 342 l 497 279 b 519 219 504 257 514 232 b 549 125 531 197 544 146 b 565 63 550 115 556 89 b 581 13 569 47 574 31 b 596 0 585 1 589 0 l 674 0 b 689 6 686 0 689 1 b 685 19 689 8 688 13 b 629 171 678 38 640 126 b 572 349 618 214 583 315 b 497 547 557 383 508 519 b 425 760 490 572 429 735 b 375 931 418 782 390 894 l 360 968 b 376 974 365 969 371 971 b 436 1067 424 997 436 1053 b 403 1143 436 1078 432 1117 b 453 1183 422 1151 447 1167 b 429 1222 458 1214 449 1222 b 401 1219 422 1222 413 1221 b 353 1210 390 1219 369 1215 z m 335 1097 b 369 1067 357 1097 369 1081 b 346 1038 369 1046 350 1042 b 331 1036 344 1038 338 1036 b 296 1067 313 1036 296 1050 b 335 1097 296 1082 308 1097 z m 425 432 b 350 433 410 432 378 433 b 303 431 329 433 311 432 b 222 428 285 431 236 428 b 183 442 210 428 183 424 b 186 451 183 444 185 447 b 232 618 197 481 225 585 b 285 807 243 651 278 776 b 307 875 294 839 301 875 b 335 801 314 875 328 826 b 383 629 339 778 369 671 b 433 472 399 588 422 497 b 443 442 439 458 443 447 b 425 432 443 435 439 432 z "},"Ã":{"ha":703,"x_min":0,"x_max":0,"o":"m 568 1093 l 568 1114 b 528 1149 565 1125 581 1146 b 439 1154 501 1153 472 1154 b 274 1143 367 1154 313 1150 b 174 1131 235 1136 213 1131 b 94 1150 131 1139 106 1150 b 85 1143 89 1150 86 1149 b 82 1111 82 1133 82 1121 b 82 1093 82 1104 82 1097 b 174 1061 82 1081 89 1061 b 299 1072 228 1061 250 1068 b 444 1088 347 1076 379 1086 b 536 1071 478 1088 510 1071 b 568 1093 557 1071 568 1078 z m 50 96 l 38 44 b 32 25 33 35 33 29 b 31 18 31 22 31 19 b 38 0 26 6 28 0 l 65 0 b 81 13 78 0 76 1 b 90 49 83 25 86 38 b 104 93 96 67 100 88 b 117 139 110 104 115 128 b 149 281 121 150 142 258 l 154 307 l 157 321 b 169 336 160 332 164 336 b 172 336 171 336 171 336 l 257 336 b 360 338 301 336 349 336 b 419 340 369 338 396 339 b 463 342 433 342 447 342 b 485 319 472 342 475 342 l 497 279 b 519 219 504 257 514 232 b 549 125 531 197 544 146 b 565 63 550 115 556 89 b 581 13 569 47 574 31 b 596 0 585 1 589 0 l 674 0 b 689 6 686 0 689 1 b 685 19 689 8 688 13 b 629 171 678 38 640 126 b 572 349 618 214 583 315 b 497 547 557 383 508 519 b 425 760 490 572 429 735 b 375 931 418 782 390 894 b 338 1000 360 969 350 1000 b 289 933 311 1000 300 972 b 246 797 282 896 253 818 b 214 700 236 776 226 740 b 176 557 203 658 183 590 b 140 425 169 525 150 468 b 96 265 133 385 107 304 b 69 164 85 228 74 186 b 50 96 65 138 54 111 z m 425 432 b 350 433 410 432 378 433 b 303 431 329 433 311 432 b 222 428 285 431 236 428 b 183 442 210 428 183 424 b 186 451 183 444 185 447 b 232 618 197 481 225 585 b 285 807 243 651 278 776 b 307 875 294 839 301 875 b 335 801 314 875 328 826 b 383 629 339 778 369 671 b 433 472 399 588 422 497 b 443 442 439 458 443 447 b 425 432 443 435 439 432 z "},"Æ":{"ha":1231,"x_min":0,"x_max":0,"o":"m 761 972 l 706 968 b 656 967 688 967 671 967 b 585 968 624 967 600 967 l 557 971 b 556 979 556 974 556 976 b 542 1000 553 993 549 1000 b 479 933 515 1000 497 972 l 463 899 l 442 858 b 408 797 429 832 414 808 b 357 700 396 776 378 740 l 290 557 b 226 425 275 525 244 468 b 150 265 211 385 169 303 b 104 164 132 228 111 186 b 71 96 94 138 78 111 b 49 44 64 79 54 60 l 39 25 b 36 18 38 22 36 19 b 31 6 33 13 31 8 b 39 0 31 1 33 0 l 67 0 b 85 13 79 0 79 1 l 101 49 b 124 93 111 67 118 88 b 144 139 131 104 140 128 b 206 281 151 150 194 258 l 217 307 l 222 321 b 238 336 228 332 232 336 b 240 336 239 336 239 336 l 389 336 b 429 338 410 336 422 336 b 489 340 439 338 465 339 b 532 342 503 342 517 342 b 550 319 542 342 544 342 l 558 229 b 568 146 563 200 567 172 b 578 63 575 96 574 89 b 583 13 579 47 581 31 b 596 0 585 1 589 0 l 792 3 b 851 4 815 4 835 4 b 1097 1 917 4 1051 1 b 1160 32 1142 1 1164 -7 l 1160 149 b 1110 186 1156 172 1149 188 b 1058 185 1097 185 1079 185 b 882 188 1003 185 928 188 b 719 186 819 188 751 186 b 681 185 704 186 690 185 b 665 183 675 183 669 183 l 649 322 b 657 321 650 321 653 321 b 675 319 660 319 665 319 b 838 331 690 319 749 331 b 976 328 925 331 954 328 b 1013 338 996 328 1013 315 b 1013 346 1013 340 1013 343 b 1010 390 1013 367 1010 376 b 1013 419 1010 399 1011 407 l 1013 447 b 993 481 1013 476 1003 481 b 979 479 989 481 983 479 b 911 483 964 479 944 483 b 764 478 878 483 815 478 l 710 478 b 667 479 693 478 679 478 b 629 481 653 479 640 479 b 622 525 626 496 624 510 l 613 607 b 601 740 608 656 601 718 b 599 758 600 749 599 754 b 611 768 599 765 601 768 l 717 768 b 758 769 732 768 746 768 b 796 771 771 771 783 771 b 901 768 831 771 867 768 b 1024 764 960 768 1001 768 b 1071 778 1038 761 1075 742 b 1072 842 1072 796 1072 817 b 1069 935 1072 874 1069 900 b 1053 972 1068 960 1063 972 b 1018 974 1043 974 1031 974 b 863 979 992 974 919 979 b 761 972 835 979 799 976 z m 514 432 l 414 432 b 390 431 404 432 396 432 b 325 428 376 431 347 428 l 310 428 b 274 439 297 428 274 424 b 278 451 274 442 275 446 b 358 618 296 481 343 585 b 431 769 372 643 407 719 l 450 807 b 486 875 465 839 481 875 b 499 801 492 875 494 826 b 511 629 499 778 507 672 b 517 590 513 619 515 606 l 522 544 b 529 472 526 515 528 485 b 533 444 531 460 533 450 b 514 432 533 436 529 432 z "},"Ǽ":{"ha":1231,"x_min":0,"x_max":0,"o":"m 725 1153 l 694 1142 b 610 1110 638 1117 629 1121 b 540 1075 596 1106 543 1085 b 538 1061 539 1069 538 1065 b 565 1031 538 1044 553 1035 b 594 1021 576 1024 585 1021 b 639 1033 607 1021 619 1026 b 757 1079 686 1056 710 1064 b 825 1126 772 1083 818 1103 b 801 1165 831 1157 821 1165 b 774 1163 794 1165 785 1164 b 725 1153 763 1163 742 1158 z m 761 972 l 706 968 b 656 967 688 967 671 967 b 585 968 624 967 600 967 l 557 971 b 556 979 556 974 556 976 b 542 1000 553 993 549 1000 b 479 933 515 1000 497 972 l 463 899 l 442 858 b 408 797 429 832 414 808 b 357 700 396 776 378 740 l 290 557 b 226 425 275 525 244 468 b 150 265 211 385 169 303 b 104 164 132 228 111 186 b 71 96 94 138 78 111 b 49 44 64 79 54 60 l 39 25 b 36 18 38 22 36 19 b 31 6 33 13 31 8 b 39 0 31 1 33 0 l 67 0 b 85 13 79 0 79 1 l 101 49 b 124 93 111 67 118 88 b 144 139 131 104 140 128 b 206 281 151 150 194 258 l 217 307 l 222 321 b 238 336 228 332 232 336 b 240 336 239 336 239 336 l 389 336 b 429 338 410 336 422 336 b 489 340 439 338 465 339 b 532 342 503 342 517 342 b 550 319 542 342 544 342 l 558 229 b 568 146 563 200 567 172 b 578 63 575 96 574 89 b 583 13 579 47 581 31 b 596 0 585 1 589 0 l 792 3 b 851 4 815 4 835 4 b 1097 1 917 4 1051 1 b 1160 32 1142 1 1164 -7 l 1160 149 b 1110 186 1156 172 1149 188 b 1058 185 1097 185 1079 185 b 882 188 1003 185 928 188 b 719 186 819 188 751 186 b 681 185 704 186 690 185 b 665 183 675 183 669 183 l 649 322 b 657 321 650 321 653 321 b 675 319 660 319 665 319 b 838 331 690 319 749 331 b 976 328 925 331 954 328 b 1013 338 996 328 1013 315 b 1013 346 1013 340 1013 343 b 1010 390 1013 367 1010 376 b 1013 419 1010 399 1011 407 l 1013 447 b 993 481 1013 476 1003 481 b 979 479 989 481 983 479 b 911 483 964 479 944 483 b 764 478 878 483 815 478 l 710 478 b 667 479 693 478 679 478 b 629 481 653 479 640 479 b 622 525 626 496 624 510 l 613 607 b 601 740 608 656 601 718 b 599 758 600 749 599 754 b 611 768 599 765 601 768 l 717 768 b 758 769 732 768 746 768 b 796 771 771 771 783 771 b 901 768 831 771 867 768 b 1024 764 960 768 1001 768 b 1071 778 1038 761 1075 742 b 1072 842 1072 796 1072 817 b 1069 935 1072 874 1069 900 b 1053 972 1068 960 1063 972 b 1018 974 1043 974 1031 974 b 863 979 992 974 919 979 b 761 972 835 979 799 976 z m 514 432 l 414 432 b 390 431 404 432 396 432 b 325 428 376 431 347 428 l 310 428 b 274 439 297 428 274 424 b 278 451 274 442 275 446 b 358 618 296 481 343 585 b 431 769 372 643 407 719 l 450 807 b 486 875 465 839 481 875 b 499 801 492 875 494 826 b 511 629 499 778 507 672 b 517 590 513 619 515 606 l 522 544 b 529 472 526 515 528 485 b 533 444 531 460 533 450 b 514 432 533 436 529 432 z "},"B":{"ha":711,"x_min":0,"x_max":0,"o":"m 419 483 b 499 529 449 493 475 508 b 579 738 539 567 579 628 b 293 990 579 951 443 990 b 111 971 219 990 124 975 b 96 958 100 968 96 964 b 97 951 96 957 96 954 b 101 882 99 944 101 913 b 100 843 101 868 101 854 b 92 514 96 804 96 592 b 88 418 88 471 88 444 b 88 351 88 397 88 378 l 86 43 b 125 -10 86 15 92 -10 b 344 -6 157 -10 290 -6 b 671 181 400 -6 671 -17 b 419 483 671 396 450 472 z m 268 554 l 268 713 b 271 861 268 751 269 811 l 274 950 b 528 726 400 950 528 940 b 275 501 528 514 286 501 b 265 514 265 501 265 504 b 268 554 265 524 268 532 z m 311 21 b 269 43 285 21 269 15 b 264 189 269 68 264 156 b 267 253 264 222 267 226 b 261 417 267 278 261 386 b 263 449 261 432 261 442 b 264 460 263 453 263 456 b 424 435 324 461 376 453 b 583 182 503 401 583 333 b 311 21 583 88 499 21 z "},"C":{"ha":733,"x_min":0,"x_max":0,"o":"m 649 186 l 531 251 b 514 257 524 256 518 257 b 493 240 507 257 503 250 b 396 186 478 225 435 186 b 232 457 357 186 232 231 b 382 756 232 685 321 756 b 465 697 417 756 439 726 b 488 683 474 688 481 683 b 531 719 501 683 515 700 b 622 807 551 747 596 786 b 638 829 633 817 638 824 b 622 858 638 839 631 847 b 376 978 607 881 531 978 b 51 492 221 978 51 781 b 407 -17 51 203 225 -17 b 683 143 588 -17 668 117 b 688 158 686 149 688 154 b 649 186 688 172 669 176 z "},"Ć":{"ha":733,"x_min":0,"x_max":0,"o":"m 457 1153 l 426 1142 b 342 1110 369 1117 361 1121 b 272 1075 328 1106 275 1085 b 269 1061 271 1069 269 1065 b 297 1031 269 1044 285 1035 b 326 1021 308 1024 317 1021 b 371 1033 339 1021 351 1026 b 489 1079 418 1056 442 1064 b 557 1126 504 1083 550 1103 b 533 1165 563 1157 553 1165 b 506 1163 526 1165 517 1164 b 457 1153 494 1163 474 1158 z m 649 186 l 531 251 b 514 257 524 256 518 257 b 493 240 507 257 503 250 b 396 186 478 225 435 186 b 232 457 357 186 232 231 b 382 756 232 685 321 756 b 465 697 417 756 439 726 b 488 683 474 688 481 683 b 531 719 501 683 515 700 b 622 807 551 747 596 786 b 638 829 633 817 638 824 b 622 858 638 839 631 847 b 376 978 607 881 531 978 b 51 492 221 978 51 781 b 407 -17 51 203 225 -17 b 683 143 588 -17 668 117 b 688 158 686 149 688 154 b 649 186 688 172 669 176 z "},"Č":{"ha":733,"x_min":0,"x_max":0,"o":"m 576 1099 l 613 1122 b 624 1139 619 1126 624 1133 b 590 1161 624 1150 613 1161 b 538 1157 572 1161 556 1160 b 457 1128 499 1146 479 1139 b 394 1099 447 1122 426 1113 l 350 1119 b 301 1144 335 1129 319 1138 l 264 1154 b 226 1164 249 1160 236 1164 b 204 1143 215 1164 208 1158 b 251 1096 200 1125 240 1103 b 344 1036 289 1072 307 1063 b 397 1015 368 1024 376 1015 b 413 1017 403 1015 407 1015 b 438 1022 419 1017 428 1018 b 510 1058 453 1026 478 1040 b 576 1099 551 1090 563 1092 z m 649 186 l 531 251 b 514 257 524 256 518 257 b 493 240 507 257 503 250 b 396 186 478 225 435 186 b 232 457 357 186 232 231 b 382 756 232 685 321 756 b 465 697 417 756 439 726 b 488 683 474 688 481 683 b 531 719 501 683 515 700 b 622 807 551 747 596 786 b 638 829 633 817 638 824 b 622 858 638 839 631 847 b 376 978 607 881 531 978 b 51 492 221 978 51 781 b 407 -17 51 203 225 -17 b 683 143 588 -17 668 117 b 688 158 686 149 688 154 b 649 186 688 172 669 176 z "},"Ç":{"ha":707,"x_min":0,"x_max":0,"o":"m 649 228 l 531 293 b 514 299 524 297 518 299 b 493 282 507 299 503 292 b 396 228 478 267 435 228 b 232 485 356 221 232 288 b 283 692 232 561 254 646 b 382 756 315 738 350 756 b 465 697 417 756 439 726 b 488 683 474 688 481 683 b 531 719 501 683 515 700 b 622 807 551 747 596 786 b 638 829 633 817 638 824 b 622 858 638 839 631 847 b 376 978 607 881 531 978 b 156 843 299 978 217 928 b 51 519 94 758 51 626 b 161 171 51 393 94 261 b 321 42 206 110 261 64 b 301 -22 311 15 304 -6 b 292 -72 296 -44 292 -49 b 335 -83 293 -82 301 -83 b 381 -64 344 -83 360 -64 b 414 -110 407 -64 414 -83 b 357 -146 406 -144 393 -143 b 304 -137 333 -146 322 -143 b 271 -119 286 -128 276 -119 b 267 -125 268 -119 267 -121 b 256 -193 260 -157 256 -178 b 349 -219 256 -208 306 -219 b 436 -206 411 -219 421 -212 b 457 -190 443 -201 450 -197 b 500 -115 472 -178 499 -160 b 414 -18 500 -39 460 -18 b 347 -31 371 -18 365 -21 b 379 26 353 -11 363 4 b 407 25 388 25 397 25 b 683 185 588 25 668 158 b 688 200 686 190 688 196 b 649 228 688 214 669 218 z "},"Ĉ":{"ha":733,"x_min":0,"x_max":0,"o":"m 236 1081 l 199 1057 b 189 1040 192 1053 189 1046 b 222 1018 189 1029 200 1018 b 275 1022 240 1018 257 1019 b 354 1051 314 1033 333 1040 l 418 1081 l 463 1060 b 511 1035 478 1050 493 1042 l 549 1025 b 586 1015 564 1019 576 1015 b 608 1036 597 1015 604 1021 b 561 1083 613 1054 572 1076 b 468 1143 524 1107 506 1117 b 415 1164 444 1156 436 1164 b 400 1163 410 1164 406 1164 b 375 1157 393 1163 385 1161 b 303 1121 360 1153 335 1139 b 236 1081 261 1089 250 1088 z m 649 186 l 531 251 b 514 257 524 256 518 257 b 493 240 507 257 503 250 b 396 186 478 225 435 186 b 232 457 357 186 232 231 b 382 756 232 685 321 756 b 465 697 417 756 439 726 b 488 683 474 688 481 683 b 531 719 501 683 515 700 b 622 807 551 747 596 786 b 638 829 633 817 638 824 b 622 858 638 839 631 847 b 376 978 607 881 531 978 b 51 492 221 978 51 781 b 407 -17 51 203 225 -17 b 683 143 588 -17 668 117 b 688 158 686 149 688 154 b 649 186 688 172 669 176 z "},"Ċ":{"ha":733,"x_min":0,"x_max":0,"o":"m 496 1092 b 399 1167 496 1140 444 1167 b 319 1085 354 1167 319 1125 b 404 1000 319 1033 365 1000 b 496 1092 440 1000 496 1031 z m 649 186 l 531 251 b 514 257 524 256 518 257 b 493 240 507 257 503 250 b 396 186 478 225 435 186 b 232 457 357 186 232 231 b 382 756 232 685 321 756 b 465 697 417 756 439 726 b 488 683 474 688 481 683 b 531 719 501 683 515 700 b 622 807 551 747 596 786 b 638 829 633 817 638 824 b 622 858 638 839 631 847 b 376 978 607 881 531 978 b 51 492 221 978 51 781 b 407 -17 51 203 225 -17 b 683 143 588 -17 668 117 b 688 158 686 149 688 154 b 649 186 688 172 669 176 z "},"D":{"ha":801,"x_min":0,"x_max":0,"o":"m 238 969 l 188 967 b 94 946 154 967 94 974 b 97 710 94 917 97 822 b 86 421 97 599 86 529 b 93 215 86 311 93 243 b 97 83 93 186 97 117 b 96 47 97 72 96 60 b 122 0 96 22 100 0 b 311 3 157 0 257 3 b 753 438 364 3 753 19 b 332 972 753 888 461 972 b 238 969 300 972 267 971 z m 335 297 b 336 369 335 321 335 346 b 339 486 338 410 339 454 b 344 632 339 531 344 583 b 342 679 344 649 343 664 b 407 646 365 672 388 661 b 474 506 440 619 474 576 b 404 347 474 433 439 381 b 335 297 383 326 361 310 z "},"Ǳ":{"ha":1692,"x_min":0,"x_max":0,"o":"m 238 969 l 188 967 b 94 946 154 967 94 974 b 97 710 94 917 97 822 b 86 421 97 599 86 529 b 93 215 86 311 93 243 b 97 83 93 186 97 117 b 96 47 97 72 96 60 b 122 0 96 22 100 0 b 311 3 157 0 257 3 b 753 438 364 3 753 19 b 332 972 753 888 461 972 b 238 969 300 972 267 971 z m 1297 868 l 1325 865 b 1338 864 1329 864 1333 864 l 1313 810 b 1263 719 1297 778 1279 743 b 1114 514 1229 675 1139 557 b 922 250 1088 469 949 285 b 863 167 893 215 863 189 b 856 44 863 143 856 63 b 899 -1 856 22 846 -1 l 1239 -1 b 1415 -4 1276 -1 1353 -4 b 1496 -1 1447 -4 1476 -4 b 1600 8 1556 8 1582 4 b 1619 29 1618 10 1619 11 b 1619 38 1619 32 1619 35 b 1622 139 1619 61 1622 118 b 1596 182 1621 160 1625 182 b 1365 174 1565 182 1419 174 b 1214 171 1311 174 1274 171 b 1114 176 1185 171 1146 172 b 1057 183 1096 178 1076 181 l 1189 364 b 1358 597 1260 457 1332 560 b 1550 872 1410 667 1535 850 b 1563 944 1565 894 1563 933 b 1544 967 1563 954 1565 967 b 1535 965 1542 967 1539 965 b 1396 963 1515 963 1451 963 b 1314 963 1360 963 1328 963 b 1081 968 1283 963 1136 968 b 906 963 1024 968 950 963 b 864 943 885 963 863 969 b 868 889 867 917 868 899 b 883 871 868 879 863 872 b 942 871 892 871 915 871 b 1040 868 982 871 1028 871 b 1065 867 1046 867 1056 867 b 1150 869 1092 867 1128 869 z m 335 297 b 336 369 335 321 335 346 b 339 486 338 410 339 454 b 344 632 339 531 344 583 b 342 679 344 649 343 664 b 407 646 365 672 388 661 b 474 506 440 619 474 576 b 404 347 474 433 439 381 b 335 297 383 326 361 310 z "},"Ǆ":{"ha":1692,"x_min":0,"x_max":0,"o":"m 1388 1099 l 1424 1122 b 1435 1139 1431 1126 1435 1133 b 1401 1161 1435 1150 1424 1161 b 1349 1157 1383 1161 1367 1160 b 1268 1128 1310 1146 1290 1139 b 1206 1099 1258 1122 1238 1113 l 1161 1119 b 1113 1144 1146 1129 1131 1138 l 1075 1154 b 1038 1164 1060 1160 1047 1164 b 1015 1143 1026 1164 1019 1158 b 1063 1096 1011 1125 1051 1103 b 1156 1036 1100 1072 1118 1063 b 1208 1015 1179 1024 1188 1015 b 1224 1017 1214 1015 1218 1015 b 1249 1022 1231 1017 1239 1018 b 1321 1058 1264 1026 1289 1040 b 1388 1099 1363 1090 1374 1092 z m 238 969 l 188 967 b 94 946 154 967 94 974 b 97 710 94 917 97 822 b 86 421 97 599 86 529 b 93 215 86 311 93 243 b 97 83 93 186 97 117 b 96 47 97 72 96 60 b 122 0 96 22 100 0 b 311 3 157 0 257 3 b 753 438 364 3 753 19 b 332 972 753 888 461 972 b 238 969 300 972 267 971 z m 1297 868 l 1325 865 b 1338 864 1329 864 1333 864 l 1313 810 b 1263 719 1297 778 1279 743 b 1114 514 1229 675 1139 557 b 922 250 1088 469 949 285 b 863 167 893 215 863 189 b 856 44 863 143 856 63 b 899 -1 856 22 846 -1 l 1239 -1 b 1415 -4 1276 -1 1353 -4 b 1496 -1 1447 -4 1476 -4 b 1600 8 1556 8 1582 4 b 1619 29 1618 10 1619 11 b 1619 38 1619 32 1619 35 b 1622 139 1619 61 1622 118 b 1596 182 1621 160 1625 182 b 1365 174 1565 182 1419 174 b 1214 171 1311 174 1274 171 b 1114 176 1185 171 1146 172 b 1057 183 1096 178 1076 181 l 1189 364 b 1358 597 1260 457 1332 560 b 1550 872 1410 667 1535 850 b 1563 944 1565 894 1563 933 b 1544 967 1563 954 1565 967 b 1535 965 1542 967 1539 965 b 1396 963 1515 963 1451 963 b 1314 963 1360 963 1328 963 b 1081 968 1283 963 1136 968 b 906 963 1024 968 950 963 b 864 943 885 963 863 969 b 868 889 867 917 868 899 b 883 871 868 879 863 872 b 942 871 892 871 915 871 b 1040 868 982 871 1028 871 b 1065 867 1046 867 1056 867 b 1150 869 1092 867 1128 869 z m 335 297 b 336 369 335 321 335 346 b 339 486 338 410 339 454 b 344 632 339 531 344 583 b 342 679 344 649 343 664 b 407 646 365 672 388 661 b 474 506 440 619 474 576 b 404 347 474 433 439 381 b 335 297 383 326 361 310 z "},"Ð":{"ha":856,"x_min":0,"x_max":0,"o":"m 285 969 l 235 967 b 142 946 201 967 142 974 b 144 710 142 917 144 822 b 138 542 144 644 140 594 l 85 542 b 67 544 78 543 71 544 b 53 536 57 544 53 542 b 58 456 49 528 58 469 b 81 433 58 440 53 433 b 133 431 90 433 111 432 l 133 421 b 140 215 133 311 140 243 b 144 83 140 186 144 117 b 143 47 144 72 143 60 b 169 0 143 22 147 0 b 358 3 204 0 304 3 b 800 438 411 3 800 19 b 379 972 800 888 508 972 b 285 969 347 972 314 971 z m 532 451 l 532 522 b 533 535 532 526 533 531 b 521 546 533 540 531 546 l 388 546 l 390 583 b 392 667 392 600 392 628 b 389 865 392 715 392 782 b 568 788 446 861 506 836 b 708 506 674 682 703 596 b 696 367 708 460 704 413 b 617 218 688 321 661 272 b 382 86 549 160 469 115 b 383 369 382 251 382 346 b 385 438 385 392 385 415 l 413 438 b 500 442 446 438 489 442 b 519 440 507 442 514 440 b 532 451 526 440 532 443 z "},"Ď":{"ha":801,"x_min":0,"x_max":0,"o":"m 515 1099 l 551 1122 b 563 1139 558 1126 563 1133 b 529 1161 563 1150 551 1161 b 476 1157 511 1161 494 1160 b 396 1128 438 1146 418 1139 b 333 1099 386 1122 365 1113 l 289 1119 b 240 1144 274 1129 258 1138 l 203 1154 b 165 1164 188 1160 175 1164 b 143 1143 154 1164 147 1158 b 190 1096 139 1125 179 1103 b 283 1036 228 1072 246 1063 b 336 1015 307 1024 315 1015 b 351 1017 342 1015 346 1015 b 376 1022 358 1017 367 1018 b 449 1058 392 1026 417 1040 b 515 1099 490 1090 501 1092 z m 238 969 l 188 967 b 94 946 154 967 94 974 b 97 710 94 917 97 822 b 86 421 97 599 86 529 b 93 215 86 311 93 243 b 97 83 93 186 97 117 b 96 47 97 72 96 60 b 122 0 96 22 100 0 b 311 3 157 0 257 3 b 753 438 364 3 753 19 b 332 972 753 888 461 972 b 238 969 300 972 267 971 z m 335 297 b 336 369 335 321 335 346 b 339 486 338 410 339 454 b 344 632 339 531 344 583 b 342 679 344 649 343 664 b 407 646 365 672 388 661 b 474 506 440 619 474 576 b 404 347 474 433 439 381 b 335 297 383 326 361 310 z "},"Đ":{"ha":801,"x_min":0,"x_max":0,"o":"m 238 969 l 188 967 b 94 946 154 967 94 974 b 97 710 94 917 97 822 b 90 533 97 642 93 589 l 18 533 b 3 507 6 533 3 525 l 3 469 b 14 451 3 460 3 451 b 85 456 21 456 74 456 l 86 456 l 86 421 b 93 215 86 311 93 243 b 97 83 93 186 97 117 b 96 47 97 72 96 60 b 122 0 96 22 100 0 b 311 3 157 0 257 3 b 753 438 364 3 753 19 b 332 972 753 888 461 972 b 238 969 300 972 267 971 z m 415 469 l 415 511 b 400 535 415 524 415 535 b 390 533 397 535 394 533 l 289 533 b 294 628 292 564 294 597 b 290 678 294 646 293 663 b 407 658 333 676 372 669 b 508 504 481 631 508 575 b 406 325 507 406 476 351 b 279 297 372 313 331 304 b 282 369 279 321 281 346 l 286 456 b 385 451 319 454 364 451 b 415 469 411 451 415 457 z "},"Ḍ":{"ha":801,"x_min":0,"x_max":0,"o":"m 238 969 l 188 967 b 94 946 154 967 94 974 b 97 710 94 917 97 822 b 86 421 97 599 86 529 b 93 215 86 311 93 243 b 97 83 93 186 97 117 b 96 47 97 72 96 60 b 122 0 96 22 100 0 b 311 3 157 0 257 3 b 753 438 364 3 753 19 b 332 972 753 888 461 972 b 238 969 300 972 267 971 z m 335 297 b 336 369 335 321 335 346 b 339 486 338 410 339 454 b 344 632 339 531 344 583 b 342 679 344 649 343 664 b 407 646 365 672 388 661 b 474 506 440 619 474 576 b 404 347 474 433 439 381 b 335 297 383 326 361 310 z m 454 -106 b 357 -31 454 -57 403 -31 b 278 -112 313 -31 278 -72 b 363 -197 278 -164 324 -197 b 454 -106 399 -197 454 -167 z "},"E":{"ha":729,"x_min":0,"x_max":0,"o":"m 88 322 l 88 132 b 90 72 88 103 90 89 b 92 21 90 56 90 36 b 103 -3 92 8 90 -3 b 111 -1 106 -3 108 -1 b 331 4 129 -1 264 4 b 575 1 396 4 529 1 b 642 32 619 1 642 -7 b 643 129 642 72 643 101 b 644 157 643 138 644 149 b 617 186 644 174 640 186 b 558 185 604 186 583 185 b 383 188 503 185 429 188 b 219 186 321 188 251 186 b 181 185 204 186 190 185 b 165 183 175 183 169 183 l 165 322 b 174 321 167 321 169 321 b 192 319 176 319 182 319 b 356 331 207 319 267 331 b 494 328 443 331 472 328 b 519 324 504 328 514 324 b 532 346 528 324 532 328 b 531 419 532 381 531 393 b 533 463 531 446 533 453 b 515 479 533 472 531 479 b 447 483 500 479 481 483 b 300 478 414 483 351 478 b 203 479 261 478 226 478 b 165 481 189 479 176 479 b 164 525 164 496 164 510 l 164 607 b 168 740 164 656 168 718 b 182 768 168 761 167 768 b 256 767 190 768 222 767 b 329 769 282 767 308 768 b 367 771 342 771 354 771 b 472 768 401 771 438 768 b 593 764 531 768 572 768 b 624 757 601 763 614 757 b 643 778 633 757 642 761 b 647 829 647 801 647 817 b 642 935 647 872 642 906 b 613 974 642 961 639 974 b 458 979 586 974 515 979 b 250 967 404 979 310 967 b 142 971 188 967 163 971 b 121 972 135 971 128 972 b 94 942 106 972 94 968 b 90 738 93 903 90 821 b 97 538 90 654 97 644 b 88 322 97 431 88 406 z "},"É":{"ha":700,"x_min":0,"x_max":0,"o":"m 407 1147 l 376 1136 b 292 1104 319 1111 311 1115 b 222 1069 278 1100 225 1079 b 219 1056 221 1064 219 1060 b 247 1025 219 1039 235 1029 b 276 1015 258 1018 267 1015 b 321 1028 289 1015 301 1021 b 439 1074 368 1050 392 1058 b 507 1121 454 1078 500 1097 b 483 1160 513 1151 503 1160 b 456 1157 476 1160 467 1158 b 407 1147 444 1157 424 1153 z m 88 322 l 88 132 b 90 72 88 103 90 89 b 92 21 90 56 90 36 b 103 -3 92 8 90 -3 b 111 -1 106 -3 108 -1 b 331 4 129 -1 264 4 b 575 1 396 4 529 1 b 642 32 619 1 642 -7 b 643 129 642 72 643 101 b 644 157 643 138 644 149 b 617 186 644 174 640 186 b 558 185 604 186 583 185 b 383 188 503 185 429 188 b 219 186 321 188 251 186 b 181 185 204 186 190 185 b 165 183 175 183 169 183 l 165 322 b 174 321 167 321 169 321 b 192 319 176 319 182 319 b 356 331 207 319 267 331 b 494 328 443 331 472 328 b 519 324 504 328 514 324 b 532 346 528 324 532 328 b 531 419 532 381 531 393 b 533 463 531 446 533 453 b 515 479 533 472 531 479 b 447 483 500 479 481 483 b 300 478 414 483 351 478 b 203 479 261 478 226 478 b 165 481 189 479 176 479 b 164 525 164 496 164 510 l 164 607 b 168 740 164 656 168 718 b 182 768 168 761 167 768 b 256 767 190 768 222 767 b 329 769 282 767 308 768 b 367 771 342 771 354 771 b 472 768 401 771 438 768 b 593 764 531 768 572 768 b 624 757 601 763 614 757 b 643 778 633 757 642 761 b 647 829 647 801 647 817 b 642 935 647 872 642 906 b 613 974 642 961 639 974 b 458 979 586 974 515 979 b 250 967 404 979 310 967 b 142 971 188 967 163 971 b 121 972 135 971 128 972 b 94 942 106 972 94 968 b 90 738 93 903 90 821 b 97 538 90 654 97 644 b 88 322 97 431 88 406 z "},"Ĕ":{"ha":729,"x_min":0,"x_max":0,"o":"m 569 1156 b 524 1164 569 1160 554 1163 b 486 1154 501 1163 489 1158 b 435 1113 485 1136 468 1122 b 350 1100 403 1104 374 1100 b 258 1114 300 1103 269 1107 b 236 1151 249 1121 240 1133 b 196 1165 236 1164 236 1165 b 156 1161 157 1165 156 1165 b 176 1083 157 1138 164 1113 b 214 1046 183 1068 196 1056 b 353 1025 232 1036 279 1029 b 486 1043 418 1025 463 1031 b 540 1076 510 1056 528 1067 b 569 1156 568 1097 569 1144 z m 88 322 l 88 132 b 90 72 88 103 90 89 b 92 21 90 56 90 36 b 103 -3 92 8 90 -3 b 111 -1 106 -3 108 -1 b 331 4 129 -1 264 4 b 575 1 396 4 529 1 b 642 32 619 1 642 -7 b 643 129 642 72 643 101 b 644 157 643 138 644 149 b 617 186 644 174 640 186 b 558 185 604 186 583 185 b 383 188 503 185 429 188 b 219 186 321 188 251 186 b 181 185 204 186 190 185 b 165 183 175 183 169 183 l 165 322 b 174 321 167 321 169 321 b 192 319 176 319 182 319 b 356 331 207 319 267 331 b 494 328 443 331 472 328 b 519 324 504 328 514 324 b 532 346 528 324 532 328 b 531 419 532 381 531 393 b 533 463 531 446 533 453 b 515 479 533 472 531 479 b 447 483 500 479 481 483 b 300 478 414 483 351 478 b 203 479 261 478 226 478 b 165 481 189 479 176 479 b 164 525 164 496 164 510 l 164 607 b 168 740 164 656 168 718 b 182 768 168 761 167 768 b 256 767 190 768 222 767 b 329 769 282 767 308 768 b 367 771 342 771 354 771 b 472 768 401 771 438 768 b 593 764 531 768 572 768 b 624 757 601 763 614 757 b 643 778 633 757 642 761 b 647 829 647 801 647 817 b 642 935 647 872 642 906 b 613 974 642 961 639 974 b 458 979 586 974 515 979 b 250 967 404 979 310 967 b 142 971 188 967 163 971 b 121 972 135 971 128 972 b 94 942 106 972 94 968 b 90 738 93 903 90 821 b 97 538 90 654 97 644 b 88 322 97 431 88 406 z "},"Ě":{"ha":729,"x_min":0,"x_max":0,"o":"m 547 1099 l 583 1122 b 594 1139 590 1126 594 1133 b 561 1161 594 1150 583 1161 b 508 1157 543 1161 526 1160 b 428 1128 469 1146 450 1139 b 365 1099 418 1122 397 1113 l 321 1119 b 272 1144 306 1129 290 1138 l 235 1154 b 197 1164 219 1160 207 1164 b 175 1143 186 1164 179 1158 b 222 1096 171 1125 211 1103 b 315 1036 260 1072 278 1063 b 368 1015 339 1024 347 1015 b 383 1017 374 1015 378 1015 b 408 1022 390 1017 399 1018 b 481 1058 424 1026 449 1040 b 547 1099 522 1090 533 1092 z m 88 322 l 88 132 b 90 72 88 103 90 89 b 92 21 90 56 90 36 b 103 -3 92 8 90 -3 b 111 -1 106 -3 108 -1 b 331 4 129 -1 264 4 b 575 1 396 4 529 1 b 642 32 619 1 642 -7 b 643 129 642 72 643 101 b 644 157 643 138 644 149 b 617 186 644 174 640 186 b 558 185 604 186 583 185 b 383 188 503 185 429 188 b 219 186 321 188 251 186 b 181 185 204 186 190 185 b 165 183 175 183 169 183 l 165 322 b 174 321 167 321 169 321 b 192 319 176 319 182 319 b 356 331 207 319 267 331 b 494 328 443 331 472 328 b 519 324 504 328 514 324 b 532 346 528 324 532 328 b 531 419 532 381 531 393 b 533 463 531 446 533 453 b 515 479 533 472 531 479 b 447 483 500 479 481 483 b 300 478 414 483 351 478 b 203 479 261 478 226 478 b 165 481 189 479 176 479 b 164 525 164 496 164 510 l 164 607 b 168 740 164 656 168 718 b 182 768 168 761 167 768 b 256 767 190 768 222 767 b 329 769 282 767 308 768 b 367 771 342 771 354 771 b 472 768 401 771 438 768 b 593 764 531 768 572 768 b 624 757 601 763 614 757 b 643 778 633 757 642 761 b 647 829 647 801 647 817 b 642 935 647 872 642 906 b 613 974 642 961 639 974 b 458 979 586 974 515 979 b 250 967 404 979 310 967 b 142 971 188 967 163 971 b 121 972 135 971 128 972 b 94 942 106 972 94 968 b 90 738 93 903 90 821 b 97 538 90 654 97 644 b 88 322 97 431 88 406 z "},"Ê":{"ha":700,"x_min":0,"x_max":0,"o":"m 208 1081 l 171 1057 b 161 1040 164 1053 161 1046 b 194 1018 161 1029 172 1018 b 247 1022 213 1018 229 1019 b 326 1051 286 1033 306 1040 l 390 1081 l 435 1060 b 483 1035 450 1050 465 1042 l 521 1025 b 558 1015 536 1019 549 1015 b 581 1036 569 1015 576 1021 b 533 1083 585 1054 544 1076 b 440 1143 496 1107 478 1117 b 388 1164 417 1156 408 1164 b 372 1163 382 1164 378 1164 b 347 1157 365 1163 357 1161 b 275 1121 332 1153 307 1139 b 208 1081 233 1089 222 1088 z m 88 322 l 88 132 b 90 72 88 103 90 89 b 92 21 90 56 90 36 b 103 -3 92 8 90 -3 b 111 -1 106 -3 108 -1 b 331 4 129 -1 264 4 b 575 1 396 4 529 1 b 642 32 619 1 642 -7 b 643 129 642 72 643 101 b 644 157 643 138 644 149 b 617 186 644 174 640 186 b 558 185 604 186 583 185 b 383 188 503 185 429 188 b 219 186 321 188 251 186 b 181 185 204 186 190 185 b 165 183 175 183 169 183 l 165 322 b 174 321 167 321 169 321 b 192 319 176 319 182 319 b 356 331 207 319 267 331 b 494 328 443 331 472 328 b 519 324 504 328 514 324 b 532 346 528 324 532 328 b 531 419 532 381 531 393 b 533 463 531 446 533 453 b 515 479 533 472 531 479 b 447 483 500 479 481 483 b 300 478 414 483 351 478 b 203 479 261 478 226 478 b 165 481 189 479 176 479 b 164 525 164 496 164 510 l 164 607 b 168 740 164 656 168 718 b 182 768 168 761 167 768 b 256 767 190 768 222 767 b 329 769 282 767 308 768 b 367 771 342 771 354 771 b 472 768 401 771 438 768 b 593 764 531 768 572 768 b 624 757 601 763 614 757 b 643 778 633 757 642 761 b 647 829 647 801 647 817 b 642 935 647 872 642 906 b 613 974 642 961 639 974 b 458 979 586 974 515 979 b 250 967 404 979 310 967 b 142 971 188 967 163 971 b 121 972 135 971 128 972 b 94 942 106 972 94 968 b 90 738 93 903 90 821 b 97 538 90 654 97 644 b 88 322 97 431 88 406 z "},"Ë":{"ha":700,"x_min":0,"x_max":0,"o":"m 450 1081 b 525 1006 450 1047 465 1006 b 613 1081 585 1006 613 1043 b 553 1167 613 1124 590 1167 b 450 1081 515 1167 450 1157 z m 299 1086 b 207 1157 299 1135 250 1157 b 132 1081 164 1157 132 1118 b 213 1000 132 1031 175 1000 b 299 1086 246 1000 299 1031 z m 88 322 l 88 132 b 90 72 88 103 90 89 b 92 21 90 56 90 36 b 103 -3 92 8 90 -3 b 111 -1 106 -3 108 -1 b 331 4 129 -1 264 4 b 575 1 396 4 529 1 b 642 32 619 1 642 -7 b 643 129 642 72 643 101 b 644 157 643 138 644 149 b 617 186 644 174 640 186 b 558 185 604 186 583 185 b 383 188 503 185 429 188 b 219 186 321 188 251 186 b 181 185 204 186 190 185 b 165 183 175 183 169 183 l 165 322 b 174 321 167 321 169 321 b 192 319 176 319 182 319 b 356 331 207 319 267 331 b 494 328 443 331 472 328 b 519 324 504 328 514 324 b 532 346 528 324 532 328 b 531 419 532 381 531 393 b 533 463 531 446 533 453 b 515 479 533 472 531 479 b 447 483 500 479 481 483 b 300 478 414 483 351 478 b 203 479 261 478 226 478 b 165 481 189 479 176 479 b 164 525 164 496 164 510 l 164 607 b 168 740 164 656 168 718 b 182 768 168 761 167 768 b 256 767 190 768 222 767 b 329 769 282 767 308 768 b 367 771 342 771 354 771 b 472 768 401 771 438 768 b 593 764 531 768 572 768 b 624 757 601 763 614 757 b 643 778 633 757 642 761 b 647 829 647 801 647 817 b 642 935 647 872 642 906 b 613 974 642 961 639 974 b 458 979 586 974 515 979 b 250 967 404 979 310 967 b 142 971 188 967 163 971 b 121 972 135 971 128 972 b 94 942 106 972 94 968 b 90 738 93 903 90 821 b 97 538 90 654 97 644 b 88 322 97 431 88 406 z "},"Ė":{"ha":729,"x_min":0,"x_max":0,"o":"m 461 1092 b 364 1167 461 1140 410 1167 b 285 1085 319 1167 285 1125 b 369 1000 285 1033 331 1000 b 461 1092 406 1000 461 1031 z m 88 322 l 88 132 b 90 72 88 103 90 89 b 92 21 90 56 90 36 b 103 -3 92 8 90 -3 b 111 -1 106 -3 108 -1 b 331 4 129 -1 264 4 b 575 1 396 4 529 1 b 642 32 619 1 642 -7 b 643 129 642 72 643 101 b 644 157 643 138 644 149 b 617 186 644 174 640 186 b 558 185 604 186 583 185 b 383 188 503 185 429 188 b 219 186 321 188 251 186 b 181 185 204 186 190 185 b 165 183 175 183 169 183 l 165 322 b 174 321 167 321 169 321 b 192 319 176 319 182 319 b 356 331 207 319 267 331 b 494 328 443 331 472 328 b 519 324 504 328 514 324 b 532 346 528 324 532 328 b 531 419 532 381 531 393 b 533 463 531 446 533 453 b 515 479 533 472 531 479 b 447 483 500 479 481 483 b 300 478 414 483 351 478 b 203 479 261 478 226 478 b 165 481 189 479 176 479 b 164 525 164 496 164 510 l 164 607 b 168 740 164 656 168 718 b 182 768 168 761 167 768 b 256 767 190 768 222 767 b 329 769 282 767 308 768 b 367 771 342 771 354 771 b 472 768 401 771 438 768 b 593 764 531 768 572 768 b 624 757 601 763 614 757 b 643 778 633 757 642 761 b 647 829 647 801 647 817 b 642 935 647 872 642 906 b 613 974 642 961 639 974 b 458 979 586 974 515 979 b 250 967 404 979 310 967 b 142 971 188 967 163 971 b 121 972 135 971 128 972 b 94 942 106 972 94 968 b 90 738 93 903 90 821 b 97 538 90 654 97 644 b 88 322 97 431 88 406 z "},"Ẹ":{"ha":729,"x_min":0,"x_max":0,"o":"m 88 322 l 88 132 b 90 72 88 103 90 89 b 92 21 90 56 90 36 b 103 -3 92 8 90 -3 b 111 -1 106 -3 108 -1 b 331 4 129 -1 264 4 b 575 1 396 4 529 1 b 642 32 619 1 642 -7 b 643 129 642 72 643 101 b 644 157 643 138 644 149 b 617 186 644 174 640 186 b 558 185 604 186 583 185 b 383 188 503 185 429 188 b 219 186 321 188 251 186 b 181 185 204 186 190 185 b 165 183 175 183 169 183 l 165 322 b 174 321 167 321 169 321 b 192 319 176 319 182 319 b 356 331 207 319 267 331 b 494 328 443 331 472 328 b 519 324 504 328 514 324 b 532 346 528 324 532 328 b 531 419 532 381 531 393 b 533 463 531 446 533 453 b 515 479 533 472 531 479 b 447 483 500 479 481 483 b 300 478 414 483 351 478 b 203 479 261 478 226 478 b 165 481 189 479 176 479 b 164 525 164 496 164 510 l 164 607 b 168 740 164 656 168 718 b 182 768 168 761 167 768 b 256 767 190 768 222 767 b 329 769 282 767 308 768 b 367 771 342 771 354 771 b 472 768 401 771 438 768 b 593 764 531 768 572 768 b 624 757 601 763 614 757 b 643 778 633 757 642 761 b 647 829 647 801 647 817 b 642 935 647 872 642 906 b 613 974 642 961 639 974 b 458 979 586 974 515 979 b 250 967 404 979 310 967 b 142 971 188 967 163 971 b 121 972 135 971 128 972 b 94 942 106 972 94 968 b 90 738 93 903 90 821 b 97 538 90 654 97 644 b 88 322 97 431 88 406 z m 447 -106 b 350 -31 447 -57 396 -31 b 271 -112 306 -31 271 -72 b 356 -197 271 -164 317 -197 b 447 -106 392 -197 447 -167 z "},"È":{"ha":700,"x_min":0,"x_max":0,"o":"m 371 1054 l 401 1043 b 450 1038 419 1039 439 1036 b 503 1057 482 1033 503 1032 b 500 1075 503 1063 501 1068 b 431 1121 493 1101 446 1114 b 311 1161 382 1132 360 1140 b 268 1172 293 1167 281 1172 b 238 1161 258 1172 250 1168 b 211 1131 225 1156 211 1147 b 215 1115 211 1126 213 1121 b 285 1083 219 1104 269 1088 b 371 1054 303 1072 315 1079 z m 88 322 l 88 132 b 90 72 88 103 90 89 b 92 21 90 56 90 36 b 103 -3 92 8 90 -3 b 111 -1 106 -3 108 -1 b 331 4 129 -1 264 4 b 575 1 396 4 529 1 b 642 32 619 1 642 -7 b 643 129 642 72 643 101 b 644 157 643 138 644 149 b 617 186 644 174 640 186 b 558 185 604 186 583 185 b 383 188 503 185 429 188 b 219 186 321 188 251 186 b 181 185 204 186 190 185 b 165 183 175 183 169 183 l 165 322 b 174 321 167 321 169 321 b 192 319 176 319 182 319 b 356 331 207 319 267 331 b 494 328 443 331 472 328 b 519 324 504 328 514 324 b 532 346 528 324 532 328 b 531 419 532 381 531 393 b 533 463 531 446 533 453 b 515 479 533 472 531 479 b 447 483 500 479 481 483 b 300 478 414 483 351 478 b 203 479 261 478 226 478 b 165 481 189 479 176 479 b 164 525 164 496 164 510 l 164 607 b 168 740 164 656 168 718 b 182 768 168 761 167 768 b 256 767 190 768 222 767 b 329 769 282 767 308 768 b 367 771 342 771 354 771 b 472 768 401 771 438 768 b 593 764 531 768 572 768 b 624 757 601 763 614 757 b 643 778 633 757 642 761 b 647 829 647 801 647 817 b 642 935 647 872 642 906 b 613 974 642 961 639 974 b 458 979 586 974 515 979 b 250 967 404 979 310 967 b 142 971 188 967 163 971 b 121 972 135 971 128 972 b 94 942 106 972 94 968 b 90 738 93 903 90 821 b 97 538 90 654 97 644 b 88 322 97 431 88 406 z "},"Ē":{"ha":729,"x_min":0,"x_max":0,"o":"m 554 1154 l 182 1154 b 167 1128 169 1154 167 1146 l 167 1090 b 178 1072 167 1081 167 1072 b 249 1076 185 1076 238 1076 l 432 1076 b 549 1072 465 1076 524 1072 b 579 1090 575 1072 579 1078 l 579 1132 b 564 1156 579 1144 579 1156 b 554 1154 561 1156 558 1154 z m 88 322 l 88 132 b 90 72 88 103 90 89 b 92 21 90 56 90 36 b 103 -3 92 8 90 -3 b 111 -1 106 -3 108 -1 b 331 4 129 -1 264 4 b 575 1 396 4 529 1 b 642 32 619 1 642 -7 b 643 129 642 72 643 101 b 644 157 643 138 644 149 b 617 186 644 174 640 186 b 558 185 604 186 583 185 b 383 188 503 185 429 188 b 219 186 321 188 251 186 b 181 185 204 186 190 185 b 165 183 175 183 169 183 l 165 322 b 174 321 167 321 169 321 b 192 319 176 319 182 319 b 356 331 207 319 267 331 b 494 328 443 331 472 328 b 519 324 504 328 514 324 b 532 346 528 324 532 328 b 531 419 532 381 531 393 b 533 463 531 446 533 453 b 515 479 533 472 531 479 b 447 483 500 479 481 483 b 300 478 414 483 351 478 b 203 479 261 478 226 478 b 165 481 189 479 176 479 b 164 525 164 496 164 510 l 164 607 b 168 740 164 656 168 718 b 182 768 168 761 167 768 b 256 767 190 768 222 767 b 329 769 282 767 308 768 b 367 771 342 771 354 771 b 472 768 401 771 438 768 b 593 764 531 768 572 768 b 624 757 601 763 614 757 b 643 778 633 757 642 761 b 647 829 647 801 647 817 b 642 935 647 872 642 906 b 613 974 642 961 639 974 b 458 979 586 974 515 979 b 250 967 404 979 310 967 b 142 971 188 967 163 971 b 121 972 135 971 128 972 b 94 942 106 972 94 968 b 90 738 93 903 90 821 b 97 538 90 654 97 644 b 88 322 97 431 88 406 z "},"Ę":{"ha":729,"x_min":0,"x_max":0,"o":"m 165 183 l 165 322 b 174 321 167 321 169 321 b 192 319 176 319 182 319 b 356 331 207 319 267 331 b 494 328 443 331 472 328 b 519 324 504 328 514 324 b 532 346 528 324 532 328 b 531 419 532 381 531 393 b 533 463 531 446 533 453 b 515 479 533 472 531 479 b 447 483 500 479 481 483 b 300 478 414 483 351 478 b 203 479 261 478 226 478 b 165 481 189 479 176 479 b 164 525 164 496 164 510 l 164 607 b 168 740 164 656 168 718 b 182 768 168 761 167 768 b 256 767 190 768 222 767 b 329 769 282 767 308 768 b 367 771 342 771 354 771 b 472 768 401 771 438 768 b 593 764 531 768 572 768 b 624 757 601 763 614 757 b 643 778 633 757 642 761 b 647 829 647 801 647 817 b 642 935 647 872 642 906 b 613 974 642 961 639 974 b 458 979 586 974 515 979 b 250 967 404 979 310 967 b 142 971 188 967 163 971 b 121 972 135 971 128 972 b 94 942 106 972 94 968 b 90 738 93 903 90 821 b 97 538 90 654 97 644 b 88 322 97 431 88 406 l 88 132 b 90 72 88 103 90 89 b 92 21 90 56 90 36 b 103 -3 92 8 90 -3 b 111 -1 106 -3 108 -1 b 274 3 125 -1 207 1 l 267 -11 b 247 -62 263 -21 256 -37 b 235 -126 239 -87 235 -108 b 349 -237 239 -219 281 -239 b 499 -137 399 -235 499 -175 b 471 -103 499 -124 482 -103 b 361 -135 458 -103 446 -140 b 333 -78 342 -133 333 -112 b 335 -53 333 -69 333 -61 b 342 4 338 -26 342 -10 b 575 1 410 4 532 1 b 642 32 619 1 642 -7 b 643 129 642 72 643 101 b 644 157 643 138 644 149 b 617 186 644 174 640 186 b 558 185 604 186 583 185 b 383 188 503 185 429 188 b 219 186 321 188 251 186 b 181 185 204 186 190 185 b 165 183 175 183 169 183 z "},"Ẽ":{"ha":729,"x_min":0,"x_max":0,"o":"m 618 1093 l 618 1114 b 578 1149 615 1125 631 1146 b 489 1154 551 1153 522 1154 b 324 1143 417 1154 363 1150 b 224 1131 285 1136 263 1131 b 144 1150 181 1139 156 1150 b 135 1143 139 1150 136 1149 b 132 1111 132 1133 132 1121 b 132 1093 132 1104 132 1097 b 224 1061 132 1081 139 1061 b 349 1072 278 1061 300 1068 b 494 1088 397 1076 429 1086 b 586 1071 528 1088 560 1071 b 618 1093 607 1071 618 1078 z m 88 322 l 88 132 b 90 72 88 103 90 89 b 92 21 90 56 90 36 b 103 -3 92 8 90 -3 b 111 -1 106 -3 108 -1 b 331 4 129 -1 264 4 b 575 1 396 4 529 1 b 642 32 619 1 642 -7 b 643 129 642 72 643 101 b 644 157 643 138 644 149 b 617 186 644 174 640 186 b 558 185 604 186 583 185 b 383 188 503 185 429 188 b 219 186 321 188 251 186 b 181 185 204 186 190 185 b 165 183 175 183 169 183 l 165 322 b 174 321 167 321 169 321 b 192 319 176 319 182 319 b 356 331 207 319 267 331 b 494 328 443 331 472 328 b 519 324 504 328 514 324 b 532 346 528 324 532 328 b 531 419 532 381 531 393 b 533 463 531 446 533 453 b 515 479 533 472 531 479 b 447 483 500 479 481 483 b 300 478 414 483 351 478 b 203 479 261 478 226 478 b 165 481 189 479 176 479 b 164 525 164 496 164 510 l 164 607 b 168 740 164 656 168 718 b 182 768 168 761 167 768 b 256 767 190 768 222 767 b 329 769 282 767 308 768 b 367 771 342 771 354 771 b 472 768 401 771 438 768 b 593 764 531 768 572 768 b 624 757 601 763 614 757 b 643 778 633 757 642 761 b 647 829 647 801 647 817 b 642 935 647 872 642 906 b 613 974 642 961 639 974 b 458 979 586 974 515 979 b 250 967 404 979 310 967 b 142 971 188 967 163 971 b 121 972 135 971 128 972 b 94 942 106 972 94 968 b 90 738 93 903 90 821 b 97 538 90 654 97 644 b 88 322 97 431 88 406 z "},"F":{"ha":661,"x_min":0,"x_max":0,"o":"m 329 475 l 458 475 b 556 472 490 475 532 472 b 588 492 582 472 588 476 b 589 538 588 507 589 522 b 551 561 589 553 583 561 b 442 558 519 561 474 558 b 375 557 425 558 399 557 b 332 556 361 556 347 556 l 332 589 b 333 660 332 610 333 633 b 335 783 333 710 335 751 b 338 832 335 799 336 817 l 342 857 l 410 861 b 513 867 447 865 489 867 b 633 864 561 867 617 864 b 658 881 650 864 658 863 l 658 950 b 626 971 658 964 647 971 l 510 972 b 353 964 481 972 382 964 b 158 958 325 964 192 958 b 119 961 143 958 131 961 b 94 919 104 961 94 954 b 97 728 96 863 97 793 b 93 539 97 663 93 600 b 94 381 93 478 94 440 b 86 235 94 321 86 294 b 89 107 86 175 89 128 l 90 33 b 113 6 90 17 86 7 b 214 7 128 6 174 7 b 265 6 233 7 253 7 b 297 3 278 4 289 3 b 329 35 318 3 329 10 l 328 199 b 332 335 328 247 332 286 b 331 422 332 358 331 393 b 329 475 329 439 329 457 z "},"G":{"ha":822,"x_min":0,"x_max":0,"o":"m 475 408 l 503 403 b 493 333 503 376 500 354 b 415 264 482 299 460 264 b 328 475 322 264 328 397 b 417 675 328 556 356 675 b 475 628 451 675 465 640 b 496 603 483 618 485 603 b 507 606 500 603 503 604 b 518 610 511 606 514 607 b 544 628 525 614 533 618 b 621 678 568 643 594 663 b 721 729 649 690 699 718 b 746 747 739 739 746 739 b 744 754 746 749 746 751 b 724 810 739 767 731 794 b 432 999 717 824 639 999 b 57 469 332 999 57 951 b 439 -19 57 51 351 -19 b 774 432 557 -19 751 58 b 772 456 775 440 774 449 b 740 481 768 468 761 479 b 560 504 697 482 619 497 b 446 518 504 510 458 517 b 411 489 431 519 421 522 b 400 435 404 461 400 447 b 426 415 400 426 403 418 b 475 408 442 414 458 411 z "},"Ğ":{"ha":822,"x_min":0,"x_max":0,"o":"m 640 1156 b 594 1164 640 1160 625 1163 b 557 1154 572 1163 560 1158 b 506 1113 556 1136 539 1122 b 421 1100 474 1104 444 1100 b 329 1114 371 1103 340 1107 b 307 1151 319 1121 311 1133 b 267 1165 307 1164 307 1165 b 226 1161 228 1165 226 1165 b 247 1083 228 1138 235 1113 b 285 1046 254 1068 267 1056 b 424 1025 303 1036 350 1029 b 557 1043 489 1025 533 1031 b 611 1076 581 1056 599 1067 b 640 1156 639 1097 640 1144 z m 475 408 l 503 403 b 493 333 503 376 500 354 b 415 264 482 299 460 264 b 328 475 322 264 328 397 b 417 675 328 556 356 675 b 475 628 451 675 465 640 b 496 603 483 618 485 603 b 507 606 500 603 503 604 b 518 610 511 606 514 607 b 544 628 525 614 533 618 b 621 678 568 643 594 663 b 721 729 649 690 699 718 b 746 747 739 739 746 739 b 744 754 746 749 746 751 b 724 810 739 767 731 794 b 432 999 717 824 639 999 b 57 469 332 999 57 951 b 439 -19 57 51 351 -19 b 774 432 557 -19 751 58 b 772 456 775 440 774 449 b 740 481 768 468 761 479 b 560 504 697 482 619 497 b 446 518 504 510 458 517 b 411 489 431 519 421 522 b 400 435 404 461 400 447 b 426 415 400 426 403 418 b 475 408 442 414 458 411 z "},"Ĝ":{"ha":822,"x_min":0,"x_max":0,"o":"m 267 1081 l 229 1057 b 219 1040 222 1053 219 1046 b 253 1018 219 1029 231 1018 b 306 1022 271 1018 288 1019 b 385 1051 344 1033 364 1040 l 449 1081 l 493 1060 b 542 1035 508 1050 524 1042 l 579 1025 b 617 1015 594 1019 607 1015 b 639 1036 628 1015 635 1021 b 592 1083 643 1054 603 1076 b 499 1143 554 1107 536 1117 b 446 1164 475 1156 467 1164 b 431 1163 440 1164 436 1164 b 406 1157 424 1163 415 1161 b 333 1121 390 1153 365 1139 b 267 1081 292 1089 281 1088 z m 475 408 l 503 403 b 493 333 503 376 500 354 b 415 264 482 299 460 264 b 328 475 322 264 328 397 b 417 675 328 556 356 675 b 475 628 451 675 465 640 b 496 603 483 618 485 603 b 507 606 500 603 503 604 b 518 610 511 606 514 607 b 544 628 525 614 533 618 b 621 678 568 643 594 663 b 721 729 649 690 699 718 b 746 747 739 739 746 739 b 744 754 746 749 746 751 b 724 810 739 767 731 794 b 432 999 717 824 639 999 b 57 469 332 999 57 951 b 439 -19 57 51 351 -19 b 774 432 557 -19 751 58 b 772 456 775 440 774 449 b 740 481 768 468 761 479 b 560 504 697 482 619 497 b 446 518 504 510 458 517 b 411 489 431 519 421 522 b 400 435 404 461 400 447 b 426 415 400 426 403 418 b 475 408 442 414 458 411 z "},"Ģ":{"ha":822,"x_min":0,"x_max":0,"o":"m 475 408 l 503 403 b 493 333 503 376 500 354 b 415 264 482 299 460 264 b 328 475 322 264 328 397 b 417 675 328 556 356 675 b 475 628 451 675 465 640 b 496 603 483 618 485 603 b 507 606 500 603 503 604 b 518 610 511 606 514 607 b 544 628 525 614 533 618 b 621 678 568 643 594 663 b 721 729 649 690 699 718 b 746 747 739 739 746 739 b 744 754 746 749 746 751 b 724 810 739 767 731 794 b 432 999 717 824 639 999 b 57 469 332 999 57 951 b 439 -19 57 51 351 -19 b 774 432 557 -19 751 58 b 772 456 775 440 774 449 b 740 481 768 468 761 479 b 560 504 697 482 619 497 b 446 518 504 510 458 517 b 411 489 431 519 421 522 b 400 435 404 461 400 447 b 426 415 400 426 403 418 b 475 408 442 414 458 411 z m 486 -57 l 408 -57 b 388 -71 399 -57 389 -61 l 378 -99 l 367 -143 l 324 -279 b 332 -293 324 -286 321 -293 b 376 -294 339 -294 354 -294 b 418 -293 400 -294 414 -294 b 429 -275 424 -289 428 -279 b 436 -244 429 -271 432 -260 b 456 -186 439 -237 446 -218 l 472 -133 b 486 -92 478 -115 485 -101 b 493 -68 490 -85 492 -79 b 486 -57 499 -58 493 -57 z "},"Ġ":{"ha":822,"x_min":0,"x_max":0,"o":"m 521 1092 b 424 1167 521 1140 469 1167 b 344 1085 379 1167 344 1125 b 429 1000 344 1033 390 1000 b 521 1092 465 1000 521 1031 z m 475 408 l 503 403 b 493 333 503 376 500 354 b 415 264 482 299 460 264 b 328 475 322 264 328 397 b 417 675 328 556 356 675 b 475 628 451 675 465 640 b 496 603 483 618 485 603 b 507 606 500 603 503 604 b 518 610 511 606 514 607 b 544 628 525 614 533 618 b 621 678 568 643 594 663 b 721 729 649 690 699 718 b 746 747 739 739 746 739 b 744 754 746 749 746 751 b 724 810 739 767 731 794 b 644 907 719 817 701 864 b 432 957 589 950 536 957 b 201 878 381 957 289 943 b 78 676 146 838 106 792 b 57 469 64 619 57 550 b 439 -19 57 51 351 -19 b 774 432 557 -19 751 58 b 772 456 775 440 774 449 b 740 481 768 468 761 479 b 560 504 697 482 619 497 b 446 518 504 510 458 517 b 411 489 431 519 421 522 b 400 435 404 461 400 447 b 426 415 400 426 403 418 b 475 408 442 414 458 411 z "},"H":{"ha":947,"x_min":0,"x_max":0,"o":"m 360 544 l 276 547 l 281 629 l 286 767 b 292 932 290 843 292 915 b 271 974 292 949 297 974 b 204 976 251 974 228 976 b 181 975 196 976 188 976 b 149 972 168 974 158 972 b 118 974 138 972 128 974 b 92 931 104 974 92 972 b 89 571 92 896 89 660 b 92 90 89 486 92 147 b 124 3 92 31 85 -1 b 235 7 163 7 208 8 b 283 35 256 7 283 1 b 281 56 283 40 282 47 b 274 200 275 83 274 142 b 275 350 274 258 275 318 b 278 435 275 382 276 413 b 279 471 279 447 279 460 b 361 469 308 469 335 469 l 492 469 b 653 471 524 469 593 469 l 765 474 l 765 371 b 765 222 765 315 764 251 b 764 19 765 147 764 -18 b 775 6 764 13 765 6 b 825 8 790 6 818 7 b 839 18 831 10 839 7 b 838 26 839 19 839 22 b 835 67 836 36 835 50 b 836 122 835 86 836 108 b 844 417 836 147 844 354 b 854 838 844 478 849 775 b 867 957 860 900 865 942 b 869 968 868 961 869 965 b 856 982 869 975 865 979 b 832 985 849 985 839 985 b 811 986 824 985 817 985 b 796 988 807 986 801 988 b 781 975 789 988 782 986 b 772 661 781 957 772 708 b 774 585 772 638 774 608 l 774 543 b 669 542 738 542 703 542 b 504 540 613 540 544 540 b 360 544 464 540 408 543 z "},"Ħ":{"ha":947,"x_min":0,"x_max":0,"o":"m 876 801 l 851 801 l 854 838 b 867 957 860 900 865 942 b 869 968 868 961 869 965 b 856 982 869 975 865 979 b 831 985 847 985 839 985 b 811 986 824 985 815 985 b 796 988 807 986 801 988 b 781 975 789 988 782 986 l 775 801 l 288 801 b 292 932 290 864 292 918 b 271 974 292 949 297 974 b 204 976 251 974 228 976 b 181 975 196 976 188 976 b 150 972 168 974 158 972 b 121 974 139 972 129 974 b 92 925 106 974 90 975 l 90 801 l 49 801 b 15 772 21 801 15 793 l 15 731 b 40 711 15 721 14 711 b 90 714 46 713 65 714 l 89 571 b 92 90 89 486 92 147 b 124 3 92 31 85 -1 b 235 7 163 7 208 8 b 283 35 256 7 283 1 b 281 56 283 40 282 47 b 274 200 275 83 274 142 b 275 350 274 258 275 318 b 278 435 275 382 276 413 b 279 471 279 447 279 460 b 361 469 308 469 335 469 l 492 469 b 653 471 524 469 593 469 l 765 474 l 765 371 b 765 222 765 315 764 251 b 764 19 765 147 764 -18 b 775 6 764 13 765 6 b 825 8 790 6 818 7 b 839 18 831 10 839 7 b 838 26 839 21 838 24 b 835 67 836 36 835 50 b 836 122 835 86 836 108 b 844 417 836 147 844 354 b 849 711 844 457 846 600 l 864 711 b 932 731 921 711 932 718 l 932 776 b 876 801 932 793 933 806 z m 774 585 l 774 543 b 669 542 738 542 703 542 b 504 540 613 540 544 540 b 360 544 464 540 408 543 l 276 547 l 281 629 l 285 715 l 604 715 b 774 713 649 715 715 714 l 772 661 b 774 585 772 638 774 608 z "},"Ĥ":{"ha":947,"x_min":0,"x_max":0,"o":"m 364 1081 l 326 1057 b 317 1040 319 1053 317 1046 b 350 1018 317 1029 328 1018 b 403 1022 368 1018 385 1019 b 482 1051 442 1033 461 1040 l 546 1081 l 590 1060 b 639 1035 606 1050 621 1042 l 676 1025 b 714 1015 692 1019 704 1015 b 736 1036 725 1015 732 1021 b 689 1083 740 1054 700 1076 b 596 1143 651 1107 633 1117 b 543 1164 572 1156 564 1164 b 528 1163 538 1164 533 1164 b 503 1157 521 1163 513 1161 b 431 1121 488 1153 463 1139 b 364 1081 389 1089 378 1088 z m 360 544 l 276 547 l 281 629 l 286 767 b 292 932 290 843 292 915 b 271 974 292 949 297 974 b 204 976 251 974 228 976 b 181 975 196 976 188 976 b 149 972 168 974 158 972 b 118 974 138 972 128 974 b 92 931 104 974 92 972 b 89 571 92 896 89 660 b 92 90 89 486 92 147 b 124 3 92 31 85 -1 b 235 7 163 7 208 8 b 283 35 256 7 283 1 b 281 56 283 40 282 47 b 274 200 275 83 274 142 b 275 350 274 258 275 318 b 278 435 275 382 276 413 b 279 471 279 447 279 460 b 361 469 308 469 335 469 l 492 469 b 653 471 524 469 593 469 l 765 474 l 765 371 b 765 222 765 315 764 251 b 764 19 765 147 764 -18 b 775 6 764 13 765 6 b 825 8 790 6 818 7 b 839 18 831 10 839 7 b 838 26 839 19 839 22 b 835 67 836 36 835 50 b 836 122 835 86 836 108 b 844 417 836 147 844 354 b 854 838 844 478 849 775 b 867 957 860 900 865 942 b 869 968 868 961 869 965 b 856 982 869 975 865 979 b 832 985 849 985 839 985 b 811 986 824 985 817 985 b 796 988 807 986 801 988 b 781 975 789 988 782 986 b 772 661 781 957 772 708 b 774 585 772 638 774 608 l 774 543 b 669 542 738 542 703 542 b 504 540 613 540 544 540 b 360 544 464 540 408 543 z "},"Ḥ":{"ha":947,"x_min":0,"x_max":0,"o":"m 360 544 l 276 547 l 281 629 l 286 767 b 292 932 290 843 292 915 b 271 974 292 949 297 974 b 204 976 251 974 228 976 b 181 975 196 976 188 976 b 149 972 168 974 158 972 b 118 974 138 972 128 974 b 92 931 104 974 92 972 b 89 571 92 896 89 660 b 92 90 89 486 92 147 b 124 3 92 31 85 -1 b 235 7 163 7 208 8 b 283 35 256 7 283 1 b 281 56 283 40 282 47 b 274 200 275 83 274 142 b 275 350 274 258 275 318 b 278 435 275 382 276 413 b 279 471 279 447 279 460 b 361 469 308 469 335 469 l 492 469 b 653 471 524 469 593 469 l 765 474 l 765 371 b 765 222 765 315 764 251 b 764 19 765 147 764 -18 b 775 6 764 13 765 6 b 825 8 790 6 818 7 b 839 18 831 10 839 7 b 838 26 839 19 839 22 b 835 67 836 36 835 50 b 836 122 835 86 836 108 b 844 417 836 147 844 354 b 854 838 844 478 849 775 b 867 957 860 900 865 942 b 869 968 868 961 869 965 b 856 982 869 975 865 979 b 832 985 849 985 839 985 b 811 986 824 985 817 985 b 796 988 807 986 801 988 b 781 975 789 988 782 986 b 772 661 781 957 772 708 b 774 585 772 638 774 608 l 774 543 b 669 542 738 542 703 542 b 504 540 613 540 544 540 b 360 544 464 540 408 543 z m 617 -106 b 519 -31 617 -57 565 -31 b 440 -112 475 -31 440 -72 b 525 -197 440 -164 486 -197 b 617 -106 561 -197 617 -167 z "},"I":{"ha":213,"x_min":0,"x_max":0,"o":"m 161 928 b 164 961 161 939 164 951 b 150 981 164 972 161 981 b 99 982 129 981 108 982 b 76 946 81 982 76 965 b 78 917 76 936 78 926 b 68 522 82 883 68 614 b 63 49 68 431 63 101 b 96 -10 63 -15 50 -10 b 139 -4 113 -10 131 -10 b 153 18 147 0 153 3 b 151 38 153 24 153 29 b 143 388 147 72 143 315 b 154 771 143 458 154 696 b 161 928 156 847 157 900 z "},"Ĳ":{"ha":947,"x_min":0,"x_max":0,"o":"m 381 479 b 361 556 381 508 401 560 b 275 546 321 550 292 546 b 254 522 260 547 254 549 b 251 343 254 496 251 399 b 583 -10 251 285 276 -10 b 846 519 893 -10 840 460 l 849 944 b 815 990 850 982 847 989 b 793 992 808 992 800 992 b 733 986 769 992 750 988 b 699 933 715 986 694 985 b 697 799 699 901 697 849 b 700 707 697 763 699 728 b 696 324 700 658 696 386 b 539 143 696 261 660 143 b 381 479 450 143 381 197 z m 161 928 b 164 961 161 939 164 951 b 150 981 164 972 161 981 b 99 982 129 981 108 982 b 76 946 81 982 76 965 b 78 917 76 936 78 926 b 68 522 82 883 68 614 b 63 49 68 431 63 101 b 96 -10 63 -15 50 -10 b 139 -4 113 -10 131 -10 b 153 18 147 0 153 3 b 151 38 153 24 153 29 b 143 388 147 72 143 315 b 154 771 143 458 154 696 b 161 928 156 847 157 900 z "},"Í":{"ha":244,"x_min":0,"x_max":0,"o":"m 176 1147 l 146 1136 b 61 1104 89 1111 81 1115 b -8 1069 47 1100 -6 1079 b -11 1056 -10 1064 -11 1060 b 17 1025 -11 1039 4 1029 b 46 1015 28 1018 36 1015 b 90 1028 58 1015 71 1021 b 208 1074 138 1050 161 1058 b 276 1121 224 1078 269 1097 b 253 1160 282 1151 272 1160 b 225 1157 246 1160 236 1158 b 176 1147 214 1157 193 1153 z m 161 928 b 164 961 161 939 164 951 b 150 981 164 972 161 981 b 99 982 129 981 108 982 b 76 946 81 982 76 965 b 78 917 76 936 78 926 b 68 522 82 883 68 614 b 63 49 68 431 63 101 b 96 -10 63 -15 50 -10 b 139 -4 113 -10 131 -10 b 153 18 147 0 153 3 b 151 38 153 24 153 29 b 143 388 147 72 143 315 b 154 771 143 458 154 696 b 161 928 156 847 157 900 z "},"Ĭ":{"ha":213,"x_min":0,"x_max":0,"o":"m 325 1156 b 279 1164 325 1160 310 1163 b 242 1154 257 1163 244 1158 b 190 1113 240 1136 224 1122 b 106 1100 158 1104 129 1100 b 14 1114 56 1103 25 1107 b -8 1151 4 1121 -4 1133 b -47 1165 -8 1164 -8 1165 b -89 1161 -87 1165 -89 1165 b -68 1083 -87 1138 -81 1113 b -29 1046 -61 1068 -47 1056 b 108 1025 -11 1036 35 1029 b 242 1043 174 1025 218 1031 b 296 1076 265 1056 283 1067 b 325 1156 324 1097 325 1144 z m 161 928 b 164 961 161 939 164 951 b 150 981 164 972 161 981 b 99 982 129 981 108 982 b 76 946 81 982 76 965 b 78 917 76 936 78 926 b 68 522 82 883 68 614 b 63 49 68 431 63 101 b 96 -10 63 -15 50 -10 b 139 -4 113 -10 131 -10 b 153 18 147 0 153 3 b 151 38 153 24 153 29 b 143 388 147 72 143 315 b 154 771 143 458 154 696 b 161 928 156 847 157 900 z "},"Î":{"ha":244,"x_min":0,"x_max":0,"o":"m -57 1082 l -93 1058 b -104 1042 -100 1054 -104 1047 b -71 1019 -104 1031 -93 1019 b -18 1024 -53 1019 -36 1021 b 61 1053 21 1035 40 1042 l 125 1082 l 169 1061 b 218 1036 185 1051 200 1043 l 256 1026 b 293 1017 271 1021 283 1017 b 315 1038 304 1017 311 1022 b 268 1085 319 1056 279 1078 b 175 1144 231 1108 213 1118 b 122 1165 151 1157 143 1165 b 107 1164 117 1165 113 1165 b 82 1158 100 1164 92 1163 b 10 1122 67 1154 42 1140 b -57 1082 -32 1090 -43 1089 z m 161 928 b 164 961 161 939 164 951 b 150 981 164 972 161 981 b 99 982 129 981 108 982 b 76 946 81 982 76 965 b 78 917 76 936 78 926 b 68 522 82 883 68 614 b 63 49 68 431 63 101 b 96 -10 63 -15 50 -10 b 139 -4 113 -10 131 -10 b 153 18 147 0 153 3 b 151 38 153 24 153 29 b 143 388 147 72 143 315 b 154 771 143 458 154 696 b 161 928 156 847 157 900 z "},"Ï":{"ha":244,"x_min":0,"x_max":0,"o":"m 213 1081 b 288 1006 213 1047 228 1006 b 375 1081 347 1006 375 1043 b 315 1167 375 1124 353 1167 b 213 1081 278 1167 213 1157 z m 61 1086 b -31 1157 61 1135 13 1157 b -106 1081 -74 1157 -106 1118 b -25 1000 -106 1031 -62 1000 b 61 1086 8 1000 61 1031 z m 161 928 b 164 961 161 939 164 951 b 150 981 164 972 161 981 b 99 982 129 981 108 982 b 76 946 81 982 76 965 b 78 917 76 936 78 926 b 68 522 82 883 68 614 b 63 49 68 431 63 101 b 96 -10 63 -15 50 -10 b 139 -4 113 -10 131 -10 b 153 18 147 0 153 3 b 151 38 153 24 153 29 b 143 388 147 72 143 315 b 154 771 143 458 154 696 b 161 928 156 847 157 900 z "},"İ":{"ha":213,"x_min":0,"x_max":0,"o":"m 214 1092 b 117 1167 214 1140 163 1167 b 38 1085 72 1167 38 1125 b 122 1000 38 1033 83 1000 b 214 1092 158 1000 214 1031 z m 75 822 l 72 725 b 69 618 72 694 71 658 b 68 522 68 578 68 546 b 63 49 68 431 63 101 b 96 -10 63 -15 50 -10 b 139 -4 113 -10 131 -10 b 153 18 147 0 153 3 b 151 38 153 24 153 29 b 143 388 147 72 143 315 b 147 578 143 422 146 500 b 151 739 151 656 151 700 b 158 896 153 815 154 868 b 161 929 158 907 161 919 b 147 949 161 940 158 949 b 96 950 126 949 106 950 b 74 914 78 950 74 933 b 75 885 74 904 75 894 b 76 863 76 881 76 874 b 75 822 76 853 76 839 z "},"Ị":{"ha":213,"x_min":0,"x_max":0,"o":"m 63 138 l 63 92 b 96 33 63 28 50 33 b 139 39 113 33 131 33 b 153 61 147 43 153 46 b 151 81 153 67 153 72 b 149 139 150 89 150 108 l 146 219 l 143 307 l 143 388 b 154 771 143 458 154 696 b 161 928 156 847 157 900 b 164 961 161 939 164 951 b 150 981 164 972 161 981 b 99 982 129 981 108 982 b 76 946 81 982 76 965 b 78 917 76 936 78 926 b 68 522 82 883 68 614 b 65 271 68 475 68 371 b 64 196 65 236 65 211 b 63 138 64 181 64 161 z m 190 -106 b 93 -31 190 -57 139 -31 b 14 -112 49 -31 14 -72 b 99 -197 14 -164 60 -197 b 190 -106 135 -197 190 -167 z "},"Ì":{"ha":244,"x_min":0,"x_max":0,"o":"m 108 1046 l 139 1035 b 188 1029 157 1031 176 1028 b 240 1049 219 1025 240 1024 b 238 1067 240 1054 239 1060 b 168 1113 231 1093 183 1106 b 49 1153 119 1124 97 1132 b 6 1164 31 1158 18 1164 b -25 1153 -4 1164 -12 1160 b -51 1122 -37 1147 -51 1139 b -47 1107 -51 1118 -50 1113 b 22 1075 -43 1096 7 1079 b 108 1046 40 1064 53 1071 z m 161 928 b 164 961 161 939 164 951 b 150 981 164 972 161 981 b 99 982 129 981 108 982 b 76 946 81 982 76 965 b 78 917 76 936 78 926 b 68 522 82 883 68 614 b 63 49 68 431 63 101 b 96 -10 63 -15 50 -10 b 139 -4 113 -10 131 -10 b 153 18 147 0 153 3 b 151 38 153 24 153 29 b 143 388 147 72 143 315 b 154 771 143 458 154 696 b 161 928 156 847 157 900 z "},"Ī":{"ha":213,"x_min":0,"x_max":0,"o":"m 294 1154 l -78 1154 b -93 1128 -90 1154 -93 1146 l -93 1090 b -82 1072 -93 1081 -93 1072 b -11 1076 -75 1076 -22 1076 l 172 1076 b 289 1072 206 1076 264 1072 b 319 1090 315 1072 319 1078 l 319 1132 b 304 1156 319 1144 319 1156 b 294 1154 301 1156 299 1154 z m 161 928 b 164 961 161 939 164 951 b 150 981 164 972 161 981 b 99 982 129 981 108 982 b 76 946 81 982 76 965 b 78 917 76 936 78 926 b 68 522 82 883 68 614 b 63 49 68 431 63 101 b 96 -10 63 -15 50 -10 b 139 -4 113 -10 131 -10 b 153 18 147 0 153 3 b 151 38 153 24 153 29 b 143 388 147 72 143 315 b 154 771 143 458 154 696 b 161 928 156 847 157 900 z "},"Į":{"ha":213,"x_min":0,"x_max":0,"o":"m 258 -103 b 149 -135 246 -103 233 -140 b 121 -78 129 -133 121 -112 b 122 -53 121 -69 121 -61 b 129 -7 125 -33 128 -19 b 139 -4 133 -7 136 -6 b 153 18 147 0 153 3 b 151 38 153 24 153 29 b 143 388 147 72 143 315 b 154 771 143 458 154 696 b 161 928 156 847 157 900 b 164 961 161 939 164 951 b 150 981 164 972 161 981 b 99 982 129 981 108 982 b 76 946 81 982 76 965 b 78 917 76 936 78 926 b 68 522 82 883 68 614 b 63 49 68 431 63 101 b 61 3 63 25 61 11 l 54 -11 b 35 -62 50 -21 43 -37 b 22 -126 26 -87 22 -108 b 136 -237 26 -219 68 -239 b 286 -137 186 -235 286 -175 b 258 -103 286 -124 269 -103 z "},"Ĩ":{"ha":244,"x_min":0,"x_max":0,"o":"m 371 1093 l 371 1114 b 331 1149 368 1125 383 1146 b 242 1154 304 1153 275 1154 b 76 1143 169 1154 115 1150 b -24 1131 38 1136 15 1131 b -103 1150 -67 1139 -92 1150 b -112 1143 -108 1150 -111 1149 b -115 1111 -115 1133 -115 1121 b -115 1093 -115 1104 -115 1097 b -24 1061 -115 1081 -108 1061 b 101 1072 31 1061 53 1068 b 247 1088 150 1076 182 1086 b 339 1071 281 1088 313 1071 b 371 1093 360 1071 371 1078 z m 161 928 b 164 961 161 939 164 951 b 150 981 164 972 161 981 b 99 982 129 981 108 982 b 76 946 81 982 76 965 b 78 917 76 936 78 926 b 68 522 82 883 68 614 b 63 49 68 431 63 101 b 96 -10 63 -15 50 -10 b 139 -4 113 -10 131 -10 b 153 18 147 0 153 3 b 151 38 153 24 153 29 b 143 388 147 72 143 315 b 154 771 143 458 154 696 b 161 928 156 847 157 900 z "},"J":{"ha":682,"x_min":0,"x_max":0,"o":"m 136 479 b 117 556 136 508 157 560 b 31 546 76 550 47 546 b 10 522 15 547 10 549 b 7 343 10 496 7 399 b 339 -10 7 285 32 -10 b 601 519 649 -10 596 460 l 604 944 b 571 990 606 982 603 989 b 549 992 564 992 556 992 b 489 986 525 992 506 988 b 454 933 471 986 450 985 b 453 799 454 901 453 849 b 456 707 453 763 454 728 b 451 324 456 658 451 386 b 294 143 451 261 415 143 b 136 479 206 143 136 197 z "},"Ĵ":{"ha":703,"x_min":0,"x_max":0,"o":"m 376 1082 l 339 1058 b 329 1042 332 1054 329 1047 b 363 1019 329 1031 340 1019 b 415 1024 381 1019 397 1021 b 494 1053 454 1035 474 1042 l 558 1082 l 603 1061 b 651 1036 618 1051 633 1043 l 689 1026 b 726 1017 704 1021 717 1017 b 749 1038 738 1017 744 1022 b 701 1085 753 1056 713 1078 b 608 1144 664 1108 646 1118 b 556 1165 585 1157 576 1165 b 540 1164 550 1165 546 1165 b 515 1158 533 1164 525 1163 b 443 1122 500 1154 475 1140 b 376 1082 401 1090 390 1089 z m 136 479 b 117 556 136 508 157 560 b 31 546 76 550 47 546 b 10 522 15 547 10 549 b 7 343 10 496 7 399 b 339 -10 7 285 32 -10 b 601 519 649 -10 596 460 l 604 944 b 571 990 606 982 603 989 b 549 992 564 992 556 992 b 489 986 525 992 506 988 b 454 933 471 986 450 985 b 453 799 454 901 453 849 b 456 707 453 763 454 728 b 451 324 456 658 451 386 b 294 143 451 261 415 143 b 136 479 206 143 136 197 z "},"K":{"ha":861,"x_min":0,"x_max":0,"o":"m 199 4 l 254 4 b 274 18 264 4 274 4 b 272 28 274 21 274 24 b 268 94 269 38 268 65 b 269 190 268 131 269 171 b 272 279 269 208 271 247 b 274 339 274 297 274 318 l 324 282 b 397 200 350 250 381 215 b 540 19 426 168 522 35 b 594 -6 558 1 571 -6 b 774 -1 619 -6 756 -1 b 797 10 788 -1 797 3 b 793 21 797 14 796 17 b 690 140 781 33 717 118 b 508 350 664 163 542 317 b 435 432 492 367 461 400 b 386 489 419 450 403 468 l 461 567 b 549 661 500 607 539 650 b 710 856 563 682 689 838 b 797 942 732 874 790 935 b 804 954 800 944 804 950 b 794 964 804 958 801 963 b 756 964 782 965 765 964 b 726 940 746 963 738 957 b 596 794 717 924 633 836 b 467 653 557 756 482 675 b 336 514 447 631 361 536 b 296 472 324 501 308 488 l 274 449 l 271 496 b 269 542 271 510 269 525 b 272 590 269 558 271 575 b 278 797 278 635 278 732 b 278 854 278 824 278 844 b 278 936 276 893 278 919 b 260 964 278 950 282 964 b 251 964 258 964 254 964 b 149 965 219 963 181 965 b 121 969 140 965 129 969 b 106 956 114 969 107 967 b 99 819 101 939 99 872 b 100 761 99 794 99 772 b 101 696 101 749 101 724 b 97 557 101 644 100 582 b 85 122 92 519 85 154 b 92 31 85 90 96 47 b 86 10 89 22 86 14 b 96 1 86 4 89 1 b 113 0 99 0 106 0 b 199 4 139 0 182 4 z "},"Ķ":{"ha":861,"x_min":0,"x_max":0,"o":"m 199 4 l 254 4 b 274 18 264 4 274 4 b 272 28 274 21 274 24 b 268 94 269 38 268 65 b 269 190 268 131 269 171 b 272 279 269 208 271 247 b 274 339 274 297 274 318 l 324 282 b 397 200 350 250 381 215 b 540 19 426 168 522 35 b 594 -6 558 1 571 -6 b 774 -1 619 -6 756 -1 b 797 10 788 -1 797 3 b 793 21 797 14 796 17 b 690 140 781 33 717 118 b 508 350 664 163 542 317 b 435 432 492 367 461 400 b 386 489 419 450 403 468 l 461 567 b 549 661 500 607 539 650 b 710 856 563 682 689 838 b 797 942 732 874 790 935 b 804 954 800 944 804 950 b 794 964 804 958 801 963 b 756 964 782 965 765 964 b 726 940 746 963 738 957 b 596 794 717 924 633 836 b 467 653 557 756 482 675 b 336 514 447 631 361 536 b 296 472 324 501 308 488 l 274 449 l 271 496 b 269 542 271 510 269 525 b 272 590 269 558 271 575 b 278 797 278 635 278 732 b 278 854 278 824 278 844 b 278 936 276 893 278 919 b 260 964 278 950 282 964 b 251 964 258 964 254 964 b 149 965 219 963 181 965 b 121 969 140 965 129 969 b 106 956 114 969 107 967 b 99 819 101 939 99 872 b 100 761 99 794 99 772 b 101 696 101 749 101 724 b 97 557 101 644 100 582 b 85 122 92 519 85 154 b 92 31 85 90 96 47 b 86 10 89 22 86 14 b 96 1 86 4 89 1 b 113 0 99 0 106 0 b 199 4 139 0 182 4 z m 446 -57 l 368 -57 b 347 -71 358 -57 349 -61 l 338 -99 l 326 -143 l 283 -279 b 292 -293 283 -286 281 -293 b 336 -294 299 -294 314 -294 b 378 -293 360 -294 374 -294 b 389 -275 383 -289 388 -279 b 396 -244 389 -271 392 -260 b 415 -186 399 -237 406 -218 l 432 -133 b 446 -92 438 -115 444 -101 b 453 -68 450 -85 451 -79 b 446 -57 458 -58 453 -57 z "},"L":{"ha":728,"x_min":0,"x_max":0,"o":"m 547 71 l 349 78 l 346 126 b 344 165 346 140 344 153 b 346 193 344 176 346 188 b 349 344 346 217 349 319 b 344 657 349 371 344 596 b 353 903 344 718 353 879 b 319 967 353 936 375 974 b 249 963 297 964 274 963 b 156 968 211 963 175 965 b 106 976 138 968 119 976 b 88 953 94 976 88 971 b 100 590 88 914 100 635 b 94 125 100 546 94 175 b 94 17 94 68 94 28 b 125 -11 94 3 101 -11 b 476 1 149 -11 429 1 b 688 -11 525 1 664 -11 b 728 3 710 -11 728 -15 b 725 51 728 19 724 42 b 715 69 725 61 731 69 b 713 69 715 69 714 69 z "},"Ǉ":{"ha":1410,"x_min":0,"x_max":0,"o":"m 864 479 b 844 556 864 508 885 560 b 758 546 804 550 775 546 b 738 522 743 547 738 549 b 735 343 738 496 735 399 b 1067 -10 735 285 760 -10 b 1329 519 1376 -10 1324 460 l 1332 944 b 1299 990 1333 982 1331 989 b 1276 992 1292 992 1283 992 b 1217 986 1253 992 1233 988 b 1182 933 1199 986 1178 985 b 1181 799 1182 901 1181 849 b 1183 707 1181 763 1182 728 b 1179 324 1183 658 1179 386 b 1022 143 1179 261 1143 143 b 864 479 933 143 864 197 z m 547 71 l 349 78 l 346 126 b 344 165 346 140 344 153 b 346 193 344 176 346 188 b 349 344 346 217 349 319 b 344 657 349 371 344 596 b 353 903 344 718 353 879 b 319 967 353 936 375 974 b 249 963 297 964 274 963 b 156 968 211 963 175 965 b 106 976 138 968 119 976 b 88 953 94 976 88 971 b 100 590 88 914 100 635 b 94 125 100 546 94 175 b 94 17 94 68 94 28 b 125 -11 94 3 101 -11 b 476 1 149 -11 429 1 b 688 -11 525 1 664 -11 b 728 3 710 -11 728 -15 b 725 51 728 19 724 42 b 715 69 725 61 731 69 b 713 69 715 69 714 69 z "},"Ĺ":{"ha":728,"x_min":0,"x_max":0,"o":"m 308 1153 l 278 1142 b 193 1110 221 1117 213 1121 b 124 1075 179 1106 126 1085 b 121 1061 122 1069 121 1065 b 149 1031 121 1044 136 1035 b 178 1021 160 1024 168 1021 b 222 1033 190 1021 203 1026 b 340 1079 269 1056 293 1064 b 408 1126 356 1083 401 1103 b 385 1165 414 1157 404 1165 b 357 1163 378 1165 368 1164 b 308 1153 346 1163 325 1158 z m 547 71 l 349 78 l 346 126 b 344 165 346 140 344 153 b 346 193 344 176 346 188 b 349 344 346 217 349 319 b 344 657 349 371 344 596 b 353 903 344 718 353 879 b 319 967 353 936 375 974 b 249 963 297 964 274 963 b 156 968 211 963 175 965 b 106 976 138 968 119 976 b 88 953 94 976 88 971 b 100 590 88 914 100 635 b 94 125 100 546 94 175 b 94 17 94 68 94 28 b 125 -11 94 3 101 -11 b 476 1 149 -11 429 1 b 688 -11 525 1 664 -11 b 728 3 710 -11 728 -15 b 725 51 728 19 724 42 b 715 69 725 61 731 69 b 713 69 715 69 714 69 z "},"Ľ":{"ha":728,"x_min":0,"x_max":0,"o":"m 614 1117 l 544 1117 b 506 1094 524 1117 507 1110 l 488 1050 l 463 981 l 431 878 b 447 856 431 867 425 856 b 492 853 461 854 476 853 b 531 856 507 853 522 854 b 553 885 542 861 549 878 b 588 996 553 892 576 971 b 614 1061 597 1025 610 1044 b 626 1097 619 1074 622 1085 b 631 1108 629 1101 631 1106 b 614 1117 631 1115 622 1117 z m 547 71 l 349 78 l 346 126 b 344 165 346 140 344 153 b 346 193 344 176 346 188 b 349 344 346 217 349 319 b 344 657 349 371 344 596 b 353 903 344 718 353 879 b 319 967 353 936 375 974 b 249 963 297 964 274 963 b 156 968 211 963 175 965 b 106 976 138 968 119 976 b 88 953 94 976 88 971 b 100 590 88 914 100 635 b 94 125 100 546 94 175 b 94 17 94 68 94 28 b 125 -11 94 3 101 -11 b 476 1 149 -11 429 1 b 688 -11 525 1 664 -11 b 728 3 710 -11 728 -15 b 725 51 728 19 724 42 b 715 69 725 61 731 69 b 713 69 715 69 714 69 z "},"Ļ":{"ha":728,"x_min":0,"x_max":0,"o":"m 547 71 l 349 78 l 346 126 b 344 165 346 140 344 153 b 346 193 344 176 346 188 b 349 344 346 217 349 319 b 344 657 349 371 344 596 b 353 903 344 718 353 879 b 319 967 353 936 375 974 b 249 963 297 964 274 963 b 156 968 211 963 175 965 b 106 976 138 968 119 976 b 88 953 94 976 88 971 b 100 590 88 914 100 635 b 94 125 100 546 94 175 b 94 17 94 68 94 28 b 125 -11 94 3 101 -11 b 476 1 149 -11 429 1 b 688 -11 525 1 664 -11 b 728 3 710 -11 728 -15 b 725 51 728 19 724 42 b 715 69 725 61 731 69 b 713 69 715 69 714 69 z m 451 -57 l 374 -57 b 353 -71 364 -57 354 -61 l 343 -99 l 332 -143 l 289 -279 b 297 -293 289 -286 286 -293 b 342 -294 304 -294 319 -294 b 383 -293 365 -294 379 -294 b 394 -275 389 -289 393 -279 b 401 -244 394 -271 397 -260 b 421 -186 404 -237 411 -218 l 438 -133 b 451 -92 443 -115 450 -101 b 458 -68 456 -85 457 -79 b 451 -57 464 -58 458 -57 z "},"Ŀ":{"ha":728,"x_min":0,"x_max":0,"o":"m 547 71 l 349 78 l 346 126 b 344 165 346 140 344 153 b 346 193 344 176 346 188 b 349 344 346 217 349 319 b 344 657 349 371 344 596 b 353 903 344 718 353 879 b 319 967 353 936 375 974 b 249 963 297 964 274 963 b 156 968 211 963 175 965 b 106 976 138 968 119 976 b 88 953 94 976 88 971 b 100 590 88 914 100 635 b 94 125 100 546 94 175 b 94 17 94 68 94 28 b 125 -11 94 3 101 -11 b 476 1 149 -11 429 1 b 688 -11 525 1 664 -11 b 728 3 710 -11 728 -15 b 725 51 728 19 724 42 b 715 69 725 61 731 69 b 713 69 715 69 714 69 z m 535 631 b 435 536 489 631 435 618 b 535 425 435 460 485 425 b 640 507 586 425 640 461 b 535 631 640 551 632 631 z "},"Ł":{"ha":806,"x_min":0,"x_max":0,"o":"m 622 71 l 424 78 l 421 126 b 419 165 421 140 419 153 b 421 193 419 176 421 188 b 424 344 421 217 424 319 l 421 503 l 463 521 l 539 554 b 561 582 556 563 561 571 b 558 600 561 588 560 593 l 539 671 b 518 686 533 682 526 686 b 514 686 517 686 515 686 b 454 653 501 685 481 664 b 419 638 443 647 431 643 l 419 657 b 428 903 419 718 428 879 b 394 967 428 936 450 974 b 324 963 372 964 349 963 b 231 968 286 963 250 965 b 181 976 213 968 194 976 b 163 953 169 976 163 971 b 175 590 163 914 175 635 l 175 531 l 136 517 b 93 497 118 510 104 503 b 43 451 47 479 39 464 l 82 379 b 107 363 90 367 99 363 b 135 371 115 363 124 365 l 172 389 l 169 125 b 169 17 169 68 169 28 b 200 -11 169 3 176 -11 b 551 1 224 -11 504 1 b 763 -11 600 1 739 -11 b 803 3 785 -11 803 -15 b 800 51 803 19 799 42 b 790 69 800 61 804 69 b 788 69 790 69 789 69 z "},"M":{"ha":978,"x_min":0,"x_max":0,"o":"m 229 606 l 232 667 b 256 606 239 646 247 625 b 293 513 268 572 283 533 b 417 272 311 471 403 313 b 481 121 431 232 465 143 b 504 89 493 100 499 89 b 546 174 510 89 535 147 b 668 426 557 200 650 393 b 789 667 686 460 774 636 b 815 718 796 682 806 701 b 832 747 819 728 825 738 l 829 647 b 826 519 828 593 825 540 b 817 283 826 479 821 325 b 814 35 811 232 814 -26 b 824 8 814 18 815 10 b 858 11 835 8 850 11 b 861 11 860 11 860 11 b 869 25 865 10 869 11 b 869 32 869 26 869 29 b 868 167 869 43 868 107 b 871 274 868 211 869 256 b 881 556 875 317 881 492 b 886 889 881 615 881 851 b 899 968 889 914 899 947 b 888 986 899 979 896 986 b 790 839 868 986 817 892 b 663 585 761 786 707 671 l 572 404 b 514 289 554 367 535 329 l 485 354 b 440 460 469 392 450 433 b 342 685 422 515 368 640 b 260 906 319 733 271 849 b 225 993 251 940 249 985 b 186 996 213 996 200 996 b 151 994 175 996 164 996 b 118 999 132 992 125 999 b 108 994 115 999 113 999 b 101 939 103 989 101 965 b 103 864 101 913 103 883 b 100 603 103 824 100 653 b 86 306 100 553 86 363 b 90 47 86 249 90 74 b 117 0 89 13 88 0 b 183 4 136 0 167 4 b 222 21 204 4 222 -1 l 224 238 b 226 511 224 286 226 468 b 229 606 226 532 228 572 z "},"N":{"ha":939,"x_min":0,"x_max":0,"o":"m 365 690 l 361 822 l 401 750 b 464 629 424 710 449 661 b 618 294 493 564 589 350 b 732 22 644 239 721 47 b 764 -6 747 -4 749 -4 b 811 -4 775 -7 794 -4 b 828 -6 818 -4 824 -4 b 854 19 840 -7 854 -6 b 854 22 854 19 854 21 b 847 265 854 49 847 204 b 839 515 847 318 839 435 b 840 556 839 531 840 543 b 844 956 840 628 844 929 b 847 983 844 967 847 976 b 829 996 847 992 844 996 b 781 999 803 996 797 994 b 753 1003 774 1000 763 1003 b 732 982 742 1003 732 999 l 726 849 b 729 649 726 797 729 694 b 726 494 728 610 726 554 b 726 453 726 481 726 467 l 732 317 l 735 236 l 692 321 b 622 457 668 369 639 422 b 468 792 589 524 501 722 b 382 978 435 863 393 956 b 314 1006 371 999 354 1006 b 196 1004 275 1006 218 1004 b 160 1007 188 1004 174 1007 b 121 969 142 1007 124 1001 b 117 806 117 915 117 861 b 93 447 117 750 97 514 b 83 140 86 385 83 219 b 82 83 82 117 82 99 b 88 22 82 49 85 35 b 126 -17 92 4 89 -17 b 261 -14 164 -17 228 -14 b 354 -8 294 -14 339 -8 b 381 14 368 -8 381 -6 b 381 17 381 14 381 15 b 375 150 381 39 375 110 b 369 488 375 192 369 392 b 365 690 369 536 367 618 z "},"Ǌ":{"ha":1621,"x_min":0,"x_max":0,"o":"m 361 822 l 401 750 b 464 629 424 710 449 661 b 618 294 493 564 589 350 b 732 22 644 239 721 47 b 764 -6 747 -4 749 -4 b 811 -4 775 -7 794 -4 b 828 -6 818 -4 824 -4 b 854 19 840 -7 854 -6 b 854 22 854 19 854 21 b 847 265 854 49 847 204 b 839 515 847 318 839 435 b 840 556 839 531 840 543 b 844 956 840 628 844 929 b 847 983 844 967 847 976 b 829 996 847 992 844 996 b 781 999 803 996 797 994 b 753 1003 774 1000 763 1003 b 732 982 742 1003 732 999 l 726 849 b 729 649 726 797 729 694 b 726 494 728 610 726 554 b 726 453 726 481 726 467 l 732 317 l 735 236 l 692 321 b 622 457 668 369 639 422 b 468 792 589 524 501 722 b 382 978 435 863 393 956 b 314 1006 371 999 354 1006 b 196 1004 275 1006 218 1004 b 160 1007 188 1004 174 1007 b 121 969 142 1007 124 1001 b 117 806 117 915 117 861 b 93 447 117 750 97 514 b 83 140 86 385 83 219 b 82 83 82 117 82 99 b 88 22 82 49 85 35 b 126 -17 92 4 89 -17 b 261 -14 164 -17 228 -14 b 354 -8 294 -14 339 -8 b 381 14 368 -8 381 -6 b 381 17 381 14 381 15 b 375 150 381 39 375 110 b 369 488 375 192 369 392 b 365 690 369 536 367 618 z m 1075 479 b 1056 556 1075 508 1096 560 b 969 546 1015 550 986 546 b 949 522 954 547 949 549 b 946 343 949 496 946 399 b 1278 -10 946 285 971 -10 b 1540 519 1588 -10 1535 460 l 1543 944 b 1510 990 1544 982 1542 989 b 1488 992 1503 992 1494 992 b 1428 986 1464 992 1444 988 b 1393 933 1410 986 1389 985 b 1392 799 1393 901 1392 849 b 1394 707 1392 763 1393 728 b 1390 324 1394 658 1390 386 b 1233 143 1390 261 1354 143 b 1075 479 1144 143 1075 197 z "},"Ń":{"ha":913,"x_min":0,"x_max":0,"o":"m 557 1147 l 526 1136 b 442 1104 469 1111 461 1115 b 372 1069 428 1100 375 1079 b 369 1056 371 1064 369 1060 b 397 1025 369 1039 385 1029 b 426 1015 408 1018 417 1015 b 471 1028 439 1015 451 1021 b 589 1074 518 1050 542 1058 b 657 1121 604 1078 650 1097 b 633 1160 663 1151 653 1160 b 606 1157 626 1160 617 1158 b 557 1147 594 1157 574 1153 z m 365 690 l 361 822 l 401 750 b 464 629 424 710 449 661 b 618 294 493 564 589 350 b 732 22 644 239 721 47 b 764 -6 747 -4 749 -4 b 811 -4 775 -7 794 -4 b 828 -6 818 -4 824 -4 b 854 19 840 -7 854 -6 b 854 22 854 19 854 21 b 847 265 854 49 847 204 b 839 515 847 318 839 435 b 840 556 839 531 840 543 b 844 956 840 628 844 929 b 847 983 844 967 847 976 b 829 996 847 992 844 996 b 781 999 803 996 797 994 b 753 1003 774 1000 763 1003 b 732 982 742 1003 732 999 l 726 849 b 729 649 726 797 729 694 b 726 494 728 610 726 554 b 726 453 726 481 726 467 l 732 317 l 735 236 l 692 321 b 622 457 668 369 639 422 b 468 792 589 524 501 722 b 382 978 435 863 393 956 b 314 1006 371 999 354 1006 b 196 1004 275 1006 218 1004 b 160 1007 188 1004 174 1007 b 121 969 142 1007 124 1001 b 117 806 117 915 117 861 b 93 447 117 750 97 514 b 83 140 86 385 83 219 b 82 83 82 117 82 99 b 88 22 82 49 85 35 b 126 -17 92 4 89 -17 b 261 -14 164 -17 228 -14 b 354 -8 294 -14 339 -8 b 381 14 368 -8 381 -6 b 381 17 381 14 381 15 b 375 150 381 39 375 110 b 369 488 375 192 369 392 b 365 690 369 536 367 618 z "},"Ň":{"ha":939,"x_min":0,"x_max":0,"o":"m 715 1099 l 751 1122 b 763 1139 758 1126 763 1133 b 729 1161 763 1150 751 1161 b 676 1157 711 1161 694 1160 b 596 1128 638 1146 618 1139 b 533 1099 586 1122 565 1113 l 489 1119 b 440 1144 474 1129 458 1138 l 403 1154 b 365 1164 388 1160 375 1164 b 343 1143 354 1164 347 1158 b 390 1096 339 1125 379 1103 b 483 1036 428 1072 446 1063 b 536 1015 507 1024 515 1015 b 551 1017 542 1015 546 1015 b 576 1022 558 1017 567 1018 b 649 1058 592 1026 617 1040 b 715 1099 690 1090 701 1092 z m 365 690 l 361 822 l 401 750 b 464 629 424 710 449 661 b 618 294 493 564 589 350 b 732 22 644 239 721 47 b 764 -6 747 -4 749 -4 b 811 -4 775 -7 794 -4 b 828 -6 818 -4 824 -4 b 854 19 840 -7 854 -6 b 854 22 854 19 854 21 b 847 265 854 49 847 204 b 839 515 847 318 839 435 b 840 556 839 531 840 543 b 844 956 840 628 844 929 b 847 983 844 967 847 976 b 829 996 847 992 844 996 b 781 999 803 996 797 994 b 753 1003 774 1000 763 1003 b 732 982 742 1003 732 999 l 726 849 b 729 649 726 797 729 694 b 726 494 728 610 726 554 b 726 453 726 481 726 467 l 732 317 l 735 236 l 692 321 b 622 457 668 369 639 422 b 468 792 589 524 501 722 b 382 978 435 863 393 956 b 314 1006 371 999 354 1006 b 196 1004 275 1006 218 1004 b 160 1007 188 1004 174 1007 b 121 969 142 1007 124 1001 b 117 806 117 915 117 861 b 93 447 117 750 97 514 b 83 140 86 385 83 219 b 82 83 82 117 82 99 b 88 22 82 49 85 35 b 126 -17 92 4 89 -17 b 261 -14 164 -17 228 -14 b 354 -8 294 -14 339 -8 b 381 14 368 -8 381 -6 b 381 17 381 14 381 15 b 375 150 381 39 375 110 b 369 488 375 192 369 392 b 365 690 369 536 367 618 z "},"Ņ":{"ha":939,"x_min":0,"x_max":0,"o":"m 365 690 l 361 822 l 401 750 b 464 629 424 710 449 661 b 618 294 493 564 589 350 b 732 22 644 239 721 47 b 764 -6 747 -4 749 -4 b 811 -4 775 -7 794 -4 b 828 -6 818 -4 824 -4 b 854 19 840 -7 854 -6 b 854 22 854 19 854 21 b 847 265 854 49 847 204 b 839 515 847 318 839 435 b 840 556 839 531 840 543 b 844 956 840 628 844 929 b 847 983 844 967 847 976 b 829 996 847 992 844 996 b 781 999 803 996 797 994 b 753 1003 774 1000 763 1003 b 732 982 742 1003 732 999 l 726 849 b 729 649 726 797 729 694 b 726 494 728 610 726 554 b 726 453 726 481 726 467 l 732 317 l 735 236 l 692 321 b 622 457 668 369 639 422 b 468 792 589 524 501 722 b 382 978 435 863 393 956 b 314 1006 371 999 354 1006 b 196 1004 275 1006 218 1004 b 160 1007 188 1004 174 1007 b 121 969 142 1007 124 1001 b 117 806 117 915 117 861 b 93 447 117 750 97 514 b 83 140 86 385 83 219 b 82 83 82 117 82 99 b 88 22 82 49 85 35 b 126 -17 92 4 89 -17 b 261 -14 164 -17 228 -14 b 354 -8 294 -14 339 -8 b 381 14 368 -8 381 -6 b 381 17 381 14 381 15 b 375 150 381 39 375 110 b 369 488 375 192 369 392 b 365 690 369 536 367 618 z m 601 -57 l 524 -57 b 503 -71 514 -57 504 -61 l 493 -99 l 482 -143 l 439 -279 b 447 -293 439 -286 436 -293 b 492 -294 454 -294 469 -294 b 533 -293 515 -294 529 -294 b 544 -275 539 -289 543 -279 b 551 -244 544 -271 547 -260 b 571 -186 554 -237 561 -218 l 588 -133 b 601 -92 593 -115 600 -101 b 608 -68 606 -85 607 -79 b 601 -57 614 -58 608 -57 z "},"Ṅ":{"ha":939,"x_min":0,"x_max":0,"o":"m 621 1092 b 524 1167 621 1140 569 1167 b 444 1085 479 1167 444 1125 b 529 1000 444 1033 490 1000 b 621 1092 565 1000 621 1031 z m 365 690 l 361 822 l 401 750 b 464 629 424 710 449 661 b 618 294 493 564 589 350 b 732 22 644 239 721 47 b 764 -6 747 -4 749 -4 b 811 -4 775 -7 794 -4 b 828 -6 818 -4 824 -4 b 854 19 840 -7 854 -6 b 854 22 854 19 854 21 b 847 265 854 49 847 204 b 839 515 847 318 839 435 b 840 556 839 531 840 543 b 844 956 840 628 844 929 b 847 983 844 967 847 976 b 829 996 847 992 844 996 b 781 999 803 996 797 994 b 753 1003 774 1000 763 1003 b 732 982 742 1003 732 999 l 726 849 b 729 649 726 797 729 694 b 726 494 728 610 726 554 b 726 453 726 481 726 467 l 732 317 l 735 236 l 692 321 b 622 457 668 369 639 422 b 468 792 589 524 501 722 b 382 978 435 863 393 956 b 314 1006 371 999 354 1006 b 196 1004 275 1006 218 1004 b 160 1007 188 1004 174 1007 b 121 969 142 1007 124 1001 b 117 806 117 915 117 861 b 93 447 117 750 97 514 b 83 140 86 385 83 219 b 82 83 82 117 82 99 b 88 22 82 49 85 35 b 126 -17 92 4 89 -17 b 261 -14 164 -17 228 -14 b 354 -8 294 -14 339 -8 b 381 14 368 -8 381 -6 b 381 17 381 14 381 15 b 375 150 381 39 375 110 b 369 488 375 192 369 392 b 365 690 369 536 367 618 z "},"Ŋ":{"ha":939,"x_min":0,"x_max":0,"o":"m 732 982 l 726 849 b 729 649 726 797 729 694 b 726 494 728 610 726 554 b 726 453 726 481 726 467 l 732 317 l 735 236 l 692 321 b 622 457 668 369 639 422 b 468 792 589 524 501 722 b 382 978 435 863 393 956 b 314 1006 371 999 354 1006 b 196 1004 275 1006 218 1004 b 160 1007 188 1004 174 1007 b 121 969 142 1007 124 1001 b 117 806 117 915 117 861 b 93 447 117 750 97 514 b 86 313 89 415 88 356 b 85 267 86 292 86 276 b 83 222 83 257 83 243 b 82 165 82 199 82 181 b 88 104 82 131 85 117 b 126 65 92 86 89 65 b 261 68 164 65 228 68 b 354 74 294 68 339 74 b 381 96 368 74 381 76 b 381 99 381 96 381 97 b 375 232 381 121 375 192 b 372 311 375 253 374 261 b 369 488 371 361 369 439 b 365 690 369 536 367 618 l 361 822 l 401 750 b 464 629 424 710 449 661 b 618 294 493 564 589 350 l 679 150 b 693 40 689 126 693 90 b 592 -189 693 -94 674 -178 b 496 -67 532 -185 506 -143 b 453 -33 493 -51 479 -40 b 369 -28 426 -28 399 -26 b 321 -76 340 -31 325 -47 b 376 -212 336 -139 356 -185 b 475 -282 397 -240 431 -264 b 594 -310 519 -300 560 -310 b 793 -215 668 -310 750 -269 b 853 -57 838 -164 853 -101 b 850 131 851 43 851 106 b 847 265 850 181 847 233 b 839 515 847 318 839 435 b 840 556 839 531 840 543 b 844 956 840 628 844 929 b 847 983 844 967 847 976 b 829 996 847 992 844 996 b 781 999 803 996 797 994 b 753 1003 774 1000 763 1003 b 732 982 742 1003 732 999 z "},"Ñ":{"ha":939,"x_min":0,"x_max":0,"o":"m 757 1093 l 757 1114 b 717 1149 754 1125 769 1146 b 628 1154 690 1153 661 1154 b 463 1143 556 1154 501 1150 b 363 1131 424 1136 401 1131 b 283 1150 319 1139 294 1150 b 274 1143 278 1150 275 1149 b 271 1111 271 1133 271 1121 b 271 1093 271 1104 271 1097 b 363 1061 271 1081 278 1061 b 488 1072 417 1061 439 1068 b 633 1088 536 1076 568 1086 b 725 1071 667 1088 699 1071 b 757 1093 746 1071 757 1078 z m 365 690 l 361 822 l 401 750 b 464 629 424 710 449 661 b 618 294 493 564 589 350 b 732 22 644 239 721 47 b 764 -6 747 -4 749 -4 b 811 -4 775 -7 794 -4 b 828 -6 818 -4 824 -4 b 854 19 840 -7 854 -6 b 854 22 854 19 854 21 b 847 265 854 49 847 204 b 839 515 847 318 839 435 b 840 556 839 531 840 543 b 844 956 840 628 844 929 b 847 983 844 967 847 976 b 829 996 847 992 844 996 b 781 999 803 996 797 994 b 753 1003 774 1000 763 1003 b 732 982 742 1003 732 999 l 726 849 b 729 649 726 797 729 694 b 726 494 728 610 726 554 b 726 453 726 481 726 467 l 732 317 l 735 236 l 692 321 b 622 457 668 369 639 422 b 468 792 589 524 501 722 b 382 978 435 863 393 956 b 314 1006 371 999 354 1006 b 196 1004 275 1006 218 1004 b 160 1007 188 1004 174 1007 b 121 969 142 1007 124 1001 b 117 806 117 915 117 861 b 93 447 117 750 97 514 b 83 140 86 385 83 219 b 82 83 82 117 82 99 b 88 22 82 49 85 35 b 126 -17 92 4 89 -17 b 261 -14 164 -17 228 -14 b 354 -8 294 -14 339 -8 b 381 14 368 -8 381 -6 b 381 17 381 14 381 15 b 375 150 381 39 375 110 b 369 488 375 192 369 392 b 365 690 369 536 367 618 z "},"O":{"ha":756,"x_min":0,"x_max":0,"o":"m 379 992 b 60 496 257 992 60 896 b 389 -31 60 346 83 -31 b 696 476 607 -31 696 275 b 379 992 696 679 681 992 z m 378 322 b 318 451 322 322 318 396 b 388 603 318 511 336 603 b 451 464 428 603 451 535 b 378 322 451 394 432 322 z "},"Ó":{"ha":706,"x_min":0,"x_max":0,"o":"m 435 1146 l 404 1135 b 319 1103 347 1110 339 1114 b 250 1068 306 1099 253 1078 b 247 1054 249 1063 247 1058 b 275 1024 247 1038 263 1028 b 304 1014 286 1017 294 1014 b 349 1026 317 1014 329 1019 b 467 1072 396 1049 419 1057 b 535 1119 482 1076 528 1096 b 511 1158 540 1150 531 1158 b 483 1156 504 1158 494 1157 b 435 1146 472 1156 451 1151 z m 379 992 b 60 496 257 992 60 896 b 389 -31 60 346 83 -31 b 696 476 607 -31 696 275 b 379 992 696 679 681 992 z m 378 322 b 318 451 322 322 318 396 b 388 603 318 511 336 603 b 451 464 428 603 451 535 b 378 322 451 394 432 322 z "},"Ŏ":{"ha":756,"x_min":0,"x_max":0,"o":"m 607 1156 b 561 1164 607 1160 592 1163 b 524 1154 539 1163 526 1158 b 472 1113 522 1136 506 1122 b 388 1100 440 1104 411 1100 b 296 1114 338 1103 307 1107 b 274 1151 286 1121 278 1133 b 233 1165 274 1164 274 1165 b 193 1161 194 1165 193 1165 b 214 1083 194 1138 201 1113 b 251 1046 221 1068 233 1056 b 390 1025 269 1036 317 1029 b 524 1043 456 1025 500 1031 b 578 1076 547 1056 565 1067 b 607 1156 606 1097 607 1144 z m 379 992 b 60 496 257 992 60 896 b 389 -31 60 346 83 -31 b 696 476 607 -31 696 275 b 379 992 696 679 681 992 z m 378 322 b 318 451 322 322 318 396 b 388 603 318 511 336 603 b 451 464 428 603 451 535 b 378 322 451 394 432 322 z "},"Ô":{"ha":706,"x_min":0,"x_max":0,"o":"m 215 1082 l 178 1058 b 168 1042 171 1054 168 1047 b 201 1019 168 1031 179 1019 b 254 1024 219 1019 236 1021 b 333 1053 293 1035 313 1042 l 397 1082 l 442 1061 b 490 1036 457 1051 472 1043 l 528 1026 b 565 1017 543 1021 556 1017 b 588 1038 576 1017 583 1022 b 540 1085 592 1056 551 1078 b 447 1144 503 1108 485 1118 b 394 1165 424 1157 415 1165 b 379 1164 389 1165 385 1165 b 354 1158 372 1164 364 1163 b 282 1122 339 1154 314 1140 b 215 1082 240 1090 229 1089 z m 379 992 b 60 496 257 992 60 896 b 389 -31 60 346 83 -31 b 696 476 607 -31 696 275 b 379 992 696 679 681 992 z m 378 322 b 318 451 322 322 318 396 b 388 603 318 511 336 603 b 451 464 428 603 451 535 b 378 322 451 394 432 322 z "},"Ö":{"ha":706,"x_min":0,"x_max":0,"o":"m 472 1081 b 547 1006 472 1047 488 1006 b 635 1081 607 1006 635 1043 b 575 1167 635 1124 613 1167 b 472 1081 538 1167 472 1157 z m 321 1086 b 229 1157 321 1135 272 1157 b 154 1081 186 1157 154 1118 b 235 1000 154 1031 197 1000 b 321 1086 268 1000 321 1031 z m 379 992 b 60 496 257 992 60 896 b 389 -31 60 346 83 -31 b 696 476 607 -31 696 275 b 379 992 696 679 681 992 z m 378 322 b 318 451 322 322 318 396 b 388 603 318 511 336 603 b 451 464 428 603 451 535 b 378 322 451 394 432 322 z "},"Ọ":{"ha":756,"x_min":0,"x_max":0,"o":"m 379 992 b 60 496 257 992 60 896 b 76 308 60 446 64 365 b 108 219 83 281 94 251 b 389 25 154 125 236 25 b 624 188 500 25 574 111 b 696 476 672 254 697 369 b 379 992 696 679 681 992 z m 378 322 b 318 451 322 322 318 396 b 388 603 318 511 336 603 b 451 464 428 603 451 535 b 378 322 451 394 432 322 z m 468 -106 b 371 -31 468 -57 417 -31 b 292 -112 326 -31 292 -72 b 376 -197 292 -164 338 -197 b 468 -106 413 -197 468 -167 z "},"Ò":{"ha":706,"x_min":0,"x_max":0,"o":"m 397 1046 l 428 1035 b 476 1029 446 1031 465 1028 b 529 1049 508 1025 529 1024 b 526 1067 529 1054 528 1060 b 457 1113 519 1093 472 1106 b 338 1153 408 1124 386 1132 b 294 1164 319 1158 307 1164 b 264 1153 285 1164 276 1160 b 238 1122 251 1147 238 1139 b 242 1107 238 1118 239 1113 b 311 1075 246 1096 296 1079 b 397 1046 329 1064 342 1071 z m 379 992 b 60 496 257 992 60 896 b 389 -31 60 346 83 -31 b 696 476 607 -31 696 275 b 379 992 696 679 681 992 z m 378 322 b 318 451 322 322 318 396 b 388 603 318 511 336 603 b 451 464 428 603 451 535 b 378 322 451 394 432 322 z "},"Ő":{"ha":756,"x_min":0,"x_max":0,"o":"m 365 1153 l 335 1142 b 250 1110 278 1117 269 1121 b 181 1075 236 1106 183 1085 b 178 1061 179 1069 178 1065 b 206 1031 178 1044 193 1035 b 235 1021 217 1024 225 1021 b 279 1033 247 1021 260 1026 b 397 1079 326 1056 350 1064 b 465 1126 413 1083 458 1103 b 442 1165 471 1157 461 1165 b 414 1163 435 1165 425 1164 b 365 1153 403 1163 382 1158 z m 640 1153 l 610 1142 b 525 1110 553 1117 544 1121 b 456 1075 511 1106 458 1085 b 453 1061 454 1069 453 1065 b 481 1031 453 1044 468 1035 b 510 1021 492 1024 500 1021 b 554 1033 522 1021 535 1026 b 672 1079 601 1056 625 1064 b 740 1126 688 1083 733 1103 b 717 1165 746 1157 736 1165 b 689 1163 710 1165 700 1164 b 640 1153 678 1163 657 1158 z m 379 992 b 60 496 257 992 60 896 b 389 -31 60 346 83 -31 b 696 476 607 -31 696 275 b 379 992 696 679 681 992 z m 378 322 b 318 451 322 322 318 396 b 388 603 318 511 336 603 b 451 464 428 603 451 535 b 378 322 451 394 432 322 z "},"Ō":{"ha":756,"x_min":0,"x_max":0,"o":"m 581 1154 l 208 1154 b 193 1128 196 1154 193 1146 l 193 1090 b 204 1072 193 1081 193 1072 b 275 1076 211 1076 264 1076 l 458 1076 b 575 1072 492 1076 550 1072 b 606 1090 601 1072 606 1078 l 606 1132 b 590 1156 606 1144 606 1156 b 581 1154 588 1156 585 1154 z m 379 992 b 60 496 257 992 60 896 b 389 -31 60 346 83 -31 b 696 476 607 -31 696 275 b 379 992 696 679 681 992 z m 378 322 b 318 451 322 322 318 396 b 388 603 318 511 336 603 b 451 464 428 603 451 535 b 378 322 451 394 432 322 z "},"Ǫ":{"ha":756,"x_min":0,"x_max":0,"o":"m 542 -103 b 432 -135 529 -103 517 -140 b 404 -78 413 -133 404 -112 b 406 -53 404 -69 404 -61 l 408 -29 b 696 476 613 -11 696 281 b 379 992 696 679 681 992 b 60 496 257 992 60 896 b 332 -26 60 356 81 18 b 318 -62 328 -35 324 -47 b 306 -126 310 -87 306 -108 b 419 -237 310 -219 351 -239 b 569 -137 469 -235 569 -175 b 542 -103 569 -124 553 -103 z m 388 603 b 451 464 428 603 451 535 b 378 322 451 394 432 322 b 318 451 322 322 318 396 b 388 603 318 511 336 603 z "},"Ø":{"ha":799,"x_min":0,"x_max":0,"o":"m 707 896 b 736 985 731 931 750 981 b 674 990 725 989 686 990 b 611 917 657 985 629 951 l 610 914 b 403 992 563 961 497 992 b 83 496 281 992 83 896 b 158 124 83 408 92 244 l 97 21 b 68 -19 67 -21 83 -4 b 63 -36 65 -26 63 -32 b 82 -49 63 -42 67 -46 b 117 -54 90 -51 104 -54 b 153 -43 131 -54 143 -51 b 193 1 169 -33 181 -31 b 215 46 196 8 204 24 b 413 -31 263 -1 326 -31 b 719 476 631 -31 719 275 b 667 829 719 583 715 722 z m 251 436 b 415 792 251 575 293 792 b 507 726 453 792 483 767 l 504 722 b 278 339 471 671 331 429 l 258 301 b 251 436 253 346 251 393 z m 392 133 b 296 186 347 133 317 154 l 371 314 b 546 624 400 357 497 535 b 564 465 558 575 564 521 b 392 133 564 304 519 133 z "},"Ǿ":{"ha":799,"x_min":0,"x_max":0,"o":"m 447 1153 l 417 1142 b 332 1110 360 1117 351 1121 b 263 1075 318 1106 265 1085 b 260 1061 261 1069 260 1065 b 288 1031 260 1044 275 1035 b 317 1021 299 1024 307 1021 b 361 1033 329 1021 342 1026 b 479 1079 408 1056 432 1064 b 547 1126 494 1083 540 1103 b 524 1165 553 1157 543 1165 b 496 1163 517 1165 507 1164 b 447 1153 485 1163 464 1158 z m 707 896 b 736 985 731 931 750 981 b 674 990 725 989 686 990 b 611 917 657 985 629 951 l 610 914 b 403 992 563 961 497 992 b 83 496 281 992 83 896 b 158 124 83 408 92 244 l 97 21 b 68 -19 67 -21 83 -4 b 63 -36 65 -26 63 -32 b 82 -49 63 -42 67 -46 b 117 -54 90 -51 104 -54 b 153 -43 131 -54 143 -51 b 193 1 169 -33 181 -31 b 215 46 196 8 204 24 b 413 -31 263 -1 326 -31 b 719 476 631 -31 719 275 b 667 829 719 583 715 722 z m 251 436 b 415 792 251 575 293 792 b 507 726 453 792 483 767 l 504 722 b 278 339 471 671 331 429 l 258 301 b 251 436 253 346 251 393 z m 392 133 b 296 186 347 133 317 154 l 371 314 b 546 624 400 357 497 535 b 564 465 558 575 564 521 b 392 133 564 304 519 133 z "},"Õ":{"ha":706,"x_min":0,"x_max":0,"o":"m 621 1093 l 621 1114 b 581 1149 618 1125 633 1146 b 492 1154 554 1153 525 1154 b 326 1143 419 1154 365 1150 b 226 1131 288 1136 265 1131 b 147 1150 183 1139 158 1150 b 138 1143 142 1150 139 1149 b 135 1111 135 1133 135 1121 b 135 1093 135 1104 135 1097 b 226 1061 135 1081 142 1061 b 351 1072 281 1061 303 1068 b 497 1088 400 1076 432 1086 b 589 1071 531 1088 563 1071 b 621 1093 610 1071 621 1078 z m 379 992 b 60 496 257 992 60 896 b 389 -31 60 346 83 -31 b 696 476 607 -31 696 275 b 379 992 696 679 681 992 z m 378 322 b 318 451 322 322 318 396 b 388 603 318 511 336 603 b 451 464 428 603 451 535 b 378 322 451 394 432 322 z "},"Œ":{"ha":1251,"x_min":0,"x_max":0,"o":"m 713 183 l 713 322 b 721 321 714 321 717 321 b 739 319 724 319 729 319 b 903 331 754 319 814 331 b 989 329 946 331 975 331 b 1028 328 1004 328 1017 328 b 1053 324 1038 328 1047 324 b 1065 346 1061 324 1065 328 b 1064 433 1065 381 1064 389 b 1067 476 1064 460 1067 467 b 1049 493 1067 486 1064 493 b 981 497 1033 493 1014 497 l 928 494 b 847 492 900 493 874 492 b 750 493 808 492 774 492 b 713 494 736 493 724 493 b 711 521 713 503 711 511 l 711 525 l 711 607 b 715 763 711 664 715 707 b 729 782 715 776 717 782 b 803 781 738 782 769 781 b 876 783 829 781 856 782 b 911 785 889 785 900 785 b 1006 782 943 785 972 782 b 1126 778 1064 782 1106 782 b 1157 771 1135 776 1147 771 b 1176 792 1167 771 1175 775 b 1181 832 1181 815 1181 825 b 1181 842 1181 836 1181 839 b 1175 935 1181 879 1175 908 b 1146 974 1175 961 1172 974 b 992 979 1119 974 1049 979 b 797 967 965 979 851 967 b 689 971 735 967 710 971 b 668 972 682 971 675 972 b 642 942 653 972 642 968 l 639 839 b 383 992 592 926 508 992 b 76 485 165 992 76 686 b 393 -31 76 282 92 -31 b 599 67 454 -31 533 -6 b 635 117 611 81 624 97 b 638 72 636 97 638 86 b 639 21 638 56 638 36 b 650 -3 639 8 638 -3 b 658 -1 653 -3 656 -1 b 878 4 676 -1 811 4 b 1108 1 951 4 1056 1 b 1175 32 1153 1 1175 -7 b 1176 129 1175 72 1176 101 b 1178 157 1176 138 1178 149 b 1150 186 1178 174 1174 186 b 1035 185 1128 186 1083 185 b 931 188 992 186 963 188 b 767 186 868 188 799 186 b 728 185 751 186 738 185 b 713 183 722 183 717 183 z m 413 322 b 326 485 349 322 326 417 b 401 621 326 542 332 621 b 492 469 467 621 492 544 b 413 322 492 396 463 322 z "},"P":{"ha":722,"x_min":0,"x_max":0,"o":"m 493 974 b 353 978 449 976 399 978 b 200 975 279 978 215 975 b 113 978 165 975 125 976 b 96 942 103 979 96 971 b 99 906 96 932 97 921 b 100 846 100 896 100 875 b 89 222 100 683 89 272 b 86 50 89 164 86 76 b 122 4 86 24 89 0 b 211 10 146 7 186 10 b 235 8 222 10 231 10 b 281 46 253 0 288 17 b 276 242 276 61 276 153 b 279 415 276 293 278 351 b 363 422 308 417 336 419 b 489 431 407 426 460 431 b 715 679 549 431 715 472 b 493 974 715 886 607 967 z m 347 535 l 282 539 l 279 593 b 282 703 278 625 278 665 b 289 814 286 740 288 781 b 290 872 290 833 290 853 b 454 856 313 874 369 872 b 590 671 539 839 590 789 b 450 531 590 551 499 531 b 347 535 424 531 385 531 z "},"Þ":{"ha":721,"x_min":0,"x_max":0,"o":"m 203 6 l 267 6 b 276 38 274 7 276 17 b 275 68 276 46 276 56 b 274 144 275 93 274 118 b 275 221 274 169 275 196 b 361 221 285 221 318 221 b 496 224 403 221 454 221 b 718 518 610 231 718 311 b 492 767 718 725 551 767 b 365 775 463 767 410 771 b 282 782 339 778 311 781 b 279 881 279 826 279 858 b 283 935 279 914 281 926 b 238 972 290 964 256 981 b 214 971 233 971 225 971 b 125 976 189 971 149 974 b 89 931 92 981 89 957 b 92 758 89 904 92 817 b 103 135 92 708 103 297 b 101 75 103 106 103 85 b 99 38 100 60 99 47 b 114 3 99 11 104 3 b 203 6 124 3 167 6 z m 282 604 l 285 658 l 350 663 b 453 667 388 667 426 667 b 593 526 501 667 593 646 b 457 342 593 408 542 358 b 293 325 372 325 315 324 b 292 383 293 344 293 364 b 285 494 290 417 289 457 b 282 604 281 532 281 572 z "},"Q":{"ha":929,"x_min":0,"x_max":0,"o":"m 854 36 b 750 154 839 49 794 100 b 844 564 832 288 844 478 b 449 986 844 708 774 986 b 58 453 286 986 58 893 b 115 225 65 368 83 292 b 482 -1 169 111 275 -1 b 689 78 571 -1 639 29 b 717 39 703 60 713 47 b 778 1 735 10 746 1 b 863 3 810 1 850 4 b 874 10 868 3 874 4 b 854 36 874 15 868 24 z m 536 283 l 639 146 b 468 74 594 101 539 74 b 124 504 258 74 124 208 b 447 908 124 800 364 908 b 769 494 725 908 769 663 b 696 219 769 410 746 304 b 653 275 674 246 657 265 b 599 328 639 300 639 332 b 521 321 558 324 531 321 b 536 283 511 321 515 311 z "},"R":{"ha":760,"x_min":0,"x_max":0,"o":"m 583 256 l 486 432 b 550 504 510 453 532 478 b 615 699 582 550 615 615 b 303 986 615 860 519 986 b 119 972 221 986 135 972 b 89 929 106 972 89 978 b 90 899 89 921 89 910 b 96 644 93 856 96 746 b 89 449 96 557 94 476 b 85 372 86 435 85 407 b 96 40 85 260 96 72 b 94 8 96 28 94 17 b 125 -22 94 -11 99 -22 b 304 -11 161 -22 271 -7 b 344 13 331 -15 344 -10 b 343 26 344 17 344 21 b 329 232 339 42 333 140 b 318 411 325 286 322 346 l 389 274 b 485 86 426 199 467 119 b 544 -14 518 21 521 -14 b 701 -10 568 -14 679 -10 b 728 -1 715 -10 728 -11 b 708 39 728 6 722 17 b 583 256 689 67 635 164 z m 310 596 b 308 607 310 600 308 603 b 310 619 308 611 310 615 b 315 668 310 635 311 650 b 315 746 319 703 311 742 b 342 757 322 753 332 757 b 386 678 364 757 386 736 b 347 604 386 635 368 614 b 310 596 336 599 324 596 z "},"Ŕ":{"ha":674,"x_min":0,"x_max":0,"o":"m 363 1146 l 332 1135 b 247 1103 275 1110 267 1114 b 178 1068 233 1099 181 1078 b 175 1054 176 1063 175 1058 b 203 1024 175 1038 190 1028 b 232 1014 214 1017 222 1014 b 276 1026 244 1014 257 1019 b 394 1072 324 1049 347 1057 b 463 1119 410 1076 456 1096 b 439 1158 468 1150 458 1158 b 411 1156 432 1158 422 1157 b 363 1146 400 1156 379 1151 z m 583 256 l 486 432 b 550 504 510 453 532 478 b 615 699 582 550 615 615 b 303 986 615 860 519 986 b 119 972 221 986 135 972 b 89 929 106 972 89 978 b 90 899 89 921 89 910 b 96 644 93 856 96 746 b 89 449 96 557 94 476 b 85 372 86 435 85 407 b 96 40 85 260 96 72 b 94 8 96 28 94 17 b 125 -22 94 -11 99 -22 b 304 -11 161 -22 271 -7 b 344 13 331 -15 344 -10 b 343 26 344 17 344 21 b 329 232 339 42 333 140 b 318 411 325 286 322 346 l 389 274 b 485 86 426 199 467 119 b 544 -14 518 21 521 -14 b 701 -10 568 -14 679 -10 b 728 -1 715 -10 728 -11 b 708 39 728 6 722 17 b 583 256 689 67 635 164 z m 310 596 b 308 607 310 600 308 603 b 310 619 308 611 310 615 b 315 668 310 635 311 650 b 315 746 319 703 311 742 b 342 757 322 753 332 757 b 386 678 364 757 386 736 b 347 604 386 635 368 614 b 310 596 336 599 324 596 z "},"Ř":{"ha":674,"x_min":0,"x_max":0,"o":"m 493 1096 l 529 1119 b 540 1136 536 1124 540 1131 b 507 1158 540 1147 529 1158 b 454 1154 489 1158 472 1157 b 374 1125 415 1143 396 1136 b 311 1096 364 1119 343 1110 l 267 1117 b 218 1142 251 1126 236 1135 l 181 1151 b 143 1161 165 1157 153 1161 b 121 1140 132 1161 125 1156 b 168 1093 117 1122 157 1100 b 261 1033 206 1069 224 1060 b 314 1013 285 1021 293 1013 b 329 1014 319 1013 324 1013 b 354 1019 336 1014 344 1015 b 426 1056 369 1024 394 1038 b 493 1096 468 1088 479 1089 z m 583 256 l 486 432 b 550 504 510 453 532 478 b 615 699 582 550 615 615 b 303 986 615 860 519 986 b 119 972 221 986 135 972 b 89 929 106 972 89 978 b 90 899 89 921 89 910 b 96 644 93 856 96 746 b 89 449 96 557 94 476 b 85 372 86 435 85 407 b 96 40 85 260 96 72 b 94 8 96 28 94 17 b 125 -22 94 -11 99 -22 b 304 -11 161 -22 271 -7 b 344 13 331 -15 344 -10 b 343 26 344 17 344 21 b 329 232 339 42 333 140 b 318 411 325 286 322 346 l 389 274 b 485 86 426 199 467 119 b 544 -14 518 21 521 -14 b 701 -10 568 -14 679 -10 b 728 -1 715 -10 728 -11 b 708 39 728 6 722 17 b 583 256 689 67 635 164 z m 310 596 b 308 607 310 600 308 603 b 310 619 308 611 310 615 b 315 668 310 635 311 650 b 315 746 319 703 311 742 b 342 757 322 753 332 757 b 386 678 364 757 386 736 b 347 604 386 635 368 614 b 310 596 336 599 324 596 z "},"Ŗ":{"ha":674,"x_min":0,"x_max":0,"o":"m 583 256 l 486 432 b 550 504 510 453 532 478 b 615 699 582 550 615 615 b 303 986 615 860 519 986 b 119 972 221 986 135 972 b 89 929 106 972 89 978 b 90 899 89 921 89 910 b 96 644 93 856 96 746 b 89 449 96 557 94 476 b 85 372 86 435 85 407 b 96 40 85 260 96 72 b 94 8 96 28 94 17 b 125 -22 94 -11 99 -22 b 304 -11 161 -22 271 -7 b 344 13 331 -15 344 -10 b 343 26 344 17 344 21 b 329 232 339 42 333 140 b 318 411 325 286 322 346 l 389 274 b 485 86 426 199 467 119 b 544 -14 518 21 521 -14 b 701 -10 568 -14 679 -10 b 728 -1 715 -10 728 -11 b 708 39 728 6 722 17 b 583 256 689 67 635 164 z m 310 596 b 308 607 310 600 308 603 b 310 619 308 611 310 615 b 315 668 310 635 311 650 b 315 746 319 703 311 742 b 342 757 322 753 332 757 b 386 678 364 757 386 736 b 347 604 386 635 368 614 b 310 596 336 599 324 596 z m 468 -57 l 390 -57 b 369 -71 381 -57 371 -61 l 360 -99 l 349 -143 l 306 -279 b 314 -293 306 -286 303 -293 b 358 -294 321 -294 336 -294 b 400 -293 382 -294 396 -294 b 411 -275 406 -289 410 -279 b 418 -244 411 -271 414 -260 b 438 -186 421 -237 428 -218 l 454 -133 b 468 -92 460 -115 467 -101 b 475 -68 472 -85 474 -79 b 468 -57 481 -58 475 -57 z "},"Ṛ":{"ha":760,"x_min":0,"x_max":0,"o":"m 583 256 l 486 432 b 550 504 510 453 532 478 b 615 699 582 550 615 615 b 303 986 615 860 519 986 b 119 972 221 986 135 972 b 89 929 106 972 89 978 b 90 899 89 921 89 910 b 96 644 93 856 96 746 b 89 449 96 557 94 476 b 85 372 86 435 85 407 b 96 40 85 260 96 72 b 94 8 96 28 94 17 b 125 -22 94 -11 99 -22 b 304 -11 161 -22 271 -7 b 344 13 331 -15 344 -10 b 343 26 344 17 344 21 b 329 232 339 42 333 140 b 318 411 325 286 322 346 l 389 274 b 485 86 426 199 467 119 b 544 -14 518 21 521 -14 b 701 -10 568 -14 679 -10 b 728 -1 715 -10 728 -11 b 708 39 728 6 722 17 b 583 256 689 67 635 164 z m 310 596 b 308 607 310 600 308 603 b 310 619 308 611 310 615 b 315 668 310 635 311 650 b 315 746 319 703 311 742 b 342 757 322 753 332 757 b 386 678 364 757 386 736 b 347 604 386 635 368 614 b 310 596 336 599 324 596 z m 522 -106 b 425 -31 522 -57 471 -31 b 346 -112 381 -31 346 -72 b 431 -197 346 -164 392 -197 b 522 -106 467 -197 522 -167 z "},"S":{"ha":800,"x_min":0,"x_max":0,"o":"m 372 996 b 68 704 271 996 68 883 b 321 417 68 525 258 461 b 472 213 383 372 472 299 b 342 117 472 128 392 117 b 156 199 233 117 171 183 b 126 225 144 210 136 225 b 115 219 122 225 119 224 b 63 160 100 204 74 175 b 51 142 56 151 51 147 b 57 128 51 138 53 133 b 368 -29 69 115 142 -29 b 744 238 594 -29 744 54 b 474 610 744 514 539 581 b 311 767 410 636 311 675 b 400 863 311 860 364 863 b 643 719 501 863 629 719 b 671 743 658 719 658 728 b 719 813 686 760 710 800 b 728 832 724 821 728 826 b 722 844 728 836 726 840 b 372 996 711 856 582 996 z "},"Ś":{"ha":800,"x_min":0,"x_max":0,"o":"m 461 1153 l 431 1142 b 346 1110 374 1117 365 1121 b 276 1075 332 1106 279 1085 b 274 1061 275 1069 274 1065 b 301 1031 274 1044 289 1035 b 331 1021 313 1024 321 1021 b 375 1033 343 1021 356 1026 b 493 1079 422 1056 446 1064 b 561 1126 508 1083 554 1103 b 538 1165 567 1157 557 1165 b 510 1163 531 1165 521 1164 b 461 1153 499 1163 478 1158 z m 372 996 b 68 704 271 996 68 883 b 321 417 68 525 258 461 b 472 213 383 372 472 299 b 342 117 472 128 392 117 b 156 199 233 117 171 183 b 126 225 144 210 136 225 b 115 219 122 225 119 224 b 63 160 100 204 74 175 b 51 142 56 151 51 147 b 57 128 51 138 53 133 b 368 -29 69 115 142 -29 b 744 238 594 -29 744 54 b 474 610 744 514 539 581 b 311 767 410 636 311 675 b 400 863 311 860 364 863 b 643 719 501 863 629 719 b 671 743 658 719 658 728 b 719 813 686 760 710 800 b 728 832 724 821 728 826 b 722 844 728 836 726 840 b 372 996 711 856 582 996 z "},"Š":{"ha":800,"x_min":0,"x_max":0,"o":"m 604 1099 l 640 1122 b 651 1139 647 1126 651 1133 b 618 1161 651 1150 640 1161 b 565 1157 600 1161 583 1160 b 485 1128 526 1146 507 1139 b 422 1099 475 1122 454 1113 l 378 1119 b 329 1144 363 1129 347 1138 l 292 1154 b 254 1164 276 1160 264 1164 b 232 1143 243 1164 236 1158 b 279 1096 228 1125 268 1103 b 372 1036 317 1072 335 1063 b 425 1015 396 1024 404 1015 b 440 1017 431 1015 435 1015 b 465 1022 447 1017 456 1018 b 538 1058 481 1026 506 1040 b 604 1099 579 1090 590 1092 z m 372 996 b 68 704 271 996 68 883 b 321 417 68 525 258 461 b 472 213 383 372 472 299 b 342 117 472 128 392 117 b 156 199 233 117 171 183 b 126 225 144 210 136 225 b 115 219 122 225 119 224 b 63 160 100 204 74 175 b 51 142 56 151 51 147 b 57 128 51 138 53 133 b 368 -29 69 115 142 -29 b 744 238 594 -29 744 54 b 474 610 744 514 539 581 b 311 767 410 636 311 675 b 400 863 311 860 364 863 b 643 719 501 863 629 719 b 671 743 658 719 658 728 b 719 813 686 760 710 800 b 728 832 724 821 728 826 b 722 844 728 836 726 840 b 372 996 711 856 582 996 z "},"Ş":{"ha":800,"x_min":0,"x_max":0,"o":"m 747 276 b 475 629 747 538 542 603 b 313 778 413 656 313 693 b 401 869 313 867 365 869 b 646 733 501 869 632 733 b 674 756 661 733 661 743 b 722 822 689 772 713 810 b 731 842 726 829 731 835 b 725 853 731 844 729 849 b 374 996 711 861 586 996 b 68 719 272 996 68 888 b 322 446 68 547 258 490 b 474 253 385 406 474 335 b 343 163 474 172 393 163 b 156 240 235 163 171 225 b 125 264 143 250 135 264 b 115 260 122 264 118 263 b 63 203 100 244 74 218 b 51 186 56 194 51 192 b 57 172 51 182 53 178 b 369 24 69 160 142 24 b 356 -25 363 4 358 -11 b 346 -75 350 -47 346 -51 b 389 -86 347 -85 356 -86 b 435 -67 399 -86 414 -67 b 468 -112 461 -67 468 -86 b 411 -149 460 -147 447 -146 b 358 -140 388 -149 376 -146 b 325 -122 340 -131 331 -122 b 321 -128 322 -122 321 -124 b 310 -196 314 -160 310 -181 b 403 -222 310 -211 360 -222 b 490 -208 465 -222 475 -215 b 511 -193 497 -204 504 -200 b 554 -118 526 -181 553 -162 b 468 -21 554 -42 514 -21 b 401 -33 425 -21 419 -24 b 435 26 407 -14 417 1 b 747 276 625 40 747 119 z "},"Ŝ":{"ha":800,"x_min":0,"x_max":0,"o":"m 249 1081 l 211 1057 b 201 1040 204 1053 201 1046 b 235 1018 201 1029 213 1018 b 288 1022 253 1018 269 1019 b 367 1051 326 1033 346 1040 l 431 1081 l 475 1060 b 524 1035 490 1050 506 1042 l 561 1025 b 599 1015 576 1019 589 1015 b 621 1036 610 1015 617 1021 b 574 1083 625 1054 585 1076 b 481 1143 536 1107 518 1117 b 428 1164 457 1156 449 1164 b 413 1163 422 1164 418 1164 b 388 1157 406 1163 397 1161 b 315 1121 372 1153 347 1139 b 249 1081 274 1089 263 1088 z m 372 996 b 68 704 271 996 68 883 b 321 417 68 525 258 461 b 472 213 383 372 472 299 b 342 117 472 128 392 117 b 156 199 233 117 171 183 b 126 225 144 210 136 225 b 115 219 122 225 119 224 b 63 160 100 204 74 175 b 51 142 56 151 51 147 b 57 128 51 138 53 133 b 368 -29 69 115 142 -29 b 744 238 594 -29 744 54 b 474 610 744 514 539 581 b 311 767 410 636 311 675 b 400 863 311 860 364 863 b 643 719 501 863 629 719 b 671 743 658 719 658 728 b 719 813 686 760 710 800 b 728 832 724 821 728 826 b 722 844 728 836 726 840 b 372 996 711 856 582 996 z "},"Ș":{"ha":800,"x_min":0,"x_max":0,"o":"m 372 996 b 68 704 271 996 68 883 b 321 417 68 525 258 461 b 472 213 383 372 472 299 b 342 117 472 128 392 117 b 156 199 233 117 171 183 b 126 225 144 210 136 225 b 115 219 122 225 119 224 b 63 160 100 204 74 175 b 51 142 56 151 51 147 b 57 128 51 138 53 133 b 368 -29 69 115 142 -29 b 744 238 594 -29 744 54 b 474 610 744 514 539 581 b 311 767 410 636 311 675 b 400 863 311 860 364 863 b 643 719 501 863 629 719 b 671 743 658 719 658 728 b 719 813 686 760 710 800 b 728 832 724 821 728 826 b 722 844 728 836 726 840 b 372 996 711 856 582 996 z m 446 -57 l 368 -57 b 347 -71 358 -57 349 -61 l 338 -99 l 326 -143 l 283 -279 b 292 -293 283 -286 281 -293 b 336 -294 299 -294 314 -294 b 378 -293 360 -294 374 -294 b 389 -275 383 -289 388 -279 b 396 -244 389 -271 392 -260 b 415 -186 399 -237 406 -218 l 432 -133 b 446 -92 438 -115 444 -101 b 453 -68 450 -85 451 -79 b 446 -57 458 -58 453 -57 z "},"Ṣ":{"ha":800,"x_min":0,"x_max":0,"o":"m 374 996 b 68 719 272 996 68 892 b 322 449 68 551 258 490 b 474 256 385 404 474 338 b 343 164 474 174 393 164 b 156 242 235 164 171 226 b 126 267 144 253 136 267 b 115 261 122 267 119 265 b 63 206 100 249 74 218 b 51 188 56 197 51 193 b 57 175 51 183 53 179 b 369 26 69 163 142 26 b 747 279 597 26 747 104 b 475 631 747 539 542 604 b 313 779 411 657 313 692 b 401 869 313 867 365 869 b 646 735 501 869 632 735 b 674 757 661 735 661 742 b 722 822 689 772 713 811 b 731 842 726 831 731 836 b 725 853 731 844 729 849 b 374 996 714 864 585 996 z m 496 -106 b 399 -31 496 -57 444 -31 b 319 -112 354 -31 319 -72 b 404 -197 319 -164 365 -197 b 496 -106 440 -197 496 -167 z "},"ẞ":{"ha":824,"x_min":0,"x_max":0,"o":"m 260 475 l 263 589 b 264 660 263 610 264 633 l 264 754 b 294 846 265 792 275 822 b 392 883 315 871 347 883 b 538 818 469 883 506 865 b 475 739 506 781 485 754 l 440 688 b 401 625 428 668 414 647 b 414 524 401 576 406 542 b 446 465 422 506 433 486 b 542 367 472 425 507 394 b 688 203 614 313 688 272 b 631 99 688 132 663 117 b 549 78 599 81 564 78 b 444 135 513 78 457 115 b 426 154 429 153 431 154 b 424 154 425 154 425 154 b 413 138 419 154 417 147 b 401 96 408 131 401 100 b 406 74 397 89 399 81 b 557 -12 408 64 481 -12 b 790 232 640 -12 790 18 b 749 371 790 303 776 332 b 701 421 736 390 719 407 b 574 543 667 450 625 499 b 508 601 549 564 526 583 b 631 754 553 664 579 704 b 686 838 657 779 676 807 b 538 981 638 922 599 965 b 351 1000 476 996 408 1000 b 221 975 321 1000 278 992 b 96 844 133 938 97 883 b 94 818 96 835 94 826 b 96 796 94 810 96 803 b 97 728 97 783 97 760 b 93 539 97 663 93 600 b 94 381 93 478 94 440 b 86 235 94 321 86 294 b 89 107 86 175 89 128 l 90 33 b 113 6 90 17 86 7 b 196 6 138 4 174 7 b 228 3 208 4 219 3 b 260 35 249 3 260 10 l 258 199 b 263 335 258 247 263 286 b 261 422 263 358 261 393 b 260 475 260 439 260 457 z "},"Ə":{"ha":751,"x_min":0,"x_max":0,"o":"m 349 -44 b 569 63 469 -44 524 0 b 629 167 593 94 614 129 b 667 300 644 206 657 250 b 686 424 676 350 682 392 b 692 500 690 456 692 482 b 682 639 692 554 689 582 b 639 807 675 699 661 758 b 544 925 615 840 588 885 b 340 996 504 965 414 996 b 64 929 218 996 107 968 b 49 892 54 921 49 908 b 64 833 49 876 54 857 b 118 783 85 788 103 771 b 190 815 133 796 157 807 b 317 829 224 825 265 829 b 432 800 369 829 408 819 b 492 744 456 782 476 763 b 542 615 524 710 538 671 b 546 519 546 589 547 557 b 371 525 510 522 453 525 b 315 525 354 525 335 525 b 56 492 142 526 54 515 b 92 125 56 319 68 197 b 199 -12 115 54 151 8 b 349 -44 246 -33 296 -44 z m 544 368 b 546 326 544 357 546 343 b 521 208 546 297 542 258 b 338 89 486 132 472 96 b 240 139 308 89 274 100 b 204 239 225 158 213 192 b 192 363 196 286 192 328 b 403 371 260 368 329 371 b 544 368 449 371 496 371 z "},"T":{"ha":753,"x_min":0,"x_max":0,"o":"m 197 972 l 60 972 b 35 951 49 972 35 974 b 35 942 35 949 35 944 b 36 901 36 935 36 921 b 32 718 36 839 32 731 b 60 686 28 703 33 686 b 306 690 78 686 210 690 b 310 508 306 653 310 565 b 296 47 310 436 296 86 b 318 0 296 8 292 0 l 413 0 b 433 18 426 0 433 -3 b 433 25 433 21 433 22 b 429 429 433 46 429 275 b 431 547 429 481 429 524 l 433 690 l 678 690 b 726 728 710 690 726 703 b 722 833 725 750 722 793 b 726 939 722 892 725 925 b 671 974 728 950 721 975 b 617 972 658 972 640 972 b 376 976 539 972 415 976 b 197 972 325 976 236 972 z "},"Ŧ":{"ha":753,"x_min":0,"x_max":0,"o":"m 197 972 l 60 972 b 35 951 49 972 35 974 b 35 942 35 949 35 944 b 36 901 36 935 36 921 b 32 718 36 839 32 731 b 60 686 28 703 33 686 b 306 690 78 686 210 690 b 310 518 306 654 310 575 l 124 518 b 103 490 107 518 103 508 l 103 450 b 118 431 103 440 103 431 b 211 435 128 433 197 435 l 308 435 b 296 47 304 307 296 78 b 318 0 296 8 292 0 l 413 0 b 433 18 426 0 433 -3 b 433 25 433 21 433 22 b 429 435 433 46 429 281 l 454 435 b 608 431 497 435 575 431 b 649 450 642 431 649 435 l 649 494 b 628 519 649 508 650 519 b 615 518 625 519 621 518 l 429 518 l 431 547 l 433 690 l 678 690 b 726 728 710 690 726 703 b 722 833 725 750 722 793 b 726 939 722 892 725 925 b 671 974 728 950 721 975 b 617 972 658 972 640 972 b 376 976 539 972 415 976 b 197 972 325 976 236 972 z "},"Ť":{"ha":753,"x_min":0,"x_max":0,"o":"m 543 1099 l 579 1122 b 590 1139 586 1126 590 1133 b 557 1161 590 1150 579 1161 b 504 1157 539 1161 522 1160 b 424 1128 465 1146 446 1139 b 361 1099 414 1122 393 1113 l 317 1119 b 268 1144 301 1129 286 1138 l 231 1154 b 193 1164 215 1160 203 1164 b 171 1143 182 1164 175 1158 b 218 1096 167 1125 207 1103 b 311 1036 256 1072 274 1063 b 364 1015 335 1024 343 1015 b 379 1017 369 1015 374 1015 b 404 1022 386 1017 394 1018 b 476 1058 419 1026 444 1040 b 543 1099 518 1090 529 1092 z m 197 972 l 60 972 b 35 951 49 972 35 974 b 35 942 35 949 35 944 b 36 901 36 935 36 921 b 32 718 36 839 32 731 b 60 686 28 703 33 686 b 306 690 78 686 210 690 b 310 508 306 653 310 565 b 296 47 310 436 296 86 b 318 0 296 8 292 0 l 413 0 b 433 18 426 0 433 -3 b 433 25 433 21 433 22 b 429 429 433 46 429 275 b 431 547 429 481 429 524 l 433 690 l 678 690 b 726 728 710 690 726 703 b 722 833 725 750 722 793 b 726 939 722 892 725 925 b 671 974 728 950 721 975 b 617 972 658 972 640 972 b 376 976 539 972 415 976 b 197 972 325 976 236 972 z "},"Ţ":{"ha":753,"x_min":0,"x_max":0,"o":"m 197 972 l 60 972 b 35 951 49 972 35 974 b 35 942 35 949 35 944 b 36 901 36 935 36 921 b 32 718 36 839 32 731 b 60 686 28 703 33 686 b 306 690 78 686 210 690 b 310 508 306 653 310 565 b 303 283 310 479 306 351 b 296 83 300 215 296 96 b 313 36 296 47 292 38 b 294 -25 303 11 297 -8 b 285 -75 289 -47 285 -51 b 328 -86 286 -85 294 -86 b 374 -67 338 -86 353 -67 b 407 -112 400 -67 407 -86 b 350 -149 399 -147 386 -146 b 297 -140 326 -149 315 -146 b 264 -122 279 -131 269 -122 b 260 -128 261 -122 260 -124 b 249 -196 253 -160 249 -181 b 342 -222 249 -211 299 -222 b 429 -208 404 -222 414 -215 b 450 -193 436 -204 443 -200 b 493 -118 465 -181 492 -162 b 407 -21 493 -42 453 -21 b 340 -33 364 -21 358 -24 b 381 36 347 -11 358 6 l 413 36 b 433 54 426 36 433 33 b 433 61 433 57 433 58 b 431 278 433 68 431 197 b 429 476 431 332 429 415 b 431 547 429 508 429 533 l 433 690 l 678 690 b 726 728 710 690 726 703 b 722 833 725 750 722 793 b 726 939 722 892 725 925 b 671 974 728 950 721 975 b 617 972 658 972 640 972 b 376 976 539 972 415 976 b 197 972 325 976 236 972 z "},"Ț":{"ha":753,"x_min":0,"x_max":0,"o":"m 197 972 l 60 972 b 35 951 49 972 35 974 b 35 942 35 949 35 944 b 36 901 36 935 36 921 b 32 718 36 839 32 731 b 60 686 28 703 33 686 b 306 690 78 686 210 690 b 310 508 306 653 310 565 b 296 47 310 436 296 86 b 318 0 296 8 292 0 l 413 0 b 433 18 426 0 433 -3 b 433 25 433 21 433 22 b 429 429 433 46 429 275 b 431 547 429 481 429 524 l 433 690 l 678 690 b 726 728 710 690 726 703 b 722 833 725 750 722 793 b 726 939 722 892 725 925 b 671 974 728 950 721 975 b 617 972 658 972 640 972 b 376 976 539 972 415 976 b 197 972 325 976 236 972 z m 419 -57 l 342 -57 b 321 -71 332 -57 322 -61 l 311 -99 l 300 -143 l 257 -279 b 265 -293 257 -286 254 -293 b 310 -294 272 -294 288 -294 b 351 -293 333 -294 347 -294 b 363 -275 357 -289 361 -279 b 369 -244 363 -271 365 -260 b 389 -186 372 -237 379 -218 l 406 -133 b 419 -92 411 -115 418 -101 b 426 -68 424 -85 425 -79 b 419 -57 432 -58 426 -57 z "},"Ṭ":{"ha":753,"x_min":0,"x_max":0,"o":"m 197 972 l 60 972 b 35 951 49 972 35 974 b 35 942 35 949 35 944 b 36 901 36 935 36 921 b 32 718 36 839 32 731 b 60 686 28 703 33 686 b 306 690 78 686 210 690 b 310 508 306 653 310 565 b 303 265 310 474 306 367 b 296 131 301 197 297 175 l 296 89 b 318 42 296 50 292 42 l 413 42 b 433 60 426 42 433 39 b 433 67 433 63 433 64 l 431 172 l 431 260 b 429 476 431 336 429 417 b 431 547 429 507 429 531 l 433 690 l 678 690 b 726 728 710 690 726 703 b 722 833 725 750 722 793 b 726 939 722 892 725 925 b 671 974 728 950 721 975 b 617 972 658 972 640 972 b 376 976 539 972 415 976 b 197 972 325 976 236 972 z m 454 -106 b 357 -31 454 -57 403 -31 b 278 -112 313 -31 278 -72 b 363 -197 278 -164 324 -197 b 454 -106 399 -197 454 -167 z "},"U":{"ha":678,"x_min":0,"x_max":0,"o":"m 151 960 b 144 975 151 969 150 975 b 119 972 135 975 128 972 b 104 974 114 972 110 974 b 78 942 94 978 78 981 b 79 919 78 935 78 928 b 85 667 82 881 85 763 b 82 538 85 607 85 557 b 78 432 79 519 78 479 b 97 194 78 347 83 240 b 317 4 119 122 183 4 b 601 343 451 4 597 83 b 593 824 606 606 589 775 b 594 868 594 838 594 853 b 592 943 594 899 593 928 b 561 976 590 965 593 976 b 463 976 529 976 478 975 b 424 949 450 976 424 983 b 428 922 424 942 425 933 b 433 826 432 901 433 868 b 426 544 433 738 426 617 b 419 229 426 440 419 264 b 304 119 419 192 397 119 b 147 400 214 119 147 238 b 151 960 147 604 151 1060 z "},"Ú":{"ha":563,"x_min":0,"x_max":0,"o":"m 353 1146 l 322 1135 b 238 1103 265 1110 257 1114 b 168 1068 224 1099 171 1078 b 165 1054 167 1063 165 1058 b 193 1024 165 1038 181 1028 b 222 1014 204 1017 213 1014 b 267 1026 235 1014 247 1019 b 385 1072 314 1049 338 1057 b 453 1119 400 1076 446 1096 b 429 1158 458 1150 449 1158 b 401 1156 422 1158 413 1157 b 353 1146 390 1156 369 1151 z m 151 960 b 144 975 151 969 150 975 b 119 972 135 975 128 972 b 104 974 114 972 110 974 b 78 942 94 978 78 981 b 79 919 78 935 78 928 b 85 667 82 881 85 763 b 82 538 85 607 85 557 b 78 432 79 519 78 479 b 97 194 78 347 83 240 b 317 4 119 122 183 4 b 601 343 451 4 597 83 b 593 824 606 606 589 775 b 594 868 594 838 594 853 b 592 943 594 899 593 928 b 561 976 590 965 593 976 b 463 976 529 976 478 975 b 424 949 450 976 424 983 b 428 922 424 942 425 933 b 433 826 432 901 433 868 b 426 544 433 738 426 617 b 419 229 426 440 419 264 b 304 119 419 192 397 119 b 147 400 214 119 147 238 b 151 960 147 604 151 1060 z "},"Ŭ":{"ha":678,"x_min":0,"x_max":0,"o":"m 525 1156 b 479 1164 525 1160 510 1163 b 442 1154 457 1163 444 1158 b 390 1113 440 1136 424 1122 b 306 1100 358 1104 329 1100 b 214 1114 256 1103 225 1107 b 192 1151 204 1121 196 1133 b 151 1165 192 1164 192 1165 b 111 1161 113 1165 111 1165 b 132 1083 113 1138 119 1113 b 169 1046 139 1068 151 1056 b 308 1025 188 1036 235 1029 b 442 1043 374 1025 418 1031 b 496 1076 465 1056 483 1067 b 525 1156 524 1097 525 1144 z m 151 960 b 144 975 151 969 150 975 b 119 972 135 975 128 972 b 104 974 114 972 110 974 b 78 942 94 978 78 981 b 79 919 78 935 78 928 b 85 667 82 881 85 763 b 82 538 85 607 85 557 b 78 432 79 519 78 479 b 97 194 78 347 83 240 b 317 4 119 122 183 4 b 601 343 451 4 597 83 b 593 824 606 606 589 775 b 594 868 594 838 594 853 b 592 943 594 899 593 928 b 561 976 590 965 593 976 b 463 976 529 976 478 975 b 424 949 450 976 424 983 b 428 922 424 942 425 933 b 433 826 432 901 433 868 b 426 544 433 738 426 617 b 419 229 426 440 419 264 b 304 119 419 192 397 119 b 147 400 214 119 147 238 b 151 960 147 604 151 1060 z "},"Û":{"ha":563,"x_min":0,"x_max":0,"o":"m 167 1081 l 129 1057 b 119 1040 122 1053 119 1046 b 153 1018 119 1029 131 1018 b 206 1022 171 1018 188 1019 b 285 1051 244 1033 264 1040 l 349 1081 l 393 1060 b 442 1035 408 1050 424 1042 l 479 1025 b 517 1015 494 1019 507 1015 b 539 1036 528 1015 535 1021 b 492 1083 543 1054 503 1076 b 399 1143 454 1107 436 1117 b 346 1164 375 1156 367 1164 b 331 1163 340 1164 336 1164 b 306 1157 324 1163 315 1161 b 233 1121 290 1153 265 1139 b 167 1081 192 1089 181 1088 z m 151 960 b 144 975 151 969 150 975 b 119 972 135 975 128 972 b 104 974 114 972 110 974 b 78 942 94 978 78 981 b 79 919 78 935 78 928 b 85 667 82 881 85 763 b 82 538 85 607 85 557 b 78 432 79 519 78 479 b 97 194 78 347 83 240 b 317 4 119 122 183 4 b 601 343 451 4 597 83 b 593 824 606 606 589 775 b 594 868 594 838 594 853 b 592 943 594 899 593 928 b 561 976 590 965 593 976 b 463 976 529 976 478 975 b 424 949 450 976 424 983 b 428 922 424 942 425 933 b 433 826 432 901 433 868 b 426 544 433 738 426 617 b 419 229 426 440 419 264 b 304 119 419 192 397 119 b 147 400 214 119 147 238 b 151 960 147 604 151 1060 z "},"Ü":{"ha":563,"x_min":0,"x_max":0,"o":"m 408 1081 b 483 1006 408 1047 424 1006 b 571 1081 543 1006 571 1043 b 511 1167 571 1124 549 1167 b 408 1081 474 1167 408 1157 z m 257 1086 b 165 1157 257 1135 208 1157 b 90 1081 122 1157 90 1118 b 171 1000 90 1031 133 1000 b 257 1086 204 1000 257 1031 z m 151 960 b 144 975 151 969 150 975 b 119 972 135 975 128 972 b 104 974 114 972 110 974 b 78 942 94 978 78 981 b 79 919 78 935 78 928 b 85 667 82 881 85 763 b 82 538 85 607 85 557 b 78 432 79 519 78 479 b 97 194 78 347 83 240 b 317 4 119 122 183 4 b 601 343 451 4 597 83 b 593 824 606 606 589 775 b 594 868 594 838 594 853 b 592 943 594 899 593 928 b 561 976 590 965 593 976 b 463 976 529 976 478 975 b 424 949 450 976 424 983 b 428 922 424 942 425 933 b 433 826 432 901 433 868 b 426 544 433 738 426 617 b 419 229 426 440 419 264 b 304 119 419 192 397 119 b 147 400 214 119 147 238 b 151 960 147 604 151 1060 z "},"Ụ":{"ha":678,"x_min":0,"x_max":0,"o":"m 151 960 b 144 975 151 969 150 975 b 119 972 135 975 128 972 b 104 974 114 972 110 974 b 78 942 94 978 78 981 b 79 919 78 935 78 928 b 85 667 82 881 85 763 b 82 538 85 607 85 557 b 78 432 79 519 78 479 b 97 194 78 347 83 240 b 317 4 119 122 183 4 b 601 343 451 4 597 83 b 593 824 606 606 589 775 b 594 868 594 838 594 853 b 592 943 594 899 593 928 b 561 976 590 965 593 976 b 463 976 529 976 478 975 b 424 949 450 976 424 983 b 428 922 424 942 425 933 b 433 826 432 901 433 868 b 426 544 433 738 426 617 b 419 229 426 440 419 264 b 304 119 419 192 397 119 b 147 400 214 119 147 238 b 151 960 147 604 151 1060 z m 413 -106 b 315 -31 413 -57 361 -31 b 236 -112 271 -31 236 -72 b 321 -197 236 -164 282 -197 b 413 -106 357 -197 413 -167 z "},"Ù":{"ha":563,"x_min":0,"x_max":0,"o":"m 260 1046 l 290 1035 b 339 1029 308 1031 328 1028 b 392 1049 371 1025 392 1024 b 389 1067 392 1054 390 1060 b 319 1113 382 1093 335 1106 b 200 1153 271 1124 249 1132 b 157 1164 182 1158 169 1164 b 126 1153 147 1164 139 1160 b 100 1122 114 1147 100 1139 b 104 1107 100 1118 101 1113 b 174 1075 108 1096 158 1079 b 260 1046 192 1064 204 1071 z m 151 960 b 144 975 151 969 150 975 b 119 972 135 975 128 972 b 104 974 114 972 110 974 b 78 942 94 978 78 981 b 79 919 78 935 78 928 b 85 667 82 881 85 763 b 82 538 85 607 85 557 b 78 432 79 519 78 479 b 97 194 78 347 83 240 b 317 4 119 122 183 4 b 601 343 451 4 597 83 b 593 824 606 606 589 775 b 594 868 594 838 594 853 b 592 943 594 899 593 928 b 561 976 590 965 593 976 b 463 976 529 976 478 975 b 424 949 450 976 424 983 b 428 922 424 942 425 933 b 433 826 432 901 433 868 b 426 544 433 738 426 617 b 419 229 426 440 419 264 b 304 119 419 192 397 119 b 147 400 214 119 147 238 b 151 960 147 604 151 1060 z "},"Ű":{"ha":678,"x_min":0,"x_max":0,"o":"m 254 1153 l 224 1142 b 139 1110 167 1117 158 1121 b 69 1075 125 1106 72 1085 b 67 1061 68 1069 67 1065 b 94 1031 67 1044 82 1035 b 124 1021 106 1024 114 1021 b 168 1033 136 1021 149 1026 b 286 1079 215 1056 239 1064 b 354 1126 301 1083 347 1103 b 331 1165 360 1157 350 1165 b 303 1163 324 1165 314 1164 b 254 1153 292 1163 271 1158 z m 529 1153 l 499 1142 b 414 1110 442 1117 433 1121 b 344 1075 400 1106 347 1085 b 342 1061 343 1069 342 1065 b 369 1031 342 1044 357 1035 b 399 1021 381 1024 389 1021 b 443 1033 411 1021 424 1026 b 561 1079 490 1056 514 1064 b 629 1126 576 1083 622 1103 b 606 1165 635 1157 625 1165 b 578 1163 599 1165 589 1164 b 529 1153 567 1163 546 1158 z m 151 960 b 144 975 151 969 150 975 b 119 972 135 975 128 972 b 104 974 114 972 110 974 b 78 942 94 978 78 981 b 79 919 78 935 78 928 b 85 667 82 881 85 763 b 82 538 85 607 85 557 b 78 432 79 519 78 479 b 97 194 78 347 83 240 b 317 4 119 122 183 4 b 601 343 451 4 597 83 b 593 824 606 606 589 775 b 594 868 594 838 594 853 b 592 943 594 899 593 928 b 561 976 590 965 593 976 b 463 976 529 976 478 975 b 424 949 450 976 424 983 b 428 922 424 942 425 933 b 433 826 432 901 433 868 b 426 544 433 738 426 617 b 419 229 426 440 419 264 b 304 119 419 192 397 119 b 147 400 214 119 147 238 b 151 960 147 604 151 1060 z "},"Ū":{"ha":678,"x_min":0,"x_max":0,"o":"m 513 1154 l 140 1154 b 125 1128 128 1154 125 1146 l 125 1090 b 136 1072 125 1081 125 1072 b 207 1076 143 1076 196 1076 l 390 1076 b 507 1072 424 1076 482 1072 b 538 1090 533 1072 538 1078 l 538 1132 b 522 1156 538 1144 538 1156 b 513 1154 519 1156 517 1154 z m 151 960 b 144 975 151 969 150 975 b 119 972 135 975 128 972 b 104 974 114 972 110 974 b 78 942 94 978 78 981 b 79 919 78 935 78 928 b 85 667 82 881 85 763 b 82 538 85 607 85 557 b 78 432 79 519 78 479 b 97 194 78 347 83 240 b 317 4 119 122 183 4 b 601 343 451 4 597 83 b 593 824 606 606 589 775 b 594 868 594 838 594 853 b 592 943 594 899 593 928 b 561 976 590 965 593 976 b 463 976 529 976 478 975 b 424 949 450 976 424 983 b 428 922 424 942 425 933 b 433 826 432 901 433 868 b 426 544 433 738 426 617 b 419 229 426 440 419 264 b 304 119 419 192 397 119 b 147 400 214 119 147 238 b 151 960 147 604 151 1060 z "},"Ų":{"ha":678,"x_min":0,"x_max":0,"o":"m 593 824 b 594 868 594 838 594 853 b 592 943 594 899 593 928 b 561 976 590 965 593 976 b 463 976 529 976 478 975 b 424 949 450 976 424 983 b 428 922 424 942 425 933 b 433 826 432 901 433 868 b 426 544 433 738 426 617 b 419 229 426 440 419 264 b 304 119 419 192 397 119 b 147 400 214 119 147 238 b 151 974 147 585 150 974 b 151 960 151 974 151 969 b 144 975 151 969 150 975 b 119 972 135 975 128 972 b 104 974 114 972 110 974 b 78 942 94 978 78 981 b 79 919 78 935 78 928 b 85 667 82 881 85 763 b 82 538 85 607 85 557 b 78 432 79 519 78 479 b 97 194 78 347 83 240 b 279 7 117 129 171 26 l 269 -11 b 250 -62 265 -21 258 -37 b 238 -126 242 -87 238 -108 b 351 -237 242 -219 283 -239 b 501 -137 401 -235 501 -175 b 474 -103 501 -124 485 -103 b 364 -135 461 -103 449 -140 b 336 -78 344 -133 336 -112 b 338 -53 336 -69 336 -61 b 344 6 340 -26 344 -8 b 601 343 471 17 597 101 b 593 824 606 606 589 775 z "},"Ů":{"ha":678,"x_min":0,"x_max":0,"o":"m 360 974 b 419 1067 407 997 419 1053 b 311 1167 419 1085 411 1167 b 225 1114 263 1167 236 1142 b 211 1061 218 1099 213 1081 b 308 967 211 1010 260 967 b 360 974 326 967 344 967 z m 318 1097 b 353 1067 340 1097 353 1081 b 329 1038 353 1046 333 1042 b 314 1036 328 1038 321 1036 b 279 1067 296 1036 279 1050 b 318 1097 279 1082 292 1097 z m 151 960 b 144 975 151 969 150 975 b 119 972 135 975 128 972 b 104 974 114 972 110 974 b 78 942 94 978 78 981 b 79 919 78 935 78 928 b 85 667 82 881 85 763 b 82 538 85 607 85 557 b 78 432 79 519 78 479 b 97 194 78 347 83 240 b 317 4 119 122 183 4 b 601 343 451 4 597 83 b 593 824 606 606 589 775 b 594 868 594 838 594 853 b 592 943 594 899 593 928 b 561 976 590 965 593 976 b 463 976 529 976 478 975 b 424 949 450 976 424 983 b 428 922 424 942 425 933 b 433 826 432 901 433 868 b 426 544 433 738 426 617 b 419 229 426 440 419 264 b 304 119 419 192 397 119 b 147 400 214 119 147 238 b 151 960 147 604 151 1060 z "},"Ũ":{"ha":678,"x_min":0,"x_max":0,"o":"m 576 1093 l 576 1114 b 536 1149 574 1125 589 1146 b 447 1154 510 1153 481 1154 b 282 1143 375 1154 321 1150 b 182 1131 243 1136 221 1131 b 103 1150 139 1139 114 1150 b 93 1143 97 1150 94 1149 b 90 1111 90 1133 90 1121 b 90 1093 90 1104 90 1097 b 182 1061 90 1081 97 1061 b 307 1072 236 1061 258 1068 b 453 1088 356 1076 388 1086 b 544 1071 486 1088 518 1071 b 576 1093 565 1071 576 1078 z m 151 960 b 144 975 151 969 150 975 b 119 972 135 975 128 972 b 104 974 114 972 110 974 b 78 942 94 978 78 981 b 79 919 78 935 78 928 b 85 667 82 881 85 763 b 82 538 85 607 85 557 b 78 432 79 519 78 479 b 97 194 78 347 83 240 b 317 4 119 122 183 4 b 601 343 451 4 597 83 b 593 824 606 606 589 775 b 594 868 594 838 594 853 b 592 943 594 899 593 928 b 561 976 590 965 593 976 b 463 976 529 976 478 975 b 424 949 450 976 424 983 b 428 922 424 942 425 933 b 433 826 432 901 433 868 b 426 544 433 738 426 617 b 419 229 426 440 419 264 b 304 119 419 192 397 119 b 147 400 214 119 147 238 b 151 960 147 604 151 1060 z "},"V":{"ha":788,"x_min":0,"x_max":0,"o":"m 417 474 l 399 392 l 368 529 b 331 724 353 603 336 685 b 297 942 314 840 304 915 b 250 985 292 969 288 989 b 96 979 214 985 125 979 b 38 972 69 979 38 993 b 40 958 38 968 39 964 b 163 436 51 918 140 518 b 263 54 185 353 254 89 b 301 1 267 21 269 1 b 511 13 332 1 488 13 b 533 11 521 13 528 11 b 554 35 543 11 549 15 b 629 440 565 68 601 331 b 710 807 660 549 699 750 b 743 943 722 863 733 917 b 747 965 746 953 747 960 b 721 982 747 975 742 979 b 556 986 688 986 578 986 b 508 935 531 986 504 996 b 439 600 513 879 443 660 b 417 474 435 571 426 518 z "},"W":{"ha":940,"x_min":0,"x_max":0,"o":"m 333 478 l 328 460 l 304 521 b 256 657 289 558 272 606 b 169 925 215 757 181 888 b 140 964 164 954 161 969 l 125 961 b 92 960 115 960 104 960 l 49 960 b 39 953 43 960 39 960 b 44 925 39 947 40 939 b 101 714 56 892 86 767 b 193 393 117 663 179 426 b 242 233 204 354 226 271 b 294 28 257 196 288 39 b 318 -1 299 13 303 -1 b 347 47 328 -1 342 26 b 410 286 351 61 390 229 b 463 417 433 346 453 396 l 482 456 l 501 404 b 529 325 513 376 524 346 b 588 163 540 293 576 189 b 644 28 599 133 633 42 b 674 -1 654 7 658 -1 b 688 42 683 -1 683 21 b 746 331 694 56 729 286 b 765 411 761 368 765 396 b 793 585 765 425 782 538 b 865 849 808 633 851 806 b 894 944 881 892 885 921 b 897 961 896 951 897 957 b 881 974 897 969 893 974 b 863 975 876 975 869 975 b 813 969 846 975 824 972 b 779 921 797 969 783 960 b 731 763 775 888 742 810 b 703 618 715 708 713 647 l 689 583 b 683 571 686 579 685 575 l 658 626 l 615 719 b 549 892 597 763 560 863 b 535 950 544 921 539 929 b 515 974 529 971 531 974 b 463 882 500 974 474 910 b 390 667 451 849 401 710 b 347 517 379 626 358 542 z "},"Ẃ":{"ha":940,"x_min":0,"x_max":0,"o":"m 572 1153 l 542 1142 b 457 1110 485 1117 476 1121 b 388 1075 443 1106 390 1085 b 385 1061 386 1069 385 1065 b 413 1031 385 1044 400 1035 b 442 1021 424 1024 432 1021 b 486 1033 454 1021 467 1026 b 604 1079 533 1056 557 1064 b 672 1126 619 1083 665 1103 b 649 1165 678 1157 668 1165 b 621 1163 642 1165 632 1164 b 572 1153 610 1163 589 1158 z m 333 478 l 328 460 l 304 521 b 256 657 289 558 272 606 b 169 925 215 757 181 888 b 140 964 164 954 161 969 l 125 961 b 92 960 115 960 104 960 l 49 960 b 39 953 43 960 39 960 b 44 925 39 947 40 939 b 101 714 56 892 86 767 b 193 393 117 663 179 426 b 242 233 204 354 226 271 b 294 28 257 196 288 39 b 318 -1 299 13 303 -1 b 347 47 328 -1 342 26 b 410 286 351 61 390 229 b 463 417 433 346 453 396 l 482 456 l 501 404 b 529 325 513 376 524 346 b 588 163 540 293 576 189 b 644 28 599 133 633 42 b 674 -1 654 7 658 -1 b 688 42 683 -1 683 21 b 746 331 694 56 729 286 b 765 411 761 368 765 396 b 793 585 765 425 782 538 b 865 849 808 633 851 806 b 894 944 881 892 885 921 b 897 961 896 951 897 957 b 881 974 897 969 893 974 b 863 975 876 975 869 975 b 813 969 846 975 824 972 b 779 921 797 969 783 960 b 731 763 775 888 742 810 b 703 618 715 708 713 647 l 689 583 b 683 571 686 579 685 575 l 658 626 l 615 719 b 549 892 597 763 560 863 b 535 950 544 921 539 929 b 515 974 529 971 531 974 b 463 882 500 974 474 910 b 390 667 451 849 401 710 b 347 517 379 626 358 542 z "},"Ŵ":{"ha":940,"x_min":0,"x_max":0,"o":"m 340 1081 l 303 1057 b 293 1040 296 1053 293 1046 b 326 1018 293 1029 304 1018 b 379 1022 344 1018 361 1019 b 458 1051 418 1033 438 1040 l 522 1081 l 567 1060 b 615 1035 582 1050 597 1042 l 653 1025 b 690 1015 668 1019 681 1015 b 713 1036 701 1015 708 1021 b 665 1083 717 1054 676 1076 b 572 1143 628 1107 610 1117 b 519 1164 549 1156 540 1164 b 504 1163 514 1164 510 1164 b 479 1157 497 1163 489 1161 b 407 1121 464 1153 439 1139 b 340 1081 365 1089 354 1088 z m 333 478 l 328 460 l 304 521 b 256 657 289 558 272 606 b 169 925 215 757 181 888 b 140 964 164 954 161 969 l 125 961 b 92 960 115 960 104 960 l 49 960 b 39 953 43 960 39 960 b 44 925 39 947 40 939 b 101 714 56 892 86 767 b 193 393 117 663 179 426 b 242 233 204 354 226 271 b 294 28 257 196 288 39 b 318 -1 299 13 303 -1 b 347 47 328 -1 342 26 b 410 286 351 61 390 229 b 463 417 433 346 453 396 l 482 456 l 501 404 b 529 325 513 376 524 346 b 588 163 540 293 576 189 b 644 28 599 133 633 42 b 674 -1 654 7 658 -1 b 688 42 683 -1 683 21 b 746 331 694 56 729 286 b 765 411 761 368 765 396 b 793 585 765 425 782 538 b 865 849 808 633 851 806 b 894 944 881 892 885 921 b 897 961 896 951 897 957 b 881 974 897 969 893 974 b 863 975 876 975 869 975 b 813 969 846 975 824 972 b 779 921 797 969 783 960 b 731 763 775 888 742 810 b 703 618 715 708 713 647 l 689 583 b 683 571 686 579 685 575 l 658 626 l 615 719 b 549 892 597 763 560 863 b 535 950 544 921 539 929 b 515 974 529 971 531 974 b 463 882 500 974 474 910 b 390 667 451 849 401 710 b 347 517 379 626 358 542 z "},"Ẅ":{"ha":940,"x_min":0,"x_max":0,"o":"m 560 1081 b 635 1006 560 1047 575 1006 b 722 1081 694 1006 722 1043 b 663 1167 722 1124 700 1167 b 560 1081 625 1167 560 1157 z m 408 1086 b 317 1157 408 1135 360 1157 b 242 1081 274 1157 242 1118 b 322 1000 242 1031 285 1000 b 408 1086 356 1000 408 1031 z m 333 478 l 328 460 l 304 521 b 256 657 289 558 272 606 b 169 925 215 757 181 888 b 140 964 164 954 161 969 l 125 961 b 92 960 115 960 104 960 l 49 960 b 39 953 43 960 39 960 b 44 925 39 947 40 939 b 101 714 56 892 86 767 b 193 393 117 663 179 426 b 242 233 204 354 226 271 b 294 28 257 196 288 39 b 318 -1 299 13 303 -1 b 347 47 328 -1 342 26 b 410 286 351 61 390 229 b 463 417 433 346 453 396 l 482 456 l 501 404 b 529 325 513 376 524 346 b 588 163 540 293 576 189 b 644 28 599 133 633 42 b 674 -1 654 7 658 -1 b 688 42 683 -1 683 21 b 746 331 694 56 729 286 b 765 411 761 368 765 396 b 793 585 765 425 782 538 b 865 849 808 633 851 806 b 894 944 881 892 885 921 b 897 961 896 951 897 957 b 881 974 897 969 893 974 b 863 975 876 975 869 975 b 813 969 846 975 824 972 b 779 921 797 969 783 960 b 731 763 775 888 742 810 b 703 618 715 708 713 647 l 689 583 b 683 571 686 579 685 575 l 658 626 l 615 719 b 549 892 597 763 560 863 b 535 950 544 921 539 929 b 515 974 529 971 531 974 b 463 882 500 974 474 910 b 390 667 451 849 401 710 b 347 517 379 626 358 542 z "},"Ẁ":{"ha":940,"x_min":0,"x_max":0,"o":"m 507 1046 l 538 1035 b 586 1029 556 1031 575 1028 b 639 1049 618 1025 639 1024 b 636 1067 639 1054 638 1060 b 567 1113 629 1093 582 1106 b 447 1153 518 1124 496 1132 b 404 1164 429 1158 417 1164 b 374 1153 394 1164 386 1160 b 347 1122 361 1147 347 1139 b 351 1107 347 1118 349 1113 b 421 1075 356 1096 406 1079 b 507 1046 439 1064 451 1071 z m 333 478 l 328 460 l 304 521 b 256 657 289 558 272 606 b 169 925 215 757 181 888 b 140 964 164 954 161 969 l 125 961 b 92 960 115 960 104 960 l 49 960 b 39 953 43 960 39 960 b 44 925 39 947 40 939 b 101 714 56 892 86 767 b 193 393 117 663 179 426 b 242 233 204 354 226 271 b 294 28 257 196 288 39 b 318 -1 299 13 303 -1 b 347 47 328 -1 342 26 b 410 286 351 61 390 229 b 463 417 433 346 453 396 l 482 456 l 501 404 b 529 325 513 376 524 346 b 588 163 540 293 576 189 b 644 28 599 133 633 42 b 674 -1 654 7 658 -1 b 688 42 683 -1 683 21 b 746 331 694 56 729 286 b 765 411 761 368 765 396 b 793 585 765 425 782 538 b 865 849 808 633 851 806 b 894 944 881 892 885 921 b 897 961 896 951 897 957 b 881 974 897 969 893 974 b 863 975 876 975 869 975 b 813 969 846 975 824 972 b 779 921 797 969 783 960 b 731 763 775 888 742 810 b 703 618 715 708 713 647 l 689 583 b 683 571 686 579 685 575 l 658 626 l 615 719 b 549 892 597 763 560 863 b 535 950 544 921 539 929 b 515 974 529 971 531 974 b 463 882 500 974 474 910 b 390 667 451 849 401 710 b 347 517 379 626 358 542 z "},"X":{"ha":865,"x_min":0,"x_max":0,"o":"m 543 754 l 467 629 b 436 588 456 611 451 588 b 393 656 421 610 407 632 b 319 781 369 694 340 743 b 228 929 276 854 251 892 b 167 1000 201 967 190 999 b 96 997 144 1000 117 996 b 76 985 83 999 76 994 b 86 960 76 978 79 971 b 243 708 100 935 221 751 b 356 508 265 664 344 532 b 365 475 361 497 365 488 b 349 432 365 464 361 450 b 229 256 322 399 267 304 b 86 56 194 207 103 83 b 65 15 75 38 65 25 b 78 3 65 10 69 6 b 128 -4 93 -1 111 -4 b 151 -1 138 -4 146 -3 b 219 83 168 6 203 46 b 315 244 235 121 290 213 b 407 365 342 278 393 349 b 425 382 414 375 419 382 b 442 368 429 382 435 378 b 553 179 457 344 533 217 b 636 49 571 139 617 86 b 674 -7 657 11 657 -6 l 761 -8 b 786 1 776 -8 786 -7 b 781 17 786 6 785 10 b 679 185 769 38 708 140 b 583 340 646 229 606 300 b 514 454 561 378 524 433 b 504 483 508 467 504 475 b 514 507 504 490 507 497 b 650 761 525 529 624 724 b 750 908 676 799 721 872 b 793 978 778 946 788 961 b 751 1010 801 999 782 1010 b 701 999 735 1010 717 1006 b 643 908 682 988 665 938 b 543 754 622 879 561 783 z "},"Y":{"ha":710,"x_min":0,"x_max":0,"o":"m 282 -1 l 319 -1 b 342 26 331 -3 338 7 b 363 128 346 46 354 104 b 492 458 368 151 471 394 b 613 769 514 519 590 718 b 669 931 635 822 663 914 b 672 943 671 936 672 939 b 643 957 672 950 665 954 b 556 958 617 960 567 958 b 503 918 536 958 514 965 b 451 758 492 871 467 789 b 435 718 447 751 442 738 b 421 682 428 700 422 688 l 407 646 l 392 604 b 372 544 385 586 378 565 l 361 510 b 339 576 354 533 346 556 b 300 682 326 614 311 656 b 257 813 285 718 268 778 b 221 928 240 861 225 913 b 201 957 217 943 225 953 b 144 958 190 958 171 958 b 111 960 132 960 119 960 b 89 958 101 960 94 960 b 47 940 68 957 47 956 b 75 867 47 925 64 904 b 182 556 86 831 167 597 b 222 431 197 513 207 468 b 263 310 238 397 256 325 b 250 257 269 294 260 281 b 213 154 240 231 218 178 b 164 19 206 132 168 32 b 158 4 163 14 158 8 b 175 -4 158 -1 163 -4 b 226 -3 182 -4 199 -4 b 282 -1 256 -3 274 -3 z "},"Ý":{"ha":689,"x_min":0,"x_max":0,"o":"m 400 1146 l 369 1135 b 285 1103 313 1110 304 1114 b 215 1068 271 1099 218 1078 b 213 1054 214 1063 213 1058 b 240 1024 213 1038 228 1028 b 269 1014 251 1017 260 1014 b 314 1026 282 1014 294 1019 b 432 1072 361 1049 385 1057 b 500 1119 447 1076 493 1096 b 476 1158 506 1150 496 1158 b 449 1156 469 1158 460 1157 b 400 1146 438 1156 417 1151 z m 282 -1 l 319 -1 b 342 26 331 -3 338 7 b 363 128 346 46 354 104 b 492 458 368 151 471 394 b 613 769 514 519 590 718 b 669 931 635 822 663 914 b 672 943 671 936 672 939 b 643 957 672 950 665 954 b 556 958 617 960 567 958 b 503 918 536 958 514 965 b 451 758 492 871 467 789 b 435 718 447 751 442 738 b 421 682 428 700 422 688 l 407 646 l 392 604 b 372 544 385 586 378 565 l 361 510 b 339 576 354 533 346 556 b 300 682 326 614 311 656 b 257 813 285 718 268 778 b 221 928 240 861 225 913 b 201 957 217 943 225 953 b 144 958 190 958 171 958 b 111 960 132 960 119 960 b 89 958 101 960 94 960 b 47 940 68 957 47 956 b 75 867 47 925 64 904 b 182 556 86 831 167 597 b 222 431 197 513 207 468 b 263 310 238 397 256 325 b 250 257 269 294 260 281 b 213 154 240 231 218 178 b 164 19 206 132 168 32 b 158 4 163 14 158 8 b 175 -4 158 -1 163 -4 b 226 -3 182 -4 199 -4 b 282 -1 256 -3 274 -3 z "},"Ŷ":{"ha":735,"x_min":0,"x_max":0,"o":"m 182 1081 l 144 1057 b 135 1040 138 1053 135 1046 b 168 1018 135 1029 146 1018 b 221 1022 186 1018 203 1019 b 300 1051 260 1033 279 1040 l 364 1081 l 408 1060 b 457 1035 424 1050 439 1042 l 494 1025 b 532 1015 510 1019 522 1015 b 554 1036 543 1015 550 1021 b 507 1083 558 1054 518 1076 b 414 1143 469 1107 451 1117 b 361 1164 390 1156 382 1164 b 346 1163 356 1164 351 1164 b 321 1157 339 1163 331 1161 b 249 1121 306 1153 281 1139 b 182 1081 207 1089 196 1088 z m 282 -1 l 319 -1 b 342 26 331 -3 338 7 b 363 128 346 46 354 104 b 492 458 368 151 471 394 b 613 769 514 519 590 718 b 669 931 635 822 663 914 b 672 943 671 936 672 939 b 643 957 672 950 665 954 b 556 958 617 960 567 958 b 503 918 536 958 514 965 b 451 758 492 871 467 789 b 435 718 447 751 442 738 b 421 682 428 700 422 688 l 407 646 l 392 604 b 372 544 385 586 378 565 l 361 510 b 339 576 354 533 346 556 b 300 682 326 614 311 656 b 257 813 285 718 268 778 b 221 928 240 861 225 913 b 201 957 217 943 225 953 b 144 958 190 958 171 958 b 111 960 132 960 119 960 b 89 958 101 960 94 960 b 47 940 68 957 47 956 b 75 867 47 925 64 904 b 182 556 86 831 167 597 b 222 431 197 513 207 468 b 263 310 238 397 256 325 b 250 257 269 294 260 281 b 213 154 240 231 218 178 b 164 19 206 132 168 32 b 158 4 163 14 158 8 b 175 -4 158 -1 163 -4 b 226 -3 182 -4 199 -4 b 282 -1 256 -3 274 -3 z "},"Ÿ":{"ha":735,"x_min":0,"x_max":0,"o":"m 422 1081 b 497 1006 422 1047 438 1006 b 585 1081 557 1006 585 1043 b 525 1167 585 1124 563 1167 b 422 1081 488 1167 422 1157 z m 271 1086 b 179 1157 271 1135 222 1157 b 104 1081 136 1157 104 1118 b 185 1000 104 1031 147 1000 b 271 1086 218 1000 271 1031 z m 282 -1 l 319 -1 b 342 26 331 -3 338 7 b 363 128 346 46 354 104 b 492 458 368 151 471 394 b 613 769 514 519 590 718 b 669 931 635 822 663 914 b 672 943 671 936 672 939 b 643 957 672 950 665 954 b 556 958 617 960 567 958 b 503 918 536 958 514 965 b 451 758 492 871 467 789 b 435 718 447 751 442 738 b 421 682 428 700 422 688 l 407 646 l 392 604 b 372 544 385 586 378 565 l 361 510 b 339 576 354 533 346 556 b 300 682 326 614 311 656 b 257 813 285 718 268 778 b 221 928 240 861 225 913 b 201 957 217 943 225 953 b 144 958 190 958 171 958 b 111 960 132 960 119 960 b 89 958 101 960 94 960 b 47 940 68 957 47 956 b 75 867 47 925 64 904 b 182 556 86 831 167 597 b 222 431 197 513 207 468 b 263 310 238 397 256 325 b 250 257 269 294 260 281 b 213 154 240 231 218 178 b 164 19 206 132 168 32 b 158 4 163 14 158 8 b 175 -4 158 -1 163 -4 b 226 -3 182 -4 199 -4 b 282 -1 256 -3 274 -3 z "},"Ỳ":{"ha":735,"x_min":0,"x_max":0,"o":"m 339 1046 l 369 1035 b 418 1029 388 1031 407 1028 b 471 1049 450 1025 471 1024 b 468 1067 471 1054 469 1060 b 399 1113 461 1093 414 1106 b 279 1153 350 1124 328 1132 b 236 1164 261 1158 249 1164 b 206 1153 226 1164 218 1160 b 179 1122 193 1147 179 1139 b 183 1107 179 1118 181 1113 b 253 1075 188 1096 238 1079 b 339 1046 271 1064 283 1071 z m 282 -1 l 319 -1 b 342 26 331 -3 338 7 b 363 128 346 46 354 104 b 492 458 368 151 471 394 b 613 769 514 519 590 718 b 669 931 635 822 663 914 b 672 943 671 936 672 939 b 643 957 672 950 665 954 b 556 958 617 960 567 958 b 503 918 536 958 514 965 b 451 758 492 871 467 789 b 435 718 447 751 442 738 b 421 682 428 700 422 688 l 407 646 l 392 604 b 372 544 385 586 378 565 l 361 510 b 339 576 354 533 346 556 b 300 682 326 614 311 656 b 257 813 285 718 268 778 b 221 928 240 861 225 913 b 201 957 217 943 225 953 b 144 958 190 958 171 958 b 111 960 132 960 119 960 b 89 958 101 960 94 960 b 47 940 68 957 47 956 b 75 867 47 925 64 904 b 182 556 86 831 167 597 b 222 431 197 513 207 468 b 263 310 238 397 256 325 b 250 257 269 294 260 281 b 213 154 240 231 218 178 b 164 19 206 132 168 32 b 158 4 163 14 158 8 b 175 -4 158 -1 163 -4 b 226 -3 182 -4 199 -4 b 282 -1 256 -3 274 -3 z "},"Ỹ":{"ha":735,"x_min":0,"x_max":0,"o":"m 590 1093 l 590 1114 b 550 1149 588 1125 603 1146 b 461 1154 524 1153 494 1154 b 296 1143 389 1154 335 1150 b 196 1131 257 1136 235 1131 b 117 1150 153 1139 128 1150 b 107 1143 111 1150 108 1149 b 104 1111 104 1133 104 1121 b 104 1093 104 1104 104 1097 b 196 1061 104 1081 111 1061 b 321 1072 250 1061 272 1068 b 467 1088 369 1076 401 1086 b 558 1071 500 1088 532 1071 b 590 1093 579 1071 590 1078 z m 282 -1 l 319 -1 b 342 26 331 -3 338 7 b 363 128 346 46 354 104 b 492 458 368 151 471 394 b 613 769 514 519 590 718 b 669 931 635 822 663 914 b 672 943 671 936 672 939 b 643 957 672 950 665 954 b 556 958 617 960 567 958 b 503 918 536 958 514 965 b 451 758 492 871 467 789 b 435 718 447 751 442 738 b 421 682 428 700 422 688 l 407 646 l 392 604 b 372 544 385 586 378 565 l 361 510 b 339 576 354 533 346 556 b 300 682 326 614 311 656 b 257 813 285 718 268 778 b 221 928 240 861 225 913 b 201 957 217 943 225 953 b 144 958 190 958 171 958 b 111 960 132 960 119 960 b 89 958 101 960 94 960 b 47 940 68 957 47 956 b 75 867 47 925 64 904 b 182 556 86 831 167 597 b 222 431 197 513 207 468 b 263 310 238 397 256 325 b 250 257 269 294 260 281 b 213 154 240 231 218 178 b 164 19 206 132 168 32 b 158 4 163 14 158 8 b 175 -4 158 -1 163 -4 b 226 -3 182 -4 199 -4 b 282 -1 256 -3 274 -3 z "},"Z":{"ha":890,"x_min":0,"x_max":0,"o":"m 496 868 l 524 865 b 536 864 528 864 532 864 l 511 810 b 461 719 496 778 478 743 b 313 514 428 675 338 557 b 121 250 286 469 147 285 b 61 167 92 215 61 189 b 54 44 61 143 54 63 b 97 -1 54 22 44 -1 l 438 -1 b 614 -4 475 -1 551 -4 b 694 -1 646 -4 675 -4 b 799 8 754 8 781 4 b 818 29 817 10 818 11 b 818 38 818 32 818 35 b 821 139 818 61 821 118 b 794 182 819 160 824 182 b 564 174 764 182 618 174 b 413 171 510 174 472 171 b 313 176 383 171 344 172 b 256 183 294 178 275 181 l 388 364 b 557 597 458 457 531 560 b 749 872 608 667 733 850 b 761 944 764 894 761 933 b 743 967 761 954 764 967 b 733 965 740 967 738 965 b 594 963 714 963 650 963 b 513 963 558 963 526 963 b 279 968 482 963 335 968 b 104 963 222 968 149 963 b 63 943 83 963 61 969 b 67 889 65 917 67 899 b 82 871 67 879 61 872 b 140 871 90 871 114 871 b 239 868 181 871 226 871 b 264 867 244 867 254 867 b 349 869 290 867 326 869 z "},"Ź":{"ha":890,"x_min":0,"x_max":0,"o":"m 461 1153 l 431 1142 b 346 1110 374 1117 365 1121 b 276 1075 332 1106 279 1085 b 274 1061 275 1069 274 1065 b 301 1031 274 1044 289 1035 b 331 1021 313 1024 321 1021 b 375 1033 343 1021 356 1026 b 493 1079 422 1056 446 1064 b 561 1126 508 1083 554 1103 b 538 1165 567 1157 557 1165 b 510 1163 531 1165 521 1164 b 461 1153 499 1163 478 1158 z m 496 868 l 524 865 b 536 864 528 864 532 864 l 511 810 b 461 719 496 778 478 743 b 313 514 428 675 338 557 b 121 250 286 469 147 285 b 61 167 92 215 61 189 b 54 44 61 143 54 63 b 97 -1 54 22 44 -1 l 438 -1 b 614 -4 475 -1 551 -4 b 694 -1 646 -4 675 -4 b 799 8 754 8 781 4 b 818 29 817 10 818 11 b 818 38 818 32 818 35 b 821 139 818 61 821 118 b 794 182 819 160 824 182 b 564 174 764 182 618 174 b 413 171 510 174 472 171 b 313 176 383 171 344 172 b 256 183 294 178 275 181 l 388 364 b 557 597 458 457 531 560 b 749 872 608 667 733 850 b 761 944 764 894 761 933 b 743 967 761 954 764 967 b 733 965 740 967 738 965 b 594 963 714 963 650 963 b 513 963 558 963 526 963 b 279 968 482 963 335 968 b 104 963 222 968 149 963 b 63 943 83 963 61 969 b 67 889 65 917 67 899 b 82 871 67 879 61 872 b 140 871 90 871 114 871 b 239 868 181 871 226 871 b 264 867 244 867 254 867 b 349 869 290 867 326 869 z "},"Ž":{"ha":890,"x_min":0,"x_max":0,"o":"m 575 1099 l 611 1122 b 622 1139 618 1126 622 1133 b 589 1161 622 1150 611 1161 b 536 1157 571 1161 554 1160 b 456 1128 497 1146 478 1139 b 393 1099 446 1122 425 1113 l 349 1119 b 300 1144 333 1129 318 1138 l 263 1154 b 225 1164 247 1160 235 1164 b 203 1143 214 1164 207 1158 b 250 1096 199 1125 239 1103 b 343 1036 288 1072 306 1063 b 396 1015 367 1024 375 1015 b 411 1017 401 1015 406 1015 b 436 1022 418 1017 426 1018 b 508 1058 451 1026 476 1040 b 575 1099 550 1090 561 1092 z m 496 868 l 524 865 b 536 864 528 864 532 864 l 511 810 b 461 719 496 778 478 743 b 313 514 428 675 338 557 b 121 250 286 469 147 285 b 61 167 92 215 61 189 b 54 44 61 143 54 63 b 97 -1 54 22 44 -1 l 438 -1 b 614 -4 475 -1 551 -4 b 694 -1 646 -4 675 -4 b 799 8 754 8 781 4 b 818 29 817 10 818 11 b 818 38 818 32 818 35 b 821 139 818 61 821 118 b 794 182 819 160 824 182 b 564 174 764 182 618 174 b 413 171 510 174 472 171 b 313 176 383 171 344 172 b 256 183 294 178 275 181 l 388 364 b 557 597 458 457 531 560 b 749 872 608 667 733 850 b 761 944 764 894 761 933 b 743 967 761 954 764 967 b 733 965 740 967 738 965 b 594 963 714 963 650 963 b 513 963 558 963 526 963 b 279 968 482 963 335 968 b 104 963 222 968 149 963 b 63 943 83 963 61 969 b 67 889 65 917 67 899 b 82 871 67 879 61 872 b 140 871 90 871 114 871 b 239 868 181 871 226 871 b 264 867 244 867 254 867 b 349 869 290 867 326 869 z "},"Ż":{"ha":890,"x_min":0,"x_max":0,"o":"m 510 1092 b 413 1167 510 1140 458 1167 b 333 1085 368 1167 333 1125 b 418 1000 333 1033 379 1000 b 510 1092 454 1000 510 1031 z m 496 868 l 524 865 b 536 864 528 864 532 864 l 511 810 b 461 719 496 778 478 743 b 313 514 428 675 338 557 b 121 250 286 469 147 285 b 61 167 92 215 61 189 b 54 44 61 143 54 63 b 97 -1 54 22 44 -1 l 438 -1 b 614 -4 475 -1 551 -4 b 694 -1 646 -4 675 -4 b 799 8 754 8 781 4 b 818 29 817 10 818 11 b 818 38 818 32 818 35 b 821 139 818 61 821 118 b 794 182 819 160 824 182 b 564 174 764 182 618 174 b 413 171 510 174 472 171 b 313 176 383 171 344 172 b 256 183 294 178 275 181 l 388 364 b 557 597 458 457 531 560 b 749 872 608 667 733 850 b 761 944 764 894 761 933 b 743 967 761 954 764 967 b 733 965 740 967 738 965 b 594 963 714 963 650 963 b 513 963 558 963 526 963 b 279 968 482 963 335 968 b 104 963 222 968 149 963 b 63 943 83 963 61 969 b 67 889 65 917 67 899 b 82 871 67 879 61 872 b 140 871 90 871 114 871 b 239 868 181 871 226 871 b 264 867 244 867 254 867 b 349 869 290 867 326 869 z "},"Ẓ":{"ha":890,"x_min":0,"x_max":0,"o":"m 496 868 l 524 865 b 536 864 528 864 532 864 l 511 810 b 461 719 496 778 478 743 b 313 514 428 675 338 557 b 121 250 286 469 147 285 b 61 167 92 215 61 189 b 54 44 61 143 54 63 b 97 -1 54 22 44 -1 l 438 -1 b 614 -4 475 -1 551 -4 b 694 -1 646 -4 675 -4 b 799 8 754 8 781 4 b 818 29 817 10 818 11 b 818 38 818 32 818 35 b 821 139 818 61 821 118 b 794 182 819 160 824 182 b 564 174 764 182 618 174 b 413 171 510 174 472 171 b 313 176 383 171 344 172 b 256 183 294 178 275 181 l 388 364 b 557 597 458 457 531 560 b 749 872 608 667 733 850 b 761 944 764 894 761 933 b 743 967 761 954 764 967 b 733 965 740 967 738 965 b 594 963 714 963 650 963 b 513 963 558 963 526 963 b 279 968 482 963 335 968 b 104 963 222 968 149 963 b 63 943 83 963 61 969 b 67 889 65 917 67 899 b 82 871 67 879 61 872 b 140 871 90 871 114 871 b 239 868 181 871 226 871 b 264 867 244 867 254 867 b 349 869 290 867 326 869 z m 524 -106 b 426 -31 524 -57 472 -31 b 347 -112 382 -31 347 -72 b 432 -197 347 -164 393 -197 b 524 -106 468 -197 524 -167 z "},"a":{"ha":811,"x_min":0,"x_max":0,"o":"m 290 908 l 256 797 b 203 615 240 747 221 681 b 167 482 185 550 178 528 b 115 303 151 439 126 365 b 54 78 104 244 65 115 b 35 25 43 40 40 38 b 29 6 32 17 29 10 b 36 0 29 1 31 0 l 118 0 b 136 26 128 0 131 6 l 147 67 l 163 126 b 192 254 167 153 189 240 b 210 285 196 269 197 285 b 283 283 217 285 250 283 b 328 285 299 283 315 283 b 476 290 367 289 454 286 b 532 294 500 292 522 294 b 557 267 543 294 550 290 b 592 188 567 244 585 208 b 646 44 599 165 635 65 b 674 -1 656 24 663 -1 l 774 -1 b 799 10 786 -1 799 0 b 792 28 799 14 796 19 b 726 153 772 50 744 117 b 607 389 707 190 636 325 b 489 653 578 456 507 599 b 429 801 469 708 450 758 b 356 968 410 843 360 949 b 338 1007 350 985 347 1000 b 318 997 331 1014 324 1011 b 290 908 313 982 301 951 z m 428 486 b 263 479 404 482 279 479 b 250 488 253 479 250 482 b 254 510 250 493 251 500 b 285 601 261 531 278 572 b 321 724 292 628 314 701 b 338 776 328 750 332 776 b 356 747 344 776 346 768 b 389 661 360 740 371 704 b 456 504 403 621 446 521 b 460 493 458 499 460 496 b 428 486 460 486 447 489 z "},"á":{"ha":813,"x_min":0,"x_max":0,"o":"m 400 1153 l 369 1142 b 285 1110 313 1117 304 1121 b 215 1075 271 1106 218 1085 b 213 1061 214 1069 213 1065 b 240 1031 213 1044 228 1035 b 269 1021 251 1024 260 1021 b 314 1033 282 1021 294 1026 b 432 1079 361 1056 385 1064 b 500 1126 447 1083 493 1103 b 476 1165 506 1157 496 1165 b 449 1163 469 1165 460 1164 b 400 1153 438 1163 417 1158 z m 290 908 l 256 797 b 203 615 240 747 221 681 b 167 482 185 550 178 528 b 115 303 151 439 126 365 b 54 78 104 244 65 115 b 35 25 43 40 40 38 b 29 6 32 17 29 10 b 36 0 29 1 31 0 l 118 0 b 136 26 128 0 131 6 l 147 67 l 163 126 b 192 254 167 153 189 240 b 210 285 196 269 197 285 b 283 283 217 285 250 283 b 328 285 299 283 315 283 b 476 290 367 289 454 286 b 532 294 500 292 522 294 b 557 267 543 294 550 290 b 592 188 567 244 585 208 b 646 44 599 165 635 65 b 674 -1 656 24 663 -1 l 774 -1 b 799 10 786 -1 799 0 b 792 28 799 14 796 19 b 726 153 772 50 744 117 b 607 389 707 190 636 325 b 489 653 578 456 507 599 b 429 801 469 708 450 758 b 356 968 410 843 360 949 b 338 1007 350 985 347 1000 b 318 997 331 1014 324 1011 b 290 908 313 982 301 951 z m 428 486 b 263 479 404 482 279 479 b 250 488 253 479 250 482 b 254 510 250 493 251 500 b 285 601 261 531 278 572 b 321 724 292 628 314 701 b 338 776 328 750 332 776 b 356 747 344 776 346 768 b 389 661 360 740 371 704 b 456 504 403 621 446 521 b 460 493 458 499 460 496 b 428 486 460 486 447 489 z "},"ă":{"ha":811,"x_min":0,"x_max":0,"o":"m 539 1156 b 493 1164 539 1160 524 1163 b 456 1154 471 1163 458 1158 b 404 1113 454 1136 438 1122 b 319 1100 372 1104 343 1100 b 228 1114 269 1103 239 1107 b 206 1151 218 1121 210 1133 b 165 1165 206 1164 206 1165 b 125 1161 126 1165 125 1165 b 146 1083 126 1138 133 1113 b 183 1046 153 1068 165 1056 b 322 1025 201 1036 249 1029 b 456 1043 388 1025 432 1031 b 510 1076 479 1056 497 1067 b 539 1156 538 1097 539 1144 z m 253 754 l 200 582 b 165 456 182 519 176 497 b 114 286 150 415 125 346 b 54 74 103 232 65 107 b 35 24 43 39 40 36 b 29 6 32 15 29 10 b 36 0 29 1 31 0 l 117 0 b 135 25 126 0 129 7 l 146 63 l 161 119 b 189 240 165 144 186 228 b 207 269 193 256 194 269 b 279 268 215 269 247 268 b 324 269 294 268 311 268 b 469 275 363 274 449 271 b 525 278 493 276 515 278 b 550 251 536 278 543 275 b 583 178 557 231 576 196 b 638 42 590 157 628 63 b 664 -1 647 24 653 -1 l 763 -1 b 788 10 775 -1 788 1 b 781 26 788 14 785 19 b 717 144 763 49 736 110 b 599 368 697 179 629 307 b 482 617 569 431 500 565 b 424 758 464 669 444 717 b 351 915 404 797 356 897 b 333 951 346 932 343 946 b 314 943 326 958 319 956 b 286 858 308 928 297 899 b 253 754 274 821 268 799 z m 422 460 b 260 453 397 456 276 453 b 247 463 250 453 247 456 b 251 482 247 467 249 474 b 281 568 258 500 274 540 b 317 685 289 594 308 661 b 333 735 324 708 328 735 b 351 707 340 735 342 725 b 383 625 356 700 365 665 b 450 476 399 588 440 493 b 422 460 460 458 449 464 z "},"â":{"ha":813,"x_min":0,"x_max":0,"o":"m 168 1082 l 131 1058 b 121 1042 124 1054 121 1047 b 154 1019 121 1031 132 1019 b 207 1024 172 1019 189 1021 b 286 1053 246 1035 265 1042 l 350 1082 l 394 1061 b 443 1036 410 1051 425 1043 l 481 1026 b 518 1017 496 1021 508 1017 b 540 1038 529 1017 536 1022 b 493 1085 544 1056 504 1078 b 400 1144 456 1108 438 1118 b 347 1165 376 1157 368 1165 b 332 1164 342 1165 338 1165 b 307 1158 325 1164 317 1163 b 235 1122 292 1154 267 1140 b 168 1082 193 1090 182 1089 z m 290 908 l 256 797 b 203 615 240 747 221 681 b 167 482 185 550 178 528 b 115 303 151 439 126 365 b 54 78 104 244 65 115 b 35 25 43 40 40 38 b 29 6 32 17 29 10 b 36 0 29 1 31 0 l 118 0 b 136 26 128 0 131 6 l 147 67 l 163 126 b 192 254 167 153 189 240 b 210 285 196 269 197 285 b 283 283 217 285 250 283 b 328 285 299 283 315 283 b 476 290 367 289 454 286 b 532 294 500 292 522 294 b 557 267 543 294 550 290 b 592 188 567 244 585 208 b 646 44 599 165 635 65 b 674 -1 656 24 663 -1 l 774 -1 b 799 10 786 -1 799 0 b 792 28 799 14 796 19 b 726 153 772 50 744 117 b 607 389 707 190 636 325 b 489 653 578 456 507 599 b 429 801 469 708 450 758 b 356 968 410 843 360 949 b 338 1007 350 985 347 1000 b 318 997 331 1014 324 1011 b 290 908 313 982 301 951 z m 428 486 b 263 479 404 482 279 479 b 250 488 253 479 250 482 b 254 510 250 493 251 500 b 285 601 261 531 278 572 b 321 724 292 628 314 701 b 338 776 328 750 332 776 b 356 747 344 776 346 768 b 389 661 360 740 371 704 b 456 504 403 621 446 521 b 460 493 458 499 460 496 b 428 486 460 486 447 489 z "},"ä":{"ha":813,"x_min":0,"x_max":0,"o":"m 406 1081 b 481 1006 406 1047 421 1006 b 568 1081 540 1006 568 1043 b 508 1167 568 1124 546 1167 b 406 1081 471 1167 406 1157 z m 254 1086 b 163 1157 254 1135 206 1157 b 88 1081 119 1157 88 1118 b 168 1000 88 1031 131 1000 b 254 1086 201 1000 254 1031 z m 290 908 l 256 797 b 203 615 240 747 221 681 b 167 482 185 550 178 528 b 115 303 151 439 126 365 b 54 78 104 244 65 115 b 35 25 43 40 40 38 b 29 6 32 17 29 10 b 36 0 29 1 31 0 l 118 0 b 136 26 128 0 131 6 l 147 67 l 163 126 b 192 254 167 153 189 240 b 210 285 196 269 197 285 b 283 283 217 285 250 283 b 328 285 299 283 315 283 b 476 290 367 289 454 286 b 532 294 500 292 522 294 b 557 267 543 294 550 290 b 592 188 567 244 585 208 b 646 44 599 165 635 65 b 674 -1 656 24 663 -1 l 774 -1 b 799 10 786 -1 799 0 b 792 28 799 14 796 19 b 726 153 772 50 744 117 b 607 389 707 190 636 325 b 489 653 578 456 507 599 b 429 801 469 708 450 758 b 356 968 410 843 360 949 b 338 1007 350 985 347 1000 b 318 997 331 1014 324 1011 b 290 908 313 982 301 951 z m 428 486 b 263 479 404 482 279 479 b 250 488 253 479 250 482 b 254 510 250 493 251 500 b 285 601 261 531 278 572 b 321 724 292 628 314 701 b 338 776 328 750 332 776 b 356 747 344 776 346 768 b 389 661 360 740 371 704 b 456 504 403 621 446 521 b 460 493 458 499 460 496 b 428 486 460 486 447 489 z "},"à":{"ha":813,"x_min":0,"x_max":0,"o":"m 342 1047 l 372 1036 b 421 1031 390 1032 410 1029 b 474 1050 453 1026 474 1025 b 471 1068 474 1056 472 1061 b 401 1114 464 1094 417 1107 b 282 1154 353 1125 331 1133 b 239 1165 264 1160 251 1165 b 208 1154 229 1165 221 1161 b 182 1124 196 1149 182 1140 b 186 1108 182 1119 183 1114 b 256 1076 190 1097 240 1081 b 342 1047 274 1065 286 1072 z m 290 908 l 256 797 b 203 615 240 747 221 681 b 167 482 185 550 178 528 b 115 303 151 439 126 365 b 54 78 104 244 65 115 b 35 25 43 40 40 38 b 29 6 32 17 29 10 b 36 0 29 1 31 0 l 118 0 b 136 26 128 0 131 6 l 147 67 l 163 126 b 192 254 167 153 189 240 b 210 285 196 269 197 285 b 283 283 217 285 250 283 b 328 285 299 283 315 283 b 476 290 367 289 454 286 b 532 294 500 292 522 294 b 557 267 543 294 550 290 b 592 188 567 244 585 208 b 646 44 599 165 635 65 b 674 -1 656 24 663 -1 l 774 -1 b 799 10 786 -1 799 0 b 792 28 799 14 796 19 b 726 153 772 50 744 117 b 607 389 707 190 636 325 b 489 653 578 456 507 599 b 429 801 469 708 450 758 b 356 968 410 843 360 949 b 338 1007 350 985 347 1000 b 318 997 331 1014 324 1011 b 290 908 313 982 301 951 z m 428 486 b 263 479 404 482 279 479 b 250 488 253 479 250 482 b 254 510 250 493 251 500 b 285 601 261 531 278 572 b 321 724 292 628 314 701 b 338 776 328 750 332 776 b 356 747 344 776 346 768 b 389 661 360 740 371 704 b 456 504 403 621 446 521 b 460 493 458 499 460 496 b 428 486 460 486 447 489 z "},"ā":{"ha":811,"x_min":0,"x_max":0,"o":"m 514 1154 l 142 1154 b 126 1128 129 1154 126 1146 l 126 1090 b 138 1072 126 1081 126 1072 b 208 1076 144 1076 197 1076 l 392 1076 b 508 1072 425 1076 483 1072 b 539 1090 535 1072 539 1078 l 539 1132 b 524 1156 539 1144 539 1156 b 514 1154 521 1156 518 1154 z m 290 908 l 256 797 b 203 615 240 747 221 681 b 167 482 185 550 178 528 b 115 303 151 439 126 365 b 54 78 104 244 65 115 b 35 25 43 40 40 38 b 29 6 32 17 29 10 b 36 0 29 1 31 0 l 118 0 b 136 26 128 0 131 6 l 147 67 l 163 126 b 192 254 167 153 189 240 b 210 285 196 269 197 285 b 283 283 217 285 250 283 b 328 285 299 283 315 283 b 476 290 367 289 454 286 b 532 294 500 292 522 294 b 557 267 543 294 550 290 b 592 188 567 244 585 208 b 646 44 599 165 635 65 b 674 -1 656 24 663 -1 l 774 -1 b 799 10 786 -1 799 0 b 792 28 799 14 796 19 b 726 153 772 50 744 117 b 607 389 707 190 636 325 b 489 653 578 456 507 599 b 429 801 469 708 450 758 b 356 968 410 843 360 949 b 338 1007 350 985 347 1000 b 318 997 331 1014 324 1011 b 290 908 313 982 301 951 z m 428 486 b 263 479 404 482 279 479 b 250 488 253 479 250 482 b 254 510 250 493 251 500 b 285 601 261 531 278 572 b 321 724 292 628 314 701 b 338 776 328 750 332 776 b 356 747 344 776 346 768 b 389 661 360 740 371 704 b 456 504 403 621 446 521 b 460 493 458 499 460 496 b 428 486 460 486 447 489 z "},"ą":{"ha":811,"x_min":0,"x_max":0,"o":"m 733 -1 l 774 -1 b 799 10 786 -1 799 0 b 792 28 799 14 796 19 b 726 153 772 50 744 117 b 607 389 707 190 636 325 b 489 653 578 456 507 599 b 429 801 469 708 450 758 b 356 968 410 843 360 949 b 338 1007 350 985 347 1000 b 318 997 331 1014 324 1011 b 290 908 313 982 301 951 l 256 797 b 203 615 240 747 221 681 b 167 482 185 550 178 528 b 115 303 151 439 126 365 b 54 78 104 244 65 115 b 35 25 43 40 40 38 b 29 6 32 17 29 10 b 36 0 29 1 31 0 l 118 0 b 136 26 128 0 131 6 l 147 67 l 163 126 b 192 254 167 153 189 240 b 210 285 196 269 197 285 b 283 283 217 285 250 283 b 328 285 299 283 315 283 b 476 290 367 289 454 286 b 532 294 500 292 522 294 b 557 267 543 294 550 290 b 592 188 567 244 585 208 b 646 44 599 165 635 65 b 665 3 653 29 658 11 l 658 -11 b 639 -62 654 -21 647 -37 b 626 -126 631 -87 626 -108 b 740 -237 631 -219 672 -239 b 890 -137 790 -235 890 -175 b 863 -103 890 -124 874 -103 b 753 -135 850 -103 838 -140 b 725 -78 733 -133 725 -112 b 726 -53 725 -69 725 -61 b 733 -1 729 -31 732 -14 z m 428 486 b 263 479 404 482 279 479 b 250 488 253 479 250 482 b 254 510 250 493 251 500 b 285 601 261 531 278 572 b 321 724 292 628 314 701 b 338 776 328 750 332 776 b 356 747 344 776 346 768 b 389 661 360 740 371 704 b 456 504 403 621 446 521 b 460 493 458 499 460 496 b 428 486 460 486 447 489 z "},"å":{"ha":813,"x_min":0,"x_max":0,"o":"m 375 974 b 435 1067 422 997 435 1053 b 326 1167 435 1085 426 1167 b 240 1114 278 1167 251 1142 b 226 1061 233 1099 228 1081 b 324 967 226 1010 275 967 b 375 974 342 967 360 967 z m 333 1097 b 368 1067 356 1097 368 1081 b 344 1038 368 1046 349 1042 b 329 1036 343 1038 336 1036 b 294 1067 311 1036 294 1050 b 333 1097 294 1082 307 1097 z m 726 153 l 669 261 b 644 306 658 285 650 299 b 625 339 639 313 632 324 b 563 447 610 372 586 397 b 507 575 539 499 518 547 b 447 724 488 631 468 681 b 374 890 428 765 378 871 b 338 929 344 907 347 922 b 318 919 331 936 324 933 b 290 831 313 904 301 874 l 256 719 b 203 538 240 669 221 603 b 167 404 185 472 178 450 b 115 253 151 361 126 315 b 101 222 113 238 108 228 b 83 182 96 218 90 204 l 54 78 b 35 25 43 40 40 38 b 29 6 32 17 29 10 b 36 0 29 1 31 0 l 118 0 b 136 26 128 0 131 6 l 147 67 l 163 126 b 192 254 167 153 189 240 b 210 285 196 269 197 285 b 283 283 217 285 250 283 b 328 285 299 283 315 283 b 476 290 367 289 454 286 b 532 294 500 292 522 294 b 557 267 543 294 550 290 b 592 188 567 244 585 208 b 646 44 599 165 635 65 b 674 -1 656 24 663 -1 l 774 -1 b 799 10 786 -1 799 0 b 792 28 799 14 796 19 b 726 153 772 50 744 117 z m 428 408 b 263 401 404 404 279 401 b 250 410 253 401 250 404 b 254 432 250 415 251 422 b 285 524 261 453 278 494 b 321 646 292 550 314 624 b 338 699 328 672 332 699 b 356 669 344 699 346 690 b 389 583 360 663 371 626 b 456 426 403 543 446 443 b 460 415 458 421 460 418 b 428 408 460 408 447 411 z "},"ǻ":{"ha":811,"x_min":0,"x_max":0,"o":"m 340 1210 l 310 1199 b 225 1167 253 1174 244 1178 b 156 1132 211 1163 158 1142 b 153 1118 154 1126 153 1122 b 181 1088 153 1101 168 1092 b 210 1078 192 1081 200 1078 b 231 1082 217 1078 224 1079 b 228 1061 229 1075 228 1068 b 308 968 228 1015 265 976 b 290 908 303 953 296 932 l 256 797 b 203 615 240 747 221 681 b 167 482 185 550 178 528 b 115 303 151 439 126 365 b 54 78 104 244 65 115 b 35 25 43 40 40 38 b 29 6 32 17 29 10 b 36 0 29 1 31 0 l 118 0 b 136 26 128 0 131 6 l 147 67 l 163 126 b 192 254 167 153 189 240 b 210 285 196 269 197 285 b 283 283 217 285 250 283 b 328 285 299 283 315 283 b 476 290 367 289 454 286 b 532 294 500 292 522 294 b 557 267 543 294 550 290 b 592 188 567 244 585 208 b 646 44 599 165 635 65 b 674 -1 656 24 663 -1 l 774 -1 b 799 10 786 -1 799 0 b 792 28 799 14 796 19 b 726 153 772 50 744 117 b 607 389 707 190 636 325 b 489 653 578 456 507 599 b 429 801 469 708 450 758 b 356 968 410 843 360 949 b 376 974 363 969 369 971 b 436 1067 424 997 436 1053 b 399 1146 436 1079 432 1121 b 440 1183 417 1156 436 1168 b 417 1222 446 1214 436 1222 b 389 1219 410 1222 400 1221 b 340 1210 378 1219 357 1215 z m 296 1067 b 335 1097 296 1082 308 1097 b 369 1067 357 1097 369 1081 b 346 1038 369 1046 350 1042 b 331 1036 344 1038 338 1036 b 296 1067 313 1036 296 1050 z m 428 486 b 263 479 404 482 279 479 b 250 488 253 479 250 482 b 254 510 250 493 251 500 b 285 601 261 531 278 572 b 321 724 292 628 314 701 b 338 776 328 750 332 776 b 356 747 344 776 346 768 b 389 661 360 740 371 704 b 456 504 403 621 446 521 b 460 493 458 499 460 496 b 428 486 460 486 447 489 z "},"ã":{"ha":813,"x_min":0,"x_max":0,"o":"m 599 1093 l 599 1114 b 558 1149 596 1125 611 1146 b 469 1154 532 1153 503 1154 b 304 1143 397 1154 343 1150 b 204 1131 265 1136 243 1131 b 125 1150 161 1139 136 1150 b 115 1143 119 1150 117 1149 b 113 1111 113 1133 113 1121 b 113 1093 113 1104 113 1097 b 204 1061 113 1081 119 1061 b 329 1072 258 1061 281 1068 b 475 1088 378 1076 410 1086 b 567 1071 508 1088 540 1071 b 599 1093 588 1071 599 1078 z m 290 908 l 256 797 b 203 615 240 747 221 681 b 167 482 185 550 178 528 b 115 303 151 439 126 365 b 54 78 104 244 65 115 b 35 25 43 40 40 38 b 29 6 32 17 29 10 b 36 0 29 1 31 0 l 118 0 b 136 26 128 0 131 6 l 147 67 l 163 126 b 192 254 167 153 189 240 b 210 285 196 269 197 285 b 283 283 217 285 250 283 b 328 285 299 283 315 283 b 476 290 367 289 454 286 b 532 294 500 292 522 294 b 557 267 543 294 550 290 b 592 188 567 244 585 208 b 646 44 599 165 635 65 b 674 -1 656 24 663 -1 l 774 -1 b 799 10 786 -1 799 0 b 792 28 799 14 796 19 b 726 153 772 50 744 117 b 607 389 707 190 636 325 b 489 653 578 456 507 599 b 429 801 469 708 450 758 b 356 968 410 843 360 949 b 338 1007 350 985 347 1000 b 318 997 331 1014 324 1011 b 290 908 313 982 301 951 z m 428 486 b 263 479 404 482 279 479 b 250 488 253 479 250 482 b 254 510 250 493 251 500 b 285 601 261 531 278 572 b 321 724 292 628 314 701 b 338 776 328 750 332 776 b 356 747 344 776 346 768 b 389 661 360 740 371 704 b 456 504 403 621 446 521 b 460 493 458 499 460 496 b 428 486 460 486 447 489 z "},"æ":{"ha":1353,"x_min":0,"x_max":0,"o":"m 1318 894 l 1318 924 b 1294 961 1318 939 1324 961 b 1053 965 1265 961 1125 965 b 819 957 978 965 863 957 b 747 963 797 957 769 963 b 708 958 732 963 721 958 b 690 961 703 958 697 960 l 690 990 b 686 1007 690 997 689 1003 b 663 997 682 1014 674 1011 b 603 908 651 982 629 951 l 528 797 l 410 615 b 326 482 369 549 353 528 b 210 303 294 439 243 365 b 69 78 176 244 93 117 b 31 25 46 40 42 38 b 18 4 24 15 18 8 b 24 0 18 1 19 0 l 106 0 b 133 26 115 0 121 6 l 158 67 b 193 126 171 89 186 111 b 269 254 208 153 260 242 b 299 285 279 269 286 285 b 346 283 304 285 324 283 l 382 283 b 417 285 394 283 407 283 b 567 290 456 289 546 286 b 624 294 590 292 614 294 b 639 274 633 294 639 292 b 639 267 639 271 639 269 b 644 188 640 244 644 208 b 646 115 644 176 646 147 l 646 72 b 647 44 646 60 646 50 b 658 -1 649 24 647 -1 l 758 -1 b 832 0 768 -1 792 -1 l 1001 7 b 1101 8 1032 8 1067 8 b 1253 4 1165 8 1228 7 b 1278 3 1263 3 1271 3 b 1307 19 1299 3 1307 7 b 1310 63 1307 35 1310 50 b 1294 85 1310 78 1310 85 b 1206 88 1279 85 1243 88 b 1071 83 1168 88 1121 83 b 924 86 1021 83 975 86 l 879 86 b 833 88 864 86 849 86 b 781 89 817 88 799 88 b 782 124 781 100 781 111 b 783 193 782 144 783 169 l 783 233 b 782 326 783 265 782 299 l 782 358 b 776 436 782 390 776 404 b 779 481 776 451 778 468 l 783 503 b 822 501 796 501 808 501 l 861 501 b 904 504 876 501 890 503 b 1078 508 960 508 1026 508 b 1269 493 1131 508 1250 493 b 1290 508 1290 493 1289 496 b 1293 558 1292 519 1292 551 b 1276 576 1294 564 1292 576 b 1268 575 1274 576 1271 575 b 1247 574 1263 574 1256 574 b 1151 578 1219 574 1176 578 b 1079 574 1118 578 1096 574 b 971 579 1063 574 1015 579 b 875 574 928 579 899 574 l 819 574 b 782 575 807 574 794 574 b 781 610 781 588 781 599 l 781 665 b 775 772 781 697 775 733 l 775 804 b 776 838 775 817 775 828 l 779 875 l 811 878 b 874 882 829 879 853 882 l 910 882 b 1004 881 939 882 972 881 l 1268 881 b 1313 876 1294 881 1297 876 b 1318 894 1317 876 1318 882 z m 589 486 b 421 479 563 482 438 479 b 410 485 414 479 410 481 b 424 510 410 489 417 497 b 488 601 439 531 469 572 b 567 724 503 628 553 701 b 603 776 583 750 597 776 b 610 747 610 776 608 768 b 613 661 611 740 608 704 b 622 504 613 622 619 521 b 589 486 624 483 615 490 z "},"ǽ":{"ha":1353,"x_min":0,"x_max":0,"o":"m 869 1153 l 839 1142 b 754 1110 782 1117 774 1121 b 685 1075 740 1106 688 1085 b 682 1061 683 1069 682 1065 b 710 1031 682 1044 697 1035 b 739 1021 721 1024 729 1021 b 783 1033 751 1021 764 1026 b 901 1079 831 1056 854 1064 b 969 1126 917 1083 963 1103 b 946 1165 975 1157 965 1165 b 918 1163 939 1165 929 1164 b 869 1153 907 1163 886 1158 z m 1318 894 l 1318 924 b 1294 961 1318 939 1324 961 b 1053 965 1265 961 1125 965 b 819 957 978 965 863 957 b 747 963 797 957 769 963 b 708 958 732 963 721 958 b 690 961 703 958 697 960 l 690 990 b 686 1007 690 997 689 1003 b 663 997 682 1014 674 1011 b 603 908 651 982 629 951 l 528 797 l 410 615 b 326 482 369 549 353 528 b 210 303 294 439 243 365 b 69 78 176 244 93 117 b 31 25 46 40 42 38 b 18 4 24 15 18 8 b 24 0 18 1 19 0 l 106 0 b 133 26 115 0 121 6 l 158 67 b 193 126 171 89 186 111 b 269 254 208 153 260 242 b 299 285 279 269 286 285 b 346 283 304 285 324 283 l 382 283 b 417 285 394 283 407 283 b 567 290 456 289 546 286 b 624 294 590 292 614 294 b 639 274 633 294 639 292 b 639 267 639 271 639 269 b 644 188 640 244 644 208 b 646 115 644 176 646 147 l 646 72 b 647 44 646 60 646 50 b 658 -1 649 24 647 -1 l 758 -1 b 832 0 768 -1 792 -1 l 1001 7 b 1101 8 1032 8 1067 8 b 1253 4 1165 8 1228 7 b 1278 3 1263 3 1271 3 b 1307 19 1299 3 1307 7 b 1310 63 1307 35 1310 50 b 1294 85 1310 78 1310 85 b 1206 88 1279 85 1243 88 b 1071 83 1168 88 1121 83 b 924 86 1021 83 975 86 l 879 86 b 833 88 864 86 849 86 b 781 89 817 88 799 88 b 782 124 781 100 781 111 b 783 193 782 144 783 169 l 783 233 b 782 326 783 265 782 299 l 782 358 b 776 436 782 390 776 404 b 779 481 776 451 778 468 l 783 503 b 822 501 796 501 808 501 l 861 501 b 904 504 876 501 890 503 b 1078 508 960 508 1026 508 b 1269 493 1131 508 1250 493 b 1290 508 1290 493 1289 496 b 1293 558 1292 519 1292 551 b 1276 576 1294 564 1292 576 b 1268 575 1274 576 1271 575 b 1247 574 1263 574 1256 574 b 1151 578 1219 574 1176 578 b 1079 574 1118 578 1096 574 b 971 579 1063 574 1015 579 b 875 574 928 579 899 574 l 819 574 b 782 575 807 574 794 574 b 781 610 781 588 781 599 l 781 665 b 775 772 781 697 775 733 l 775 804 b 776 838 775 817 775 828 l 779 875 l 811 878 b 874 882 829 879 853 882 l 910 882 b 1004 881 939 882 972 881 l 1268 881 b 1313 876 1294 881 1297 876 b 1318 894 1317 876 1318 882 z m 589 486 b 421 479 563 482 438 479 b 410 485 414 479 410 481 b 424 510 410 489 417 497 b 488 601 439 531 469 572 b 567 724 503 628 553 701 b 603 776 583 750 597 776 b 610 747 610 776 608 768 b 613 661 611 740 608 704 b 622 504 613 622 619 521 b 589 486 624 483 615 490 z "},"b":{"ha":767,"x_min":0,"x_max":0,"o":"m 440 533 b 549 572 481 542 517 554 b 657 744 603 601 657 654 b 404 988 657 926 549 988 b 213 992 260 988 247 992 b 146 986 186 992 161 986 b 125 988 140 986 132 988 b 100 969 113 988 100 985 b 106 843 100 946 106 879 b 92 639 106 808 92 699 b 96 301 92 581 96 364 b 88 72 96 239 88 99 b 88 11 88 42 88 33 b 124 -18 88 -4 92 -18 b 426 -8 161 -18 349 -8 b 717 194 504 -8 717 6 b 578 488 717 361 649 443 b 440 533 538 513 492 528 z m 144 850 l 147 885 b 218 888 172 886 196 888 b 332 879 260 888 297 885 b 517 738 424 865 517 829 b 385 632 517 640 433 632 b 263 628 336 632 292 628 b 165 632 231 628 188 632 b 138 653 143 632 138 632 b 143 792 138 669 143 764 b 144 850 143 807 143 829 z m 386 82 b 214 93 329 82 263 92 l 142 96 b 126 118 132 96 126 97 b 128 215 126 136 128 178 b 132 340 128 253 132 294 b 131 422 132 388 131 407 b 164 439 131 435 132 439 b 410 422 179 439 378 426 b 565 218 439 418 565 378 b 386 82 565 89 443 82 z "},"c":{"ha":797,"x_min":0,"x_max":0,"o":"m 406 1000 b 58 518 279 1000 58 939 b 435 -21 58 97 289 -21 b 743 211 647 -21 718 135 b 754 260 749 229 753 244 b 756 281 756 267 756 274 b 736 314 756 297 751 311 b 575 350 697 321 594 343 b 540 357 565 351 553 357 b 504 324 526 357 513 350 b 436 264 489 275 471 264 b 343 524 401 264 343 325 b 432 771 343 724 383 771 b 517 719 481 771 504 732 b 546 693 525 710 532 693 b 557 697 549 693 553 694 b 671 783 578 708 650 769 b 701 814 686 793 701 800 b 688 842 701 821 697 829 b 406 1000 658 879 606 1000 z "},"ć":{"ha":797,"x_min":0,"x_max":0,"o":"m 460 1153 l 429 1142 b 344 1110 372 1117 364 1121 b 275 1075 331 1106 278 1085 b 272 1061 274 1069 272 1065 b 300 1031 272 1044 288 1035 b 329 1021 311 1024 319 1021 b 374 1033 342 1021 354 1026 b 492 1079 421 1056 444 1064 b 560 1126 507 1083 553 1103 b 536 1165 565 1157 556 1165 b 508 1163 529 1165 519 1164 b 460 1153 497 1163 476 1158 z m 406 1000 b 58 518 279 1000 58 939 b 435 -21 58 97 289 -21 b 743 211 647 -21 718 135 b 754 260 749 229 753 244 b 756 281 756 267 756 274 b 736 314 756 297 751 311 b 575 350 697 321 594 343 b 540 357 565 351 553 357 b 504 324 526 357 513 350 b 436 264 489 275 471 264 b 343 524 401 264 343 325 b 432 771 343 724 383 771 b 517 719 481 771 504 732 b 546 693 525 710 532 693 b 557 697 549 693 553 694 b 671 783 578 708 650 769 b 701 814 686 793 701 800 b 688 842 701 821 697 829 b 406 1000 658 879 606 1000 z "},"č":{"ha":797,"x_min":0,"x_max":0,"o":"m 578 1099 l 614 1122 b 625 1139 621 1126 625 1133 b 592 1161 625 1150 614 1161 b 539 1157 574 1161 557 1160 b 458 1128 500 1146 481 1139 b 396 1099 449 1122 428 1113 l 351 1119 b 303 1144 336 1129 321 1138 l 265 1154 b 228 1164 250 1160 238 1164 b 206 1143 217 1164 210 1158 b 253 1096 201 1125 242 1103 b 346 1036 290 1072 308 1063 b 399 1015 369 1024 378 1015 b 414 1017 404 1015 408 1015 b 439 1022 421 1017 429 1018 b 511 1058 454 1026 479 1040 b 578 1099 553 1090 564 1092 z m 406 1000 b 58 518 279 1000 58 939 b 435 -21 58 97 289 -21 b 743 211 647 -21 718 135 b 754 260 749 229 753 244 b 756 281 756 267 756 274 b 736 314 756 297 751 311 b 575 350 697 321 594 343 b 540 357 565 351 553 357 b 504 324 526 357 513 350 b 436 264 489 275 471 264 b 343 524 401 264 343 325 b 432 771 343 724 383 771 b 517 719 481 771 504 732 b 546 693 525 710 532 693 b 557 697 549 693 553 694 b 671 783 578 708 650 769 b 701 814 686 793 701 800 b 688 842 701 821 697 829 b 406 1000 658 879 606 1000 z "},"ç":{"ha":800,"x_min":0,"x_max":0,"o":"m 736 365 b 575 401 697 372 594 394 b 540 408 565 403 553 408 b 504 375 526 408 513 401 b 436 315 489 326 471 315 b 376 371 419 315 394 331 b 343 551 358 411 343 451 b 369 722 343 614 353 685 b 432 771 386 760 408 771 b 517 719 481 771 504 732 b 546 693 525 710 532 693 b 557 697 549 693 553 694 b 671 783 578 708 650 769 b 701 814 686 793 701 800 b 688 842 701 821 697 829 b 406 1000 658 879 606 1000 b 185 917 340 1000 258 985 b 58 546 114 857 58 706 b 192 142 58 367 115 225 b 357 40 243 86 303 56 b 338 -25 347 14 340 -7 b 328 -75 332 -47 328 -51 b 371 -86 329 -85 338 -86 b 417 -67 381 -86 396 -67 b 450 -112 443 -67 450 -86 b 393 -149 442 -147 429 -146 b 340 -140 369 -149 358 -146 b 307 -122 322 -131 313 -122 b 303 -128 304 -122 303 -124 b 292 -196 296 -160 292 -181 b 385 -222 292 -211 342 -222 b 472 -208 447 -222 457 -215 b 493 -193 479 -204 486 -200 b 536 -118 508 -181 535 -162 b 450 -21 536 -42 496 -21 b 383 -33 407 -21 401 -24 b 419 31 389 -12 400 4 l 435 31 b 743 263 647 31 718 186 b 754 311 749 281 753 296 b 756 332 756 318 756 325 b 736 365 756 349 751 363 z "},"ĉ":{"ha":797,"x_min":0,"x_max":0,"o":"m 238 1081 l 200 1057 b 190 1040 193 1053 190 1046 b 224 1018 190 1029 201 1018 b 276 1022 242 1018 258 1019 b 356 1051 315 1033 335 1040 l 419 1081 l 464 1060 b 513 1035 479 1050 494 1042 l 550 1025 b 588 1015 565 1019 578 1015 b 610 1036 599 1015 606 1021 b 563 1083 614 1054 574 1076 b 469 1143 525 1107 507 1117 b 417 1164 446 1156 438 1164 b 401 1163 411 1164 407 1164 b 376 1157 394 1163 386 1161 b 304 1121 361 1153 336 1139 b 238 1081 263 1089 251 1088 z m 406 1000 b 58 518 279 1000 58 939 b 435 -21 58 97 289 -21 b 743 211 647 -21 718 135 b 754 260 749 229 753 244 b 756 281 756 267 756 274 b 736 314 756 297 751 311 b 575 350 697 321 594 343 b 540 357 565 351 553 357 b 504 324 526 357 513 350 b 436 264 489 275 471 264 b 343 524 401 264 343 325 b 432 771 343 724 383 771 b 517 719 481 771 504 732 b 546 693 525 710 532 693 b 557 697 549 693 553 694 b 671 783 578 708 650 769 b 701 814 686 793 701 800 b 688 842 701 821 697 829 b 406 1000 658 879 606 1000 z "},"ċ":{"ha":797,"x_min":0,"x_max":0,"o":"m 486 1092 b 389 1167 486 1140 435 1167 b 310 1085 344 1167 310 1125 b 394 1000 310 1033 356 1000 b 486 1092 431 1000 486 1031 z m 406 944 b 185 861 340 944 258 929 b 75 672 136 817 97 738 b 58 518 64 640 58 589 b 435 -21 58 97 289 -21 b 743 211 647 -21 718 135 b 754 260 749 229 753 244 b 756 281 756 267 756 274 b 736 314 756 297 751 311 b 575 350 697 321 594 343 b 540 357 565 351 553 357 b 504 324 526 357 513 350 b 436 264 489 275 471 264 b 343 524 401 264 343 325 b 432 715 343 644 385 721 b 517 664 481 715 504 676 b 546 638 525 654 532 638 b 557 642 549 638 553 639 b 671 728 578 653 650 714 b 701 758 686 738 701 744 b 688 786 701 765 697 774 b 406 944 658 824 606 944 z "},"d":{"ha":793,"x_min":0,"x_max":0,"o":"m 117 1 l 258 1 b 579 79 296 1 476 13 b 743 463 681 146 743 343 b 608 853 743 585 731 744 b 386 960 485 961 421 956 b 246 967 349 964 307 967 b 192 968 229 967 210 968 b 132 965 174 968 144 965 b 107 969 121 965 115 969 b 103 969 106 969 104 969 b 88 913 90 969 89 950 b 94 696 88 874 94 756 b 93 417 94 636 93 510 b 97 75 93 321 97 106 b 99 35 97 54 99 43 b 97 24 99 31 99 28 b 117 1 93 14 94 1 z m 325 767 l 331 893 b 504 846 396 892 453 876 b 678 463 589 794 678 686 b 501 89 678 239 589 133 b 326 54 450 63 392 50 b 328 188 326 101 326 146 b 329 367 328 258 329 338 b 321 579 329 426 321 496 b 325 767 321 619 321 699 z "},"ð":{"ha":801,"x_min":0,"x_max":0,"o":"m 238 969 l 188 967 b 94 946 154 967 94 974 b 97 710 94 917 97 822 b 90 533 97 642 93 589 l 18 533 b 3 507 6 533 3 525 l 3 469 b 14 451 3 460 3 451 b 85 456 21 456 74 456 l 86 456 l 86 421 b 93 215 86 311 93 243 b 97 83 93 186 97 117 b 96 47 97 72 96 60 b 122 0 96 22 100 0 b 311 3 157 0 257 3 b 753 438 364 3 753 19 b 332 972 753 888 461 972 b 238 969 300 972 267 971 z m 415 469 l 415 511 b 400 535 415 524 415 535 b 390 533 397 535 394 533 l 289 533 b 294 628 292 564 294 597 b 290 678 294 646 293 663 b 407 658 333 676 372 669 b 508 504 481 631 508 575 b 406 325 507 406 476 351 b 279 297 372 313 331 304 b 282 369 279 321 281 346 l 286 456 b 385 451 319 454 364 451 b 415 469 411 451 415 457 z "}}}
